<svg xmlns="http://www.w3.org/2000/svg" aria-hidden="true" aria-label="Options d'accessibilité" viewBox="0 0 32 32">
    <path d="M31.8 15.938c-.288-.395-7.1-9.602-15.8-9.602h-.896L13.664.175l-1.931.448 1.392 6.017v.048c-.816.186-1.511.402-2.183.665l.103-.035c-.742.281-1.35.559-1.937.871l.092-.044c-.693.358-1.26.693-1.808 1.054l.075-.046a23.13 23.13 0 0 0-1.755 1.238q-.656.507-1.248 1.024a30.734 30.734 0 0 0-1.675 1.563c-.331.347-.656.656-.907.955a37.578 37.578 0 0 0-1.6 1.899l-.08.107a1.065 1.065 0 0 0 .002 1.246l-.002-.003c.043.059.235.315.533.709a32.028 32.028 0 0 0 2.714 2.886l.017.016v-.117l-.944-3.969-.059-.229c.235-.283.533-.635.896-1.03l.677 2.939.853 3.686a25.76 25.76 0 0 0 2.367 1.764l.097.06-.309-1.334-.421-1.819-1.536-6.646-.075-.32c.379-.363.795-.731 1.232-1.094l.069.315.533 2.336 1.547 6.716.533 2.299.128.533a16.8 16.8 0 0 0 2.155.968l.123.04-.507-2.182v-.101l-.059-.251-1.915-8.193-.56-2.432-.245-1.067-.075-.32c.479-.336 1.044-.69 1.626-1.015l.102-.052.128.56.256 1.094.533 2.336 2.086 9.015.208.917.165.704.165.715.203.88c.615.131 1.336.221 2.072.25l.025.001-.117-.533-.203-.869-.085-.373-.091-.389-.469-2.043-.405-1.739a4.554 4.554 0 0 0 1.822.373h.003a3.627 3.627 0 0 0 .497-.001l-.011.001.533 2.315.245 1.067.155.677v.037l.304 1.323v.064l1.115 4.801a.47.47 0 0 0 .569.352l-.003.001 1.019-.24a.465.465 0 0 0 .351-.536v.003l-1.104-4.801.197-.059c6.806-2.054 11.698-8.668 11.938-8.999a1.065 1.065 0 0 0-.002-1.246l.002.003zm-19.31-2.411-.432-1.867-.24-1.067-.176-.747-.107-.464c.577-.245 1.27-.47 1.984-.638l.091-.018.24 1.067.533 2.336v.064a4.697 4.697 0 0 0-1.888 1.327l-.005.006zm3.894-1.601-.533-2.411h.213a7.03 7.03 0 0 1 3.123 13.317l-.041.018-.213.075v-.091l-.533-2.315a4.636 4.636 0 0 0-1.999-8.582l-.017-.001zm5.724 10.999c1.683-1.609 2.728-3.872 2.728-6.38s-1.046-4.77-2.725-6.377l-.003-.003c2.919 1.718 5.391 3.851 7.429 6.351l.039.05a27.409 27.409 0 0 1-7.34 6.289l-.128.069z"/>
</svg>