<?xml version="1.0" encoding="UTF-8"?>
<svg id="Calque_1" data-name="Calque 1" xmlns="http://www.w3.org/2000/svg" version="1.1" viewBox="0 0 1024 1024">
    <defs>
        <style>
            .art-1 {
            fill: currentColor;
            }

            .art-1, .art-2 {
            stroke-width: 8px;
            stroke: currentColor;
            }

            .art-2 {
            fill: transparent;
            }
        </style>
    </defs>
    <g id="kcMNRs.tif">
        <g>
            <path class="art-1"
                  d="M753,627.7c-33.1,0-66.5-2.8-99.3.7-51.5,5.5-83.2,61.4-66,110.7,12.1,34.7,26.2,69.1,34.6,104.8,13,55.4-32,119.7-89.4,121.9C212.7,986.4-34.9,641.9,89.6,345.3,191.5,64.8,568.9-33.5,796.6,157.8c108.3,67.8,271.6,405,89.2,458.8-43.3,10.9-88.4,9.1-132.7,8.7,0,.8,0,1.6,0,2.3ZM754.9,538.5c0,.5,0,1.1,0,1.6,26.5,0,53.1.2,79.6-.1,20,.6,50.2-4.8,47.9-29.6,2.1-231.8-227.9-414.4-453.4-358.5C4.2,250.4,76.2,881.7,513.8,881.7c44.2,1,22.1-44.6,11.1-68.2-58.4-102.9-12.2-255.1,119.5-269.8,36.8-2.3,73.7-3.5,110.5-5.2Z"/>
            <path class="art-2"
                  d="M754.9,538.5c-36.9,1.7-73.7,2.9-110.6,5.2-131.7,14.7-177.8,166.9-119.5,269.8,11,23.5,33.1,69.3-11.1,68.2-437.5,0-509.6-631.3-84.7-729.8,225.4-55.8,455.4,126.7,453.3,358.5,2.3,24.8-27.8,30.2-47.9,29.6-26.5.3-53.1.1-79.6.1,0-.5,0-1.1,0-1.6ZM340.9,285.4c-74.5-.2-72.1,113.6-.2,111.4,73.4,4.4,75-113.2.2-111.4ZM738,341.7c2.7-73.6-111-74.3-111.5-1.9-4.2,70.8,111.6,80.4,111.5,1.9ZM456.4,282.6c-3.7,75.2,111.7,76.9,111,2.1,3.5-71.7-112.4-73.4-111-2.1ZM283.4,568c72.2,1.1,76.4-111.1,1.8-111.4-72.7-4-75,110.4-1.8,111.4Z"/>
            <path class="art-1" d="M340.9,285.4c74.8-1.8,73.2,115.9-.2,111.4-72,2.2-74.3-111.7.2-111.4Z"/>
            <path class="art-1" d="M738,341.7c.1,78.4-115.7,68.8-111.5-1.9.4-72.4,114.2-71.6,111.5,1.9Z"/>
            <path class="art-1" d="M456.4,282.6c-1.4-71.3,114.6-69.7,111,2.1.7,74.8-114.7,73.1-111-2.1Z"/>
            <path class="art-1" d="M283.4,568c-73.3-1.1-70.9-115.4,1.8-111.4,74.7.3,70.5,112.5-1.8,111.4Z"/>
        </g>
    </g>
</svg>