<svg fill="none" height="28" viewBox="0 0 28 28" width="28" xmlns="http://www.w3.org/2000/svg">
    <path clip-rule="evenodd"
          d="m17.1111 3.11111c-.8591 0-1.5555-.69644-1.5555-1.55555 0-.859114.6964-1.55556 1.5555-1.55556h9.3333c.8592 0 1.5556.696446 1.5556 1.55556v9.33334c0 .8591-.6964 1.5555-1.5556 1.5555-.8591 0-1.5555-.6964-1.5555-1.5555v-5.5779l-12.9001 12.9001c-.6074.6074-1.5924.6074-2.19985 0-.60749-.6075-.60749-1.5925 0-2.1999l12.90005-12.90009zm-12.44443 3.11111c-.85911 0-1.55556.69645-1.55556 1.55556v15.55552c0 .8591.69645 1.5556 1.55556 1.5556h15.55553c.8591 0 1.5556-.6965 1.5556-1.5556v-6.2222c0-.8591.6964-1.5555 1.5555-1.5555s1.5556.6964 1.5556 1.5555v6.2222c0 2.5774-2.0893 4.6667-4.6667 4.6667h-15.55553c-2.57733 0-4.66667-2.0893-4.66667-4.6667v-15.55552c0-2.57733 2.08934-4.66667 4.66667-4.66667h6.22223c.8591 0 1.5555.69645 1.5555 1.55556s-.6964 1.55555-1.5555 1.55555z"
          fill="current"/>
</svg>