<?xml version="1.0" encoding="UTF-8"?>
<svg id="Calque_1" data-name="Calque 1" xmlns="http://www.w3.org/2000/svg" version="1.1" viewBox="0 0 1024 1024">
    <defs>
        <style>
            .cls-1 {
            stroke-width: 0px;
            }

            .cls-1, .cls-2 {
            fill: currentColor;
            }

            .cls-2 {
            stroke: currentColor;
            stroke-linecap: round;
            stroke-miterlimit: 10;
            stroke-width: 48px;
            }
        </style>
    </defs>
    <path class="cls-1"
          d="M849.5,154H113.3c-24.5,0-39.8,26.7-27.5,48l232.6,395.4v240.6c0,17.7,14.2,32,31.8,32h262.4c17.6,0,31.8-14.3,31.8-32v-240.6l232.7-395.4c12.2-21.3-3.1-48-27.6-48h0ZM572.8,798h-182.8v-156h182.9v156h-.1ZM582.4,561.4l-9.5,16.6h-183l-9.5-16.6L182.1,226h598.6l-198.3,335.4h0Z"/>
    <circle class="cls-2" cx="762.3" cy="812" r="38.1"/>
    <circle class="cls-2" cx="904.4" cy="812" r="38.1"/>
</svg>