<?xml version="1.0" encoding="UTF-8"?>
<svg id="Calque_1" data-name="Calque 1" xmlns="http://www.w3.org/2000/svg" version="1.1" viewBox="0 0 1024 1024">
    <defs>
        <style>
            .referent, .cls-2 {
            fill: currentColor;
            stroke: currentColor;
            stroke-width: 8px;
            }

            .cls-2 {
            stroke-miterlimit: 10;
            stroke-width: 25px;
            }
        </style>
    </defs>
    <path class="referent"
          d="M673,583.2c-34.2-34.3-74.8-61.6-119.4-80.6-.4-.3-.8-.3-1.3-.5,62.2-45,102.7-118.1,102.7-200.8,0-136.9-110.9-247.7-247.7-247.7s-247.7,110.9-247.7,247.7,40.5,155.9,102.7,201c-.4.3-.8.3-1.3.5-44.7,18.9-85,46-119.4,80.6-34.3,34.2-61.6,74.8-80.6,119.4-18.6,43.7-28.5,90.5-29.4,138,0,4.4,3.4,8,7.8,8.2h60.2c4.4,0,7.9-3.5,8-7.8,2-77.2,32.9-149.3,87.7-204.1,56.7-56.7,131.8-87.9,212-87.9s155.3,31.2,212,87.9M407.4,473.2c-45.9,0-89-17.8-121.5-50.4-32.4-32.4-50.4-75.7-50.4-121.5s17.8-89,50.4-121.5c32.4-32.4,75.7-50.4,121.5-50.4s89,17.8,121.5,50.4c32.4,32.4,50.4,75.7,50.4,121.5s-17.8,89-50.4,121.5c-32.4,32.4-75.7,50.4-121.5,50.4h0Z"/>
    <path class="cls-2"
          d="M698.9,896.4c0-2.3-1.8-4.1-4.1-4.1h-84.5c-39.1,0-74.2-30.9-74.2-74.2,0-43.3,35.1-74.2,74.2-74.2h84.5c2.3,0,4.1-1.9,4.1-4.1v-28.9c0-2.3-1.8-4.1-4.1-4.1h-84.5c-61.5,0-111.3,49.8-111.3,111.3,0,61.5,49.8,111.3,111.3,111.3h84.5c2.3,0,4.1-1.9,4.1-4.1v-28.8ZM965.3,818.1c0-61.5-49.8-111.3-111.3-111.3h-84.5c-2.3,0-4.1,1.8-4.1,4.1v28.9c0,2.3,1.9,4.1,4.1,4.1h84.5c39.1,0,74.2,30.9,74.2,74.2,0,43.3-35.1,74.2-74.2,74.2h-84.5c-2.3,0-4.1,1.8-4.1,4.1v28.9c0,2.3,1.9,4.1,4.1,4.1h84.5c61.5,0,111.3-49.8,111.3-111.3h0ZM818.6,803c0-2.3-1.8-4.1-4.1-4.1h-164.7c-2.3,0-4.1,1.8-4.1,4.1v28.8c0,2.3,1.9,4.1,4.1,4.1h164.7c2.3,0,4.1-1.9,4.1-4.1v-28.8Z"/>
</svg>