<?xml version="1.0" encoding="utf-8"?>
<!-- Generator: Adobe Illustrator 28.3.0, SVG Export Plug-In . SVG Version: 6.00 Build 0)  -->
<svg version="1.1" id="Calque_1" xmlns="http://www.w3.org/2000/svg" x="0px" y="0px"
     viewBox="0 0 1024 1024" style="enable-background:new 0 0 1024 1024;" xml:space="preserve">
<style type="text/css">
	.st0{fill:#FFFFFF;stroke:currentColor;stroke-width:90;stroke-linecap:round;stroke-miterlimit:10;}
</style>
    <path d="M880.1,154H143.9c-24.5,0-39.8,26.7-27.5,48L349,597.4V838c0,17.7,14.2,32,31.8,32h262.4c17.6,0,31.8-14.3,31.8-32V597.4
	L907.7,202C919.9,180.7,904.6,154,880.1,154L880.1,154z M603.4,798H420.6V642h182.9L603.4,798L603.4,798z M613,561.4l-9.5,16.6h-183
	l-9.5-16.6L212.7,226h598.6L613,561.4z"/>
    <path class="st0" d="M746.5,697.5c67,67,134,134,201,201"/>
    <path class="st0" d="M947.5,697.5c-67,67-134,134-201,201"/>
</svg>
