<svg xmlns="http://www.w3.org/2000/svg" xml:space="preserve"
     style="fill-rule:evenodd;clip-rule:evenodd;stroke-linejoin:round;stroke-miterlimit:2" viewBox="0 0 2296 1808"><path d="M540.555 1431.9c-19.594 0-35.533-15.94-35.533-35.53V395.55c0-19.592 15.939-35.532 35.533-35.532H2000.29c19.6 0 35.54 15.94 35.54 35.532v1000.82c0 19.59-15.94 35.53-35.54 35.53H540.555Z" style="fill:#fff;fill-rule:nonzero;stroke:#000;stroke-width:1px" transform="translate(-248.527 -226.15)"/>
    <path d="M540.554 362.229c-18.372 0-33.32 14.947-33.32 33.322V1396.37c0 18.37 14.948 33.32 33.32 33.32H2000.29c18.38 0 33.32-14.95 33.32-33.32V395.551c0-18.375-14.94-33.322-33.32-33.322H540.554ZM2000.29 1434.11H540.554c-20.812 0-37.743-16.93-37.743-37.74V395.551c0-20.813 16.931-37.745 37.743-37.745H2000.29c20.82 0 37.75 16.932 37.75 37.745V1396.37c0 20.81-16.93 37.74-37.75 37.74Z"
          style="fill-rule:nonzero;stroke:#000;stroke-width:1px" transform="translate(-248.527 -226.15)"/>
    <path d="M1444.14 1405.06H839.477a2.21 2.21 0 1 1 0-4.42h604.663a2.21 2.21 0 0 1 0 4.42ZM538.854 797.293a2.21 2.21 0 0 1-2.211-2.179l-4.782-328.173a2.212 2.212 0 0 1 2.179-2.244h.033c1.207 0 2.194.97 2.211 2.179l4.781 328.173a2.21 2.21 0 0 1-2.178 2.244h-.033Zm-4.781-377.007a2.21 2.21 0 0 1-2.212-2.212c0-17.215 14.003-31.218 31.218-31.218h84.132a2.21 2.21 0 0 1 2.212 2.211 2.21 2.21 0 0 1-2.212 2.212h-84.132c-14.774 0-26.795 12.021-26.795 26.795a2.21 2.21 0 0 1-2.211 2.212Zm644.277-31.91H705.091a2.21 2.21 0 0 1-2.212-2.211 2.21 2.21 0 0 1 2.212-2.212h473.259c1.23 0 2.21.989 2.21 2.212 0 1.222-.98 2.211-2.21 2.211Z"
          style="fill-rule:nonzero;stroke:#000;stroke-width:1px" transform="translate(-248.527 -226.15)"/>
    <path d="M482.217 864.68a2.21 2.21 0 0 1-2.212-2.212V395.551c0-33.389 27.162-60.551 60.549-60.551H2000.29c33.39 0 60.55 27.162 60.55 60.551v15.951a2.21 2.21 0 1 1-4.42 0v-15.951c0-30.948-25.18-56.128-56.13-56.128H540.554c-30.949 0-56.126 25.18-56.126 56.128v466.917a2.21 2.21 0 0 1-2.211 2.212Zm1576.413 386.96a2.21 2.21 0 0 1-2.21-2.21V696.204a2.21 2.21 0 1 1 4.42 0v553.226c0 1.22-.99 2.21-2.21 2.21Zm-617.91 205.28H858.736a2.21 2.21 0 0 1-2.211-2.21c0-1.23.989-2.22 2.211-2.22h581.984c1.23 0 2.21.99 2.21 2.22 0 1.22-.98 2.21-2.21 2.21Z"
          style="fill-rule:nonzero;stroke:#000;stroke-width:1px" transform="translate(-248.527 -226.15)"/>
    <path d="M1707.89 1263.96H840.623l420.227-822.565 447.04 822.565Z"
          style="fill:#fff;fill-rule:nonzero;stroke:#000;stroke-width:1px" transform="translate(-248.527 -226.15)"/>
    <path d="M1148.5 899.234h198.74l69.05-158.207-155.41-294.376-181.86 358.586 69.48 93.997Zm200.19 4.423h-201.31c-.7 0-1.36-.332-1.78-.896l-70.94-95.993c-.5-.674-.58-1.57-.2-2.315l184.41-363.614a2.223 2.223 0 0 1 1.96-1.212h.02c.82 0 1.57.454 1.95 1.18l157.9 299.097c.32.595.34 1.301.07 1.918l-70.06 160.51a2.2 2.2 0 0 1-2.02 1.325Z"
          style="fill-rule:nonzero;stroke:#000;stroke-width:1px" transform="translate(-248.527 -226.15)"/>
    <path d="m1147.38 900.047 53.21 74.31 193.33 2.309-45.23-76.619h-201.31Z"
          style="fill:#fff;fill-rule:nonzero;stroke:#000;stroke-width:1px" transform="translate(-248.527 -226.15)"/>
    <path d="m1201.74 972.158 188.28 2.248-42.59-72.148h-195.75l50.06 69.9Zm192.18 6.718h-.03l-193.33-2.308a2.217 2.217 0 0 1-1.77-.924l-53.21-74.311a2.212 2.212 0 0 1 1.8-3.498h201.31c.78 0 1.51.413 1.9 1.086l45.23 76.619c.41.689.41 1.542.01 2.233a2.221 2.221 0 0 1-1.91 1.103Z"
          style="fill-rule:nonzero;stroke:#000;stroke-width:1px" transform="translate(-248.527 -226.15)"/>
    <path d="m1393.92 975.062 152.53-3.548-42.57-78.04-155.19 4.434 45.23 77.154Z"
          style="fill:#fff;fill-rule:nonzero;stroke:#000;stroke-width:1px" transform="translate(-248.527 -226.15)"/>
    <path d="m1352.49 900.012 42.68 72.807 147.6-3.432-40.18-73.662-150.1 4.287Zm41.43 77.26a2.21 2.21 0 0 1-1.91-1.093l-45.23-77.152a2.246 2.246 0 0 1-.03-2.19 2.218 2.218 0 0 1 1.88-1.14l155.19-4.434c.87.011 1.6.421 2 1.154l42.57 78.039c.37.676.36 1.497-.03 2.164a2.2 2.2 0 0 1-1.86 1.106l-152.53 3.546h-.05Z"
          style="fill-rule:nonzero;stroke:#000;stroke-width:1px" transform="translate(-248.527 -226.15)"/>
    <path d="m1503.88 893.474-85.13-154.307-70.06 158.741 155.19-4.434Z"
          style="fill:#fff;fill-rule:nonzero;stroke:#000;stroke-width:1px" transform="translate(-248.527 -226.15)"/>
    <path d="m1418.97 744.146-66.84 151.452 148.06-4.231-81.22-147.221Zm-70.28 155.974c-.74 0-1.42-.365-1.84-.978a2.206 2.206 0 0 1-.18-2.125l70.05-158.741a2.217 2.217 0 0 1 1.93-1.318c.85-.041 1.63.407 2.03 1.141l85.14 154.306c.37.677.36 1.497-.02 2.167a2.22 2.22 0 0 1-1.86 1.114l-155.19 4.434h-.06Z"
          style="fill-rule:nonzero;stroke:#000;stroke-width:1px" transform="translate(-248.527 -226.15)"/>
    <path d="m1200.59 973.288-36.36 70.942-210.178-2.66 54.988-103.755 164.06-2.66 27.49 38.133Z"
          style="fill:#fff;fill-rule:nonzero;stroke:#000;stroke-width:1px" transform="translate(-248.527 -226.15)"/>
    <path d="m957.701 1039.41 205.189 2.59 35.11-68.516-26.02-36.099-161.6 2.62-52.679 99.405Zm206.529 7.03h-.03l-210.177-2.65a2.247 2.247 0 0 1-1.874-1.09 2.204 2.204 0 0 1-.052-2.16l54.983-103.76a2.209 2.209 0 0 1 1.92-1.176l164.06-2.662c.81.044 1.41.333 1.83.918l27.49 38.134a2.2 2.2 0 0 1 .18 2.302l-36.36 70.944a2.21 2.21 0 0 1-1.97 1.2Z"
          style="fill-rule:nonzero;stroke:#000;stroke-width:1px" transform="translate(-248.527 -226.15)"/>
    <path d="m1076.43 803.683-67.39 134.132 164.06-2.66-96.67-131.472Z"
          style="fill:#fff;fill-rule:nonzero;stroke:#000;stroke-width:1px" transform="translate(-248.527 -226.15)"/>
    <path d="m1076.79 807.902-64.14 127.643 156.13-2.533-91.99-125.11Zm-67.76 132.124c-.76 0-1.46-.391-1.87-1.034a2.212 2.212 0 0 1-.1-2.171l67.4-134.131a2.199 2.199 0 0 1 1.79-1.209c.79-.095 1.51.274 1.97.892l96.66 131.47c.49.668.57 1.553.2 2.294a2.22 2.22 0 0 1-1.95 1.229l-164.06 2.66h-.04Zm273.53 321.064 250.96 1.74 52.61-112.23a2.2 2.2 0 0 1 1.86-1.27l52.38-3.32-95.21-172.259-170.03 3.489-92.57 283.85Zm252.36 6.17h-.02l-255.4-1.77c-.71 0-1.37-.35-1.78-.92a2.25 2.25 0 0 1-.31-1.98l94-288.216a2.222 2.222 0 0 1 2.06-1.525l172.93-3.546c.82-.046 1.59.423 1.98 1.142l97.55 176.475a2.209 2.209 0 0 1-1.79 3.28l-54.56 3.46-52.66 112.33c-.36.78-1.14 1.27-2 1.27Z"
          style="fill-rule:nonzero;stroke:#000;stroke-width:1px" transform="translate(-248.527 -226.15)"/>
    <path d="m1164.23 1044.23 63.85 138.35 76.27.88 69.17-208.398-172.93-1.774-36.36 70.942Z"
          style="fill:#fff;fill-rule:nonzero;stroke:#000;stroke-width:1px" transform="translate(-248.527 -226.15)"/>
    <path d="m1229.5 1180.38 73.26.85 67.7-203.988-168.53-1.73-35.24 68.768 62.81 136.1Zm74.85 5.3h-.03l-76.27-.89a2.21 2.21 0 0 1-1.98-1.29l-63.85-138.34c-.28-.62-.27-1.33.04-1.94l36.36-70.941a2.215 2.215 0 0 1 1.97-1.203h.02l172.93 1.773a2.21 2.21 0 0 1 2.08 2.909l-69.17 208.402c-.3.91-1.15 1.52-2.1 1.52Z"
          style="fill-rule:nonzero;stroke:#000;stroke-width:1px" transform="translate(-248.527 -226.15)"/>
    <path d="m954.052 1041.57-33.699 66.51 199.537 157.86 159.63-2.66 24.83-79.82-76.27-.88-63.85-138.35-210.178-2.66Z"
          style="fill:#fff;fill-rule:nonzero;stroke:#000;stroke-width:1px" transform="translate(-248.527 -226.15)"/>
    <path d="m923.145 1107.47 197.495 156.24 157.24-2.62 23.47-75.45-73.3-.85a2.21 2.21 0 0 1-1.98-1.29l-63.26-137.07-207.409-2.63-32.256 63.67Zm196.745 160.68c-.5 0-.98-.17-1.37-.48l-199.537-157.85a2.203 2.203 0 0 1-.601-2.73l33.698-66.52c.38-.75 1.241-1.17 2-1.21l210.18 2.66c.85.01 1.62.51 1.98 1.29l63.26 137.07 74.87.87a2.221 2.221 0 0 1 2.09 2.87l-24.83 79.81c-.29.92-1.12 1.54-2.08 1.56l-159.62 2.66h-.04Z"
          style="fill-rule:nonzero;stroke:#000;stroke-width:1px" transform="translate(-248.527 -226.15)"/>
    <path d="m1534.92 1265.05 172.97-1.09-63.89-115.97-55.87 3.55-53.21 113.51Z"
          style="fill:#fff;fill-rule:nonzero;stroke:#000;stroke-width:1px" transform="translate(-248.527 -226.15)"/>
    <path d="m1589.58 1153.66-51.17 109.16 165.75-1.05-61.42-111.48-53.16 3.37Zm-54.66 113.6c-.75 0-1.46-.38-1.86-1.01-.41-.64-.46-1.45-.14-2.14l53.21-113.51a2.2 2.2 0 0 1 1.86-1.27l55.87-3.55c.87-.03 1.66.4 2.08 1.15l63.89 115.96c.37.68.36 1.52-.03 2.19a2.22 2.22 0 0 1-1.9 1.09l-172.97 1.09h-.01Z"
          style="fill-rule:nonzero;stroke:#000;stroke-width:1px" transform="translate(-248.527 -226.15)"/>
    <path d="m920.353 1108.08-27.491 53.21 70.058 103.76 156.97.89-199.537-157.86Z"
          style="fill:#fff;fill-rule:nonzero;stroke:#000;stroke-width:1px" transform="translate(-248.527 -226.15)"/>
    <path d="m964.101 1262.85 149.379.84-192.394-152.21-25.657 49.66 68.672 101.71Zm155.789 5.3h-.01l-156.972-.89c-.73 0-1.41-.36-1.82-.97l-70.06-103.76a2.21 2.21 0 0 1-.132-2.25l27.493-53.21c.304-.59.853-1.01 1.499-1.15.652-.13 1.321.02 1.838.43l199.534 157.85c.74.59 1.03 1.58.71 2.47-.31.89-1.14 1.48-2.08 1.48Z"
          style="fill-rule:nonzero;stroke:#000;stroke-width:1px" transform="translate(-248.527 -226.15)"/>
    <path d="m892.862 1161.29-52.239 102.67 122.297 1.09-70.058-103.76Z"
          style="fill:#fff;fill-rule:nonzero;stroke:#000;stroke-width:1px" transform="translate(-248.527 -226.15)"/>
    <path d="m844.212 1261.78 114.522 1.02-65.605-97.16-48.917 96.14Zm118.709 5.48h-.019l-122.298-1.09a2.212 2.212 0 0 1-1.871-1.07 2.198 2.198 0 0 1-.082-2.14l52.239-102.67a2.187 2.187 0 0 1 1.836-1.2c.779-.02 1.531.32 1.969.97l70.06 103.76c.46.68.503 1.56.114 2.28a2.2 2.2 0 0 1-1.948 1.16Zm-17.558-295.493c-.343 0-.693-.08-1.021-.25a2.216 2.216 0 0 1-.938-2.985l145.846-279.46a2.22 2.22 0 0 1 2.99-.937c1.08.566 1.5 1.9.94 2.985L947.326 970.579a2.213 2.213 0 0 1-1.963 1.188Z"
          style="fill-rule:nonzero;stroke:#000;stroke-width:1px" transform="translate(-248.527 -226.15)"/>
    <path d="M1102.45 713.001c-.03 0-.06 0-.09-.002a2.206 2.206 0 0 1-2.12-2.295l1.57-40.49-31.63 26.888c-.93.793-2.33.678-3.12-.253a2.203 2.203 0 0 1 .26-3.116l35.47-30.151c.67-.571 1.6-.689 2.4-.305a2.218 2.218 0 0 1 1.24 2.076l-1.77 45.523a2.217 2.217 0 0 1-2.21 2.125Zm448.62 157.818c-.76 0-1.51-.397-1.92-1.105l-161.71-280.386a2.22 2.22 0 0 1 .81-3.022 2.223 2.223 0 0 1 3.03.81l161.71 280.386a2.219 2.219 0 0 1-.81 3.021c-.35.202-.73.296-1.11.296Z"
          style="fill-rule:nonzero;stroke:#000;stroke-width:1px" transform="translate(-248.527 -226.15)"/>
    <path d="M1565.04 895.122c-.44 0-.88-.131-1.26-.393l-37.46-25.933a2.221 2.221 0 0 1-.56-3.078 2.214 2.214 0 0 1 3.08-.559l33.31 23.065-5.7-41.124a2.205 2.205 0 0 1 1.88-2.495c1.2-.186 2.33.676 2.5 1.886l6.4 46.115c.12.871-.29 1.728-1.03 2.188-.36.22-.76.328-1.16.328Zm-110.56 413.708h-.01l-365.45-.84c-1.22 0-2.21-1-2.21-2.22 0-1.22.99-2.21 2.21-2.21h.01l365.45.84c1.22 0 2.21 1 2.21 2.22 0 1.22-1 2.21-2.21 2.21Z"
          style="fill-rule:nonzero;stroke:#000;stroke-width:1px" transform="translate(-248.527 -226.15)"/>
    <path d="M1104.09 1325.48c-.27 0-.56-.06-.83-.17l-43.1-17.6a2.193 2.193 0 0 1-1.38-1.98c-.02-.88.48-1.69 1.27-2.06l41.22-19.4a2.212 2.212 0 1 1 1.89 4l-36.67 17.26 38.44 15.69c1.13.46 1.67 1.75 1.21 2.88-.35.86-1.17 1.38-2.05 1.38Z"
          style="fill-rule:nonzero;stroke:#000;stroke-width:1px" transform="translate(-248.527 -226.15)"/>
    <path d="M2096.76 434.372c15.13 0 27.39 12.261 27.39 27.387v188.459c0 15.125-12.26 27.386-27.39 27.386h-519.52c-15.13 0-27.39-12.261-27.39-27.386V461.759c0-15.126 12.26-27.387 27.39-27.387h519.52Z"
          style="fill:#fff;fill-rule:nonzero;stroke:#000;stroke-width:1px" transform="translate(-248.527 -226.15)"/>
    <path d="M2096.76 679.816h-519.52c-16.32 0-29.6-13.278-29.6-29.599V461.758c0-16.321 13.28-29.599 29.6-29.599h102.48c1.23 0 148.81.99 148.81 2.213 0 1.222-147.58 2.211-148.81 2.211h-102.48c-13.89 0-25.18 11.292-25.18 25.175v188.459c0 13.883 11.29 25.176 25.18 25.176h519.52c13.88 0 25.18-11.293 25.18-25.176V461.758c0-13.883-11.3-25.175-25.18-25.175h-347.97c-1.22 0-102.57-.989-102.57-2.211 0-1.223 101.35-2.213 102.57-2.213h347.97c16.32 0 29.6 13.278 29.6 29.599v188.459c0 16.321-13.28 29.599-29.6 29.599Z"
          style="fill-rule:nonzero;stroke:#000;stroke-width:1px" transform="translate(-248.527 -226.15)"/>
    <path d="M1635.43 524.08h412.9-412.9Z" style="fill:#fff;fill-rule:nonzero;stroke:#000;stroke-width:1px"
          transform="translate(-248.527 -226.15)"/>
    <path d="M2048.33 526.291h-412.9a2.21 2.21 0 0 1-2.21-2.211 2.21 2.21 0 0 1 2.21-2.212h412.9c1.22 0 2.21.989 2.21 2.212a2.21 2.21 0 0 1-2.21 2.211Z"
          style="fill-rule:nonzero;stroke:#000;stroke-width:1px" transform="translate(-248.527 -226.15)"/>
    <path d="M1961.99 579.257h86.34-86.34Z" style="fill:#fff;fill-rule:nonzero;stroke:#000;stroke-width:1px"
          transform="translate(-248.527 -226.15)"/>
    <path d="M2048.33 581.468h-86.34a2.211 2.211 0 0 1 0-4.423h86.34a2.211 2.211 0 0 1 0 4.423Z"
          style="fill-rule:nonzero;stroke:#000;stroke-width:1px" transform="translate(-248.527 -226.15)"/>
    <path d="M1635.43 579.257h271.39-271.39Z" style="fill:#fff;fill-rule:nonzero;stroke:#000;stroke-width:1px"
          transform="translate(-248.527 -226.15)"/>
    <path d="M1906.82 581.468h-271.39a2.211 2.211 0 0 1 0-4.423h271.39a2.211 2.211 0 0 1 0 4.423Z"
          style="fill-rule:nonzero;stroke:#000;stroke-width:1px" transform="translate(-248.527 -226.15)"/>
    <path d="M971.2 486.187H659.67c-13.437 0-24.33 10.892-24.33 24.329v235.483c0 13.437 10.893 24.33 24.33 24.33H971.2c13.438 0 24.331-10.893 24.331-24.33V510.516c0-13.437-10.893-24.329-24.331-24.329Z"
          style="fill:#007CBD;fill-rule:nonzero;stroke:#000;stroke-width:1px" transform="translate(-248.527 -226.15)"/>
    <path d="M659.67 488.397c-12.195 0-22.119 9.924-22.119 22.12v235.482c0 12.196 9.924 22.117 22.119 22.117h311.532c12.195 0 22.117-9.921 22.117-22.117V510.517c0-12.196-9.922-22.12-22.117-22.12H659.67Zm311.532 284.142H659.67c-14.635 0-26.542-11.906-26.542-26.54V510.517c0-14.637 11.907-26.543 26.542-26.543h311.532c14.633 0 26.54 11.906 26.54 26.543v235.482c0 14.634-11.907 26.54-26.54 26.54Z"
          style="fill-rule:nonzero;stroke:#000;stroke-width:1px" transform="translate(-248.527 -226.15)"/>
    <path d="M430.999 345.093h213.085v18.474H430.999z"
          style="fill:#fff;stroke:#000;stroke-width:.94px;stroke-linecap:round;stroke-miterlimit:1.5"
          transform="matrix(1.01465 0 0 1.10794 -6.977 -38.076)"/>
    <path d="M430.999 345.093h213.085v18.474H430.999z"
          style="fill:#fff;stroke:#000;stroke-width:1.26px;stroke-linecap:round;stroke-miterlimit:1.5"
          transform="matrix(.16864 0 0 1.10794 594.765 -38.16)"/>
    <path d="M430.999 345.093h213.085v18.474H430.999z"
          style="fill:#fff;stroke:#000;stroke-width:1.26px;stroke-linecap:round;stroke-miterlimit:1.5"
          transform="matrix(.16864 0 0 1.10794 594.765 9.53)"/>
    <path d="M430.999 345.093h213.085v18.474H430.999z"
          style="fill:#fff;stroke:#000;stroke-width:1.26px;stroke-linecap:round;stroke-miterlimit:1.5"
          transform="matrix(.16864 0 0 1.10794 594.765 57.219)"/>
    <path d="M430.999 345.093h213.085v18.474H430.999z"
          style="fill:#fff;stroke:#000;stroke-width:.94px;stroke-linecap:round;stroke-miterlimit:1.5"
          transform="matrix(1.01465 0 0 1.10794 -6.967 9.53)"/>
    <path d="M430.999 345.093h213.085v18.474H430.999z"
          style="fill:#fff;stroke:#000;stroke-width:.94px;stroke-linecap:round;stroke-miterlimit:1.5"
          transform="matrix(1.01465 0 0 1.10794 -6.957 57.135)"/>
    <path d="M679.045 590.835h215.866v-20.221H679.045v20.221Zm218.078 4.423h-220.29a2.21 2.21 0 0 1-2.211-2.212v-24.644a2.21 2.21 0 0 1 2.211-2.211h220.29a2.21 2.21 0 0 1 2.211 2.211v24.644a2.21 2.21 0 0 1-2.211 2.212Zm-218.078 43.109h215.866v-20.221H679.045v20.221Zm218.078 4.424h-220.29a2.21 2.21 0 0 1-2.211-2.212v-24.644a2.21 2.21 0 0 1 2.211-2.212h220.29a2.21 2.21 0 0 1 2.211 2.212v24.644a2.21 2.21 0 0 1-2.211 2.212Zm-218.078 43.108h215.866v-20.22H679.045v20.22Zm218.078 4.424h-220.29a2.21 2.21 0 0 1-2.211-2.212v-24.644a2.21 2.21 0 0 1 2.211-2.212h220.29a2.21 2.21 0 0 1 2.211 2.212v24.644a2.21 2.21 0 0 1-2.211 2.212Zm19.065-99.488h35.637v-20.221h-35.637v20.221Zm37.849 4.423h-40.06a2.21 2.21 0 0 1-2.212-2.212v-24.644a2.21 2.21 0 0 1 2.212-2.211h40.06a2.21 2.21 0 0 1 2.211 2.211v24.644a2.21 2.21 0 0 1-2.211 2.212Zm-37.849 43.109h35.637v-20.221h-35.637v20.221Zm37.849 4.424h-40.06a2.21 2.21 0 0 1-2.212-2.212v-24.644a2.21 2.21 0 0 1 2.212-2.212h40.06a2.21 2.21 0 0 1 2.211 2.212v24.644a2.21 2.21 0 0 1-2.211 2.212Zm-37.849 43.108h35.637v-20.22h-35.637v20.22Zm37.849 4.424h-40.06a2.21 2.21 0 0 1-2.212-2.212v-24.644a2.21 2.21 0 0 1 2.212-2.212h40.06a2.21 2.21 0 0 1 2.211 2.212v24.644a2.21 2.21 0 0 1-2.211 2.212ZM379.408 1173.25c-.998 0-1.905-.68-2.149-1.7l-3.991-16.62a2.216 2.216 0 0 1 1.634-2.67 2.221 2.221 0 0 1 2.668 1.64l3.991 16.62a2.216 2.216 0 0 1-2.153 2.73Zm9.301 38.72a2.21 2.21 0 0 1-2.148-1.7l-3.994-16.62a2.216 2.216 0 0 1 1.635-2.67 2.218 2.218 0 0 1 2.667 1.64l3.993 16.62a2.217 2.217 0 0 1-2.153 2.73Zm-34.317-21.03c-.997 0-1.905-.68-2.149-1.69a2.216 2.216 0 0 1 1.635-2.67l16.621-3.99a2.218 2.218 0 0 1 2.667 1.64 2.206 2.206 0 0 1-1.635 2.66l-16.621 3.99c-.172.04-.348.06-.518.06Zm38.719-9.3c-.998 0-1.905-.68-2.149-1.69a2.216 2.216 0 0 1 1.635-2.67l16.623-3.99a2.221 2.221 0 0 1 2.667 1.63 2.212 2.212 0 0 1-1.635 2.67l-16.623 3.99c-.173.04-.348.06-.518.06Zm-7.218-128.21c-1.754 0-3.505.37-5.16 1.12-6.505 2.92-9.463 10.71-6.593 17.36 1.4 3.24 3.957 5.73 7.196 6.99a12.53 12.53 0 0 0 9.725-.25c6.505-2.93 9.464-10.72 6.594-17.37-1.4-3.24-3.957-5.73-7.197-6.99a12.686 12.686 0 0 0-4.565-.86Zm.011 30.75a16.95 16.95 0 0 1-6.171-1.16c-4.353-1.69-7.781-5.02-9.653-9.36-3.823-8.86.145-19.24 8.844-23.15 4.194-1.88 8.865-2 13.137-.34 4.354 1.69 7.781 5.02 9.654 9.36 3.823 8.86-.145 19.24-8.844 23.15-2.231 1-4.598 1.5-6.967 1.5Z"
          style="fill-rule:nonzero;stroke:#000;stroke-width:1px" transform="translate(-248.527 -226.15)"/>
    <path d="M2063.13 1575.01H993.064v41.79h166.846l-130.18 544.19h28.41l118.54-491.88 118.54 491.88h28.42l-130.19-544.19h869.68v-41.79Z"
          style="fill:#fff;fill-rule:nonzero;stroke:#000;stroke-width:1px" transform="translate(-.012 -474.323)"/>
    <path d="M1297.04 2158.69h23.67l-129.5-541.35a2.29 2.29 0 0 1 .43-1.97c.44-.55 1.11-.88 1.81-.88h867.37v-37.17H995.372v37.17h164.538c.71 0 1.38.33 1.82.88.43.56.59 1.28.43 1.97l-129.51 541.35h23.67l118.12-490.12a2.308 2.308 0 0 1 4.49 0l118.11 490.12Zm26.6 4.61h-28.42a2.31 2.31 0 0 1-2.24-1.76l-116.3-482.58-116.29 482.58a2.313 2.313 0 0 1-2.25 1.76h-28.41c-.71 0-1.38-.32-1.81-.88-.44-.55-.6-1.27-.44-1.96l129.51-541.35H993.064a2.305 2.305 0 0 1-2.308-2.31v-41.79c0-1.27 1.032-2.3 2.308-2.3H2063.13c1.28 0 2.31 1.03 2.31 2.3v41.79c0 1.28-1.03 2.31-2.31 2.31h-866.75l129.5 541.35c.17.69.01 1.41-.43 1.96-.44.56-1.1.88-1.81.88Z"
          style="fill-rule:nonzero;stroke:#000;stroke-width:1px" transform="translate(-.012 -474.323)"/>
    <path d="m1796.73 2161 118.54-491.95L2033.81 2161h28.42l-130.25-544.51-33.41-.05L1768.32 2161h28.41Z"
          style="fill:#fff;fill-rule:nonzero;stroke:#000;stroke-width:1px" transform="translate(-.012 -474.323)"/>
    <path d="M2035.63 2158.69h23.67l-129.14-539.89-29.77-.04-129.15 539.93h23.67l118.12-490.18a2.308 2.308 0 0 1 4.49 0l118.11 490.18Zm26.6 4.61h-28.42a2.31 2.31 0 0 1-2.24-1.76l-116.3-482.64-116.29 482.64a2.322 2.322 0 0 1-2.25 1.76h-28.41c-.71 0-1.38-.32-1.81-.88-.44-.55-.6-1.27-.44-1.96l130.26-544.55a2.3 2.3 0 0 1 2.24-1.77l33.41.04c1.07.01 2 .74 2.25 1.78l130.24 544.5c.17.69.01 1.41-.43 1.96-.44.56-1.11.88-1.81.88Z"
          style="fill-rule:nonzero;stroke:#000;stroke-width:1px" transform="translate(-.012 -474.323)"/>
    <path d="M1786.93 1610.52c-1.28 0-2.31-1.03-2.31-2.3v-25.78c0-1.28 1.03-2.31 2.31-2.31s2.31 1.03 2.31 2.31v25.78c0 1.27-1.03 2.3-2.31 2.3Zm-71.91 443.58-11.05 55.04c-.38 1.86-2.11 3.12-3.73 2.71l-32.31-8.22c-1.39-.35-2.21-1.83-1.91-3.43l9.31-49.19 39.69 3.09Z"
          style="fill:#fff;fill-rule:nonzero;stroke:#000;stroke-width:1px" transform="translate(-.012 -474.323)"/>
    <path d="m1677.21 2053.47-8.92 47.15c-.08.43.07.74.21.78l32.31 8.21c.14.03.29-.06.35-.1.27-.17.47-.47.54-.83l10.54-52.49-35.03-2.72Zm23.66 60.76c-.4 0-.8-.05-1.2-.15l-32.3-8.21c-2.6-.66-4.15-3.28-3.62-6.1l9.31-49.19c.22-1.16 1.34-1.96 2.44-1.87l39.7 3.08c.66.06 1.26.39 1.66.91.4.53.55 1.2.42 1.85l-11.05 55.05c-.32 1.58-1.27 2.98-2.61 3.82-.85.54-1.8.81-2.75.81Z"
          style="fill-rule:nonzero;stroke:#000;stroke-width:1px" transform="translate(-.012 -474.323)"/>
    <path d="m1819.17 2006.88 27.22 44.75-31.11 16.48-28-40.03 31.89-21.2Z"
          style="fill:#fff;fill-rule:nonzero;stroke:#000;stroke-width:1px" transform="translate(-.012 -474.323)"/>
    <path d="m1790.53 2028.69 25.47 36.42 27.14-14.38-24.7-40.6-27.91 18.56Zm24.75 41.73c-.73 0-1.45-.35-1.89-.99l-28-40.03a2.31 2.31 0 0 1-.37-1.75c.11-.61.47-1.15.99-1.5l31.88-21.19c.52-.35 1.17-.47 1.78-.33.61.13 1.14.51 1.47 1.05l27.22 44.75c.33.54.42 1.2.25 1.81-.17.61-.58 1.13-1.14 1.43l-31.11 16.48c-.34.18-.71.27-1.08.27Z"
          style="fill-rule:nonzero;stroke:#000;stroke-width:1px" transform="translate(-.012 -474.323)"/>
    <path d="M1715.47 2084.95c2.21 7.91 6.87 30.22 8.82 43.63 1.22 8.42-4.1 16.39-12.24 18.59-23.02 6.23-78.05 5.96-123.87 7.98-3.14.14-8.92-1.39-11.49-8.99-8.72-25.79 39.43-33.77 87.03-59.99.94-.51 2.08-.46 2.95.16.54.39 1.24.87 2.06 1.39 8.28 5.27 22.04 5.27 30.45.22l9.5-5.71c2.6-1.57 5.97-.23 6.79 2.72Z"
          style="fill:#fff;fill-rule:nonzero;stroke:#000;stroke-width:1px" transform="translate(-.012 -474.323)"/>
    <path d="M1665.08 2088.13c-.08 0-.17.02-.25.07-14.53 8-29.15 14.33-42.05 19.92-31.49 13.63-49.05 22.09-43.91 37.3 2.49 7.34 8.09 7.46 9.21 7.43 11.76-.52 24.28-.89 36.38-1.26 34.48-1.02 70.13-2.09 86.99-6.64 7.06-1.92 11.6-8.81 10.55-16.03-1.86-12.86-6.51-35.32-8.75-43.35a2.284 2.284 0 0 0-3.38-1.36l-9.5 5.71c-9.2 5.53-23.95 5.42-32.88-.25-.86-.56-1.6-1.06-2.17-1.47a.399.399 0 0 0-.24-.07Zm-77.3 69.34c-4.58 0-10.63-2.73-13.28-10.57-6.75-19.98 16.72-30.15 46.44-43.02 12.81-5.54 27.33-11.83 41.67-19.73 1.73-.95 3.8-.84 5.4.3.52.38 1.18.83 1.96 1.32 7.47 4.75 20.3 4.84 28.02.19l9.5-5.71a6.842 6.842 0 0 1 6.1-.5c2.02.8 3.52 2.47 4.1 4.58 2.3 8.23 6.94 30.56 8.88 43.92 1.39 9.54-4.6 18.63-13.92 21.15-17.38 4.7-51.71 5.73-88.05 6.81-12.09.36-24.59.73-36.32 1.25-.16.01-.33.01-.5.01Z"
          style="fill-rule:nonzero;stroke:#000;stroke-width:1px" transform="translate(-.012 -474.323)"/>
    <path d="M1725.67 2134.66c.05.23.08.4.09.47 1.22 8.42-6.77 13.59-14.41 17.18-22.68 10.65-114.28 4.55-117.82 4.31-.07-.01-.12-.01-.19-.01-1.14.02-12.77.02-16.12-7.21-.42-.9-.68-2.16-.83-3.35-.26-1.93-.13-3.9.3-5.8.35-1.55 1.88-2.52 3.4-2.13 17.01 4.35 56.88 7.19 96.37 1.42 14.57-2.12 37.83-8.65 43.95-12.31 1.66-.99 3.79-.03 4.17 1.89.32 1.6.71 3.55 1.09 5.54Z"
          style="fill:#fff;fill-rule:nonzero;stroke:#000;stroke-width:1px" transform="translate(-.012 -474.323)"/>
    <path d="M1593.32 2154.3c.08 0 .3.01.36.01 32.61 2.22 98.96 4.23 116.69-4.09 9.87-4.63 13.92-9.18 13.11-14.76l-1.16-5.89a.511.511 0 0 0-.3-.38.44.44 0 0 0-.43.02c-6.4 3.83-29.85 10.43-44.79 12.62-37.85 5.52-78.37 3.36-97.28-1.47a.416.416 0 0 0-.34.05c-.07.04-.19.14-.24.35-.39 1.73-.47 3.41-.26 4.99.2 1.58.48 2.36.63 2.68 2.78 5.98 13.52 5.9 13.99 5.87h.02Zm57.61 6.57c-28.37 0-55.47-1.81-57.56-1.95-1.43-.01-14.3-.02-18.25-8.55-.46-.99-.8-2.35-1.02-4.02-.28-2.12-.17-4.34.34-6.6.3-1.36 1.15-2.55 2.33-3.28 1.18-.72 2.56-.92 3.9-.58 14.73 3.77 53.68 7.47 95.46 1.37 14.23-2.08 37.18-8.47 43.09-12.01 1.42-.85 3.17-.95 4.68-.28a5.15 5.15 0 0 1 2.95 3.7l1.09 5.55v.01l.1.54c1.5 10.29-8.25 16.13-15.71 19.63-10.84 5.08-36.6 6.47-61.4 6.47Zm9.53-51.55c-.49 0-.98-.15-1.4-.47l-13.89-10.58a2.309 2.309 0 0 1 2.79-3.68l13.9 10.58a2.32 2.32 0 0 1 .44 3.24c-.46.59-1.15.91-1.84.91Zm-18.47 7.56c-.48 0-.96-.15-1.38-.46l-12.16-9.12a2.319 2.319 0 0 1-.46-3.23 2.314 2.314 0 0 1 3.24-.46l12.15 9.12c1.02.77 1.23 2.21.46 3.23-.45.61-1.14.92-1.85.92Z"
          style="fill-rule:nonzero;stroke:#000;stroke-width:1px" transform="translate(-.012 -474.323)"/>
    <path d="m1813.24 2058.56 35.78-5.18 21.12 44.82c3.11 6.72.64 15.43-5.65 19.41-8.19 5.19-20.43 11.94-34.49 16.46-26.51 8.52-52.98 32.97-75.77 20.95-22.8-12.02-21.29-12.91-22.43-21.14-1.14-8.23 21.45-24.44 36.74-35.1 12.48-8.71 44.7-40.22 44.7-40.22Z"
          style="fill:#fff;fill-rule:nonzero;stroke:#000;stroke-width:1px" transform="translate(-.012 -474.323)"/>
    <path d="M1814.32 2060.74c-4.41 4.3-32.71 31.73-44.46 39.93-9.1 6.35-36.78 25.66-35.78 32.89.08.6.15 1.15.22 1.68.73 5.9.88 7.13 21 17.74 14.55 7.67 31.13-.81 48.68-9.79 8.25-4.21 16.77-8.57 25.32-11.32 14.01-4.5 26.2-11.3 33.96-16.21 5.3-3.35 7.45-10.75 4.79-16.49l-20.39-43.26-33.34 4.83Zm-46.73 99.82c-4.92 0-9.75-1.02-14.44-3.5-20.75-10.93-22.42-13.05-23.44-21.26-.06-.5-.12-1.04-.2-1.61-1.15-8.32 14.24-20.93 37.71-37.3 12.18-8.51 44.09-39.67 44.41-39.98.35-.34.8-.56 1.28-.63l35.78-5.18a2.26 2.26 0 0 1 2.42 1.3l21.12 44.81c3.6 7.79.68 17.81-6.5 22.35-7.99 5.05-20.54 12.05-35.02 16.71-8.19 2.63-16.54 6.9-24.63 11.03-12.81 6.55-25.94 13.26-38.49 13.26Z"
          style="fill-rule:nonzero;stroke:#000;stroke-width:1px" transform="translate(-.012 -474.323)"/>
    <path d="M1801.5 2097.48c-.44 0-.87-.12-1.26-.38l-16.13-10.49a2.3 2.3 0 0 1-.68-3.19 2.298 2.298 0 0 1 3.19-.68l16.13 10.49c1.07.7 1.38 2.13.68 3.19-.44.69-1.18 1.06-1.93 1.06Zm-11.48 12.02c-.43 0-.87-.12-1.25-.37l-16.14-10.5a2.307 2.307 0 0 1-.68-3.19 2.3 2.3 0 0 1 3.2-.67l16.13 10.49a2.3 2.3 0 0 1 .68 3.19c-.44.68-1.18 1.05-1.94 1.05Z"
          style="fill-rule:nonzero;stroke:#000;stroke-width:1px" transform="translate(-.012 -474.323)"/>
    <path d="M1733.35 2140.04s17.94 13.07 37.69 6.25c19.74-6.83 99.1-48.62 99.1-48.62l4.1 8.98c2.08 4.55.3 9.96-4.08 12.43-19.77 11.14-72.54 39.52-100 41.39-34.21 2.33-36.81-20.43-36.81-20.43Z"
          style="fill:#fff;fill-rule:nonzero;stroke:#000;stroke-width:1px" transform="translate(-.012 -474.323)"/>
    <path d="M1737.49 2145.16c3.1 5.94 11.29 14.44 32.52 13.01 26.75-1.83 78.16-29.35 99.01-41.1 3.32-1.87 4.69-6.03 3.12-9.46l-3.09-6.76c-13.1 6.87-79.17 41.37-97.26 47.62-14.15 4.88-27.22.26-34.3-3.31Zm27.94 17.78c-31.41 0-34.34-22.4-34.37-22.64-.1-.9.34-1.79 1.13-2.25.79-.46 1.78-.41 2.52.13.17.12 17.24 12.26 35.57 5.93 19.36-6.69 97.99-48.07 98.78-48.48.56-.3 1.22-.35 1.83-.14.6.2 1.09.64 1.35 1.22l4.1 8.98c2.55 5.6.34 12.36-5.05 15.4-21.13 11.91-73.27 39.79-100.97 41.68-1.7.12-3.33.17-4.89.17Zm23.93-460.24s-123.23 50.11-168.69 105.19c-43.45 52.62 152.23 243.74 152.23 243.74.24.9 66.49-36.53 66.49-37.68l-50.75-110.69c-20.02-43.17-60.08-67.84-43.74-83.01 14.86-13.8 97.5-6.67 139.91-8.15 75.35-2.62 74.63-112.46 74.63-112.46l-170.08 3.06Z"
          style="fill-rule:nonzero;stroke:#000;stroke-width:1px" transform="translate(-.012 -474.323)"/>
    <path d="M1684.38 1839.14c-10.64 39.79-20.75 159.5-23.08 226.45-.03.92 67.81 1.57 67.95.36.68-5.89 50.83-187.18 78.84-235.12 14.88-25.46 110.85-18.16 132.26-22.41 57.16-11.35 53.42-126.75 53.42-126.75l-267.62 106.87c-22.88 3.48-35.74 28.05-41.77 50.6Z"
          style="fill-rule:nonzero;stroke:#000;stroke-width:1px" transform="translate(-.012 -474.323)"/>
    <path d="M1740.53 2020.38c-.68 0-1.35-.3-1.81-.87l-53.66-67.12c-.79-.99-.63-2.45.36-3.24 1-.8 2.46-.63 3.25.36l53.66 67.12a2.314 2.314 0 0 1-1.8 3.75Zm270.38-521.46s-2.3-92.07-56.44-109.94c-4.6-1.52-9.42-2.28-14.26-2.46l-47.77-1.8c-14.17-.11-25.92 3.31-41.08 8.86-12.68 4.65-26.8 13.29-35.04 20.78-36.33 33-36.7 143.8-68.12 141.18-10.55-.87-28.2-18.5-45.68-40.06-14-17.27-38.11-38.47-38.11-38.47l-41.99 21.2c9.98 16.93 18.97 34.46 26.33 52.7 15.36 38.12 40.57 70.12 72.15 97.44a34.263 34.263 0 0 0 37.77 4.76c20.14-10.04 50.31-26.2 69.06-41.48 6.9 23.83.75 49.82-16.24 68.19-5.1 5.51-10.62 10.57-16.44 14.7-5.72 4.07-7.07 12.1-3.14 17.95 6.33 9.41 18.97 20.24 43.11 17.71 31.7-3.34 121.99-2.98 161.85-2.64 10.58.1 19.12-8.67 18.87-19.34l-4.83-209.28Z"
          style="fill:#fff;fill-rule:nonzero;stroke:#000;stroke-width:1px" transform="translate(-.012 -474.323)"/>
    <path d="M1827.73 1609.32c.23 0 .46.04.69.11.74.23 1.31.82 1.53 1.56 7.11 24.56.68 51.53-16.76 70.4-5.53 5.97-11.18 11.03-16.8 15.02-4.66 3.31-5.82 9.94-2.57 14.77 6.02 8.95 18.03 19.1 40.95 16.7 32.03-3.37 124.05-2.97 162.12-2.64 4.47-.02 8.63-1.7 11.76-4.88 3.19-3.24 4.89-7.54 4.79-12.11l-4.84-209.27c-.03-1-2.92-90.67-54.85-107.81-4.15-1.37-8.73-2.16-13.63-2.34l-47.76-1.8c-.22 0-.44-.01-.66-.01-13.17 0-24.12 3.09-39.55 8.73-11.75 4.3-25.85 12.66-34.28 20.32-16.94 15.39-26.11 49.21-34.19 79.05-9.35 34.47-17.39 64.26-35.67 62.72-10.05-.83-25.96-14.6-47.29-40.91-11.97-14.77-31.7-32.7-36.67-37.15l-38.4 19.38c10.31 17.67 18.57 34.34 25.24 50.89 14.24 35.32 38.3 67.81 71.52 96.55a31.938 31.938 0 0 0 35.23 4.45c21.24-10.59 50.38-26.34 68.63-41.21.42-.34.94-.52 1.46-.52Zm.3 123.54c-20.6 0-31.99-10.1-38.04-19.11-4.63-6.88-2.96-16.36 3.73-21.11 5.35-3.8 10.76-8.64 16.08-14.39 15.56-16.82 21.77-40.53 16.59-62.61-18.64 14.46-46.29 29.36-66.68 39.54-13.28 6.62-29.1 4.62-40.32-5.09-33.78-29.23-58.27-62.3-72.78-98.31-6.85-17-15.41-34.13-26.18-52.4a2.28 2.28 0 0 1-.23-1.82c.18-.61.61-1.13 1.18-1.41l41.99-21.2c.84-.42 1.85-.29 2.56.33.25.22 24.42 21.52 38.38 38.75 19.93 24.58 35.58 38.51 44.08 39.22 14.45 1.1 22.39-28.2 30.83-59.34 8.25-30.45 17.61-64.96 35.54-81.26 8.97-8.14 23.36-16.68 35.8-21.23 15.81-5.79 27.67-9.19 41.9-9.01l47.84 1.8c5.32.21 10.33 1.07 14.89 2.57 55.06 18.18 57.93 108.26 58.02 112.08v.01l4.84 209.27c.14 5.84-2.03 11.33-6.11 15.46-4.02 4.08-9.35 6.29-15.09 6.25-37.99-.32-129.8-.72-161.59 2.62-2.53.27-4.94.39-7.23.39Z"
          style="fill-rule:nonzero;stroke:#000;stroke-width:1px" transform="translate(-.012 -474.323)"/>
    <path d="M1827.12 1614.43c-.69 0-1.37-.31-1.82-.89-.79-1-.61-2.45.39-3.24 5.4-4.23 21.83-19.48 30.43-32.1a2.312 2.312 0 0 1 3.21-.6c1.05.72 1.33 2.15.61 3.2-8.9 13.05-25.84 28.77-31.4 33.13-.42.34-.92.5-1.42.5Z"
          style="fill-rule:nonzero;stroke:#000;stroke-width:1px" transform="translate(-.012 -474.323)"/>
    <path d="m1659.16 1478.19-6.42-34.73s-5.24-26.5-11.66-30.03c-4.72-2.6-7.86 7.24-6.87 19.65.16 2.06-2.64 2.8-3.49.92-3.34-7.39-6.84-16.06-7.14-20.57-.58-8.83-2.33-27.08-10.5-25.32-8.16 1.77-22.75 30.03-11.66 54.17 11.08 24.14 36.74 46.51 36.74 46.51l21-10.6Z"
          style="fill:#fff;fill-rule:nonzero;stroke:#000;stroke-width:1px" transform="translate(-.012 -474.323)"/>
    <path d="M1614.17 1390.3c-.19 0-.39.03-.6.07-1.87.4-5.31 3.69-8.43 9.93-5.15 10.31-8.29 26.5-1.63 41.02 9.44 20.54 29.95 40.06 35.02 44.7l18.05-9.11-6.11-33.03c-2.09-10.54-6.73-26.35-10.5-28.43-.35-.19-.44-.14-.56-.06-1.71 1.11-3.68 7.81-2.9 17.5.16 2.06-1.11 3.85-3.1 4.36-1.97.52-3.95-.43-4.79-2.3-4.61-10.17-7.08-17.36-7.34-21.37-1.06-16.05-3.71-21.25-5.74-22.78-.45-.34-.88-.5-1.37-.5Zm23.99 100.8c-.54 0-1.08-.2-1.51-.57-1.07-.93-26.17-22.98-37.33-47.29-7.35-16-3.94-33.74 1.69-45 3.47-6.93 7.8-11.56 11.58-12.38 2.07-.45 4.05-.01 5.73 1.25 4.19 3.16 6.59 11.47 7.56 26.17.2 3.06 2.28 9.18 5.88 17.37-.27-7.63.91-16.4 5.14-19.13 1.63-1.05 3.51-1.1 5.29-.11 7 3.85 11.91 27 12.82 31.6l6.42 34.76c.19 1.01-.31 2.02-1.23 2.48l-21 10.6c-.33.17-.68.25-1.04.25Z"
          style="fill-rule:nonzero;stroke:#000;stroke-width:1px" transform="translate(-.012 -474.323)"/>
    <path d="M1875.58 1398.9c-1.33-.24-1.66-2.04-.48-2.72 3.98-2.3 9.6-6.48 9.25-11.52l.86-19.49a5.501 5.501 0 0 0-3.88-5.13l-14.01-4.25c-2.16-.66-3.62-2.69-3.57-4.97l.43-20.66-6.79-5.49a1.26 1.26 0 0 1-.21-1.75l9.82-12.96c3.18-4.87 6.1-16.34 8.9-15.68 0 0 58.05-9.15 62.72 19.69.71 4.41-.36 8.93-2.79 12.66l-4.92 7.53c-4.93 7.56-7.31 16.68-6.01 25.64.42 2.82 6.98 28.73 6.98 28.73s11.65 5.27 18.77 7.25c1.54.42 1.62 2.59.12 3.14l-13.02 3.11a96.958 96.958 0 0 1-39.67.99l-22.5-4.12Z"
          style="fill:#fff;fill-rule:nonzero;stroke:#000;stroke-width:1px" transform="translate(-.012 -474.323)"/>
    <path d="m1878.13 1397.02 20.36 3.73c12.92 2.37 25.94 2.04 38.73-.97l10.44-2.49c-7.09-2.3-16.3-6.46-16.73-6.66-.64-.29-1.11-.85-1.29-1.54-.67-2.66-6.6-26.1-7.02-28.96-1.35-9.21.91-18.88 6.36-27.23l4.91-7.54c2.19-3.35 3.06-7.27 2.45-11.02-4.25-26.27-59.52-17.87-60.08-17.78-.07.01-.15.02-.23.02-.9.96-2.39 4.51-3.39 6.91-1.17 2.81-2.39 5.71-3.71 7.73l-9.3 12.29 6 4.86c.56.45.88 1.13.86 1.84l-.43 20.66c-.03 1.24.77 2.35 1.94 2.71l14 4.26c3.22.97 5.43 3.9 5.52 7.28l-.85 19.52c.28 5.27-4.13 9.49-8.54 12.38Zm37.43 9.91c-5.97 0-11.94-.55-17.9-1.64l-22.49-4.12c-1.58-.28-2.77-1.49-3.05-3.08-.27-1.58.44-3.11 1.82-3.91 5.35-3.1 8.31-6.51 8.11-9.36 0-.09-.01-.18 0-.27l.85-19.48c-.03-1.22-.93-2.42-2.24-2.82l-14.01-4.25c-3.14-.96-5.28-3.93-5.21-7.23l.41-19.52-5.91-4.78a3.554 3.554 0 0 1-.6-4.94l9.82-12.96c1-1.54 2.13-4.25 3.22-6.86 2.34-5.6 4.23-10.08 7.52-9.77 5.45-.81 60.16-8.19 65 21.66.79 4.89-.32 9.96-3.14 14.28l-4.91 7.54c-4.84 7.41-6.85 15.95-5.66 24.05.28 1.91 4.03 17.03 6.65 27.41 2.96 1.3 11.76 5.1 17.43 6.67 1.66.46 2.82 1.93 2.89 3.66a3.95 3.95 0 0 1-2.59 3.87c-.09.03-.17.06-.26.08l-13.03 3.11a98.961 98.961 0 0 1-22.72 2.66Z"
          style="fill-rule:nonzero;stroke:#000;stroke-width:1px" transform="translate(-.012 -474.323)"/>
    <path d="M1872.05 1249.41c13.4-1.25-3.01 13.22 46.17-3.09 19.58-6.49 10.37 17.03 15.45 15.36 18.78-6.17 18.13-5.98 27.48-3.86 6.18 1.4 10.56 12.6 9.7 21.12-1.14 11.24-13 29.51-23.51 48.73-5.44 9.96-15.76 11.27-28.9-2.65-1.4-1.48 5.04-10.83 1.31-14.58-9.67-9.77-13.13 5.74-20.79 1.32-7.36-4.24-10.44-7.06-18.3-13.61-9.52-7.93-24.36 5.66-30.45-12.83-3.18-9.65 3.48-34.2 21.84-35.91Z"
          style="fill-rule:nonzero;stroke:#000;stroke-width:1px" transform="translate(-.012 -474.323)"/>
    <path d="M2002.02 2109.33h-80.39v-292.61h-42v292.61h-80.39c-25.64 0-46.42 20.78-46.42 46.42v6.94h295.62v-6.94c0-25.64-20.78-46.42-46.42-46.42Z"
          style="fill:#fff;fill-rule:nonzero;stroke:#000;stroke-width:1px" transform="translate(-.012 -474.323)"/>
    <path d="M1755.12 2160.38h291.01v-4.63c0-24.32-19.78-44.11-44.11-44.11h-80.39c-1.28 0-2.31-1.03-2.31-2.31v-290.3h-37.38v290.3c0 1.28-1.03 2.31-2.31 2.31h-80.4c-24.32 0-44.11 19.79-44.11 44.11v4.63Zm293.32 4.62h-295.63c-1.27 0-2.3-1.03-2.3-2.31v-6.94c0-26.87 21.86-48.73 48.72-48.73h78.09v-290.3c0-1.28 1.04-2.31 2.31-2.31h42c1.27 0 2.3 1.03 2.3 2.31v290.3h78.09c26.87 0 48.73 21.86 48.73 48.73v6.94c0 1.28-1.03 2.31-2.31 2.31Z"
          style="fill-rule:nonzero;stroke:#000;stroke-width:1px" transform="translate(-.012 -474.323)"/>
    <path d="M2026.01 1505.47h-21.12c-56.33 0-105.06 39.59-117.1 95.14l-24.59 113.45c-5.75 26.55-29.04 45.47-55.96 45.47h-44.41c-23.22 0-42.04 19-42.04 42.43s18.82 42.43 42.04 42.43h72.13l-.04.19h126.9c44.41 0 82.83-31.21 92.33-75.01l38.99-179.92c9.37-43.26-23.26-84.18-67.13-84.18Z"
          style="fill:#fff;fill-rule:nonzero;stroke:#000;stroke-width:1px" transform="translate(-.012 -474.323)"/>
    <path d="M1835.89 1842.28h125.93c43 0 80.88-30.78 90.07-73.2l38.99-179.92c4.35-20.08-.53-40.74-13.38-56.68-12.66-15.7-31.43-24.7-51.49-24.7h-21.12c-54.83 0-103.13 39.24-114.85 93.32l-24.58 113.45c-5.94 27.4-30.42 47.29-58.22 47.29h-44.41c-21.91 0-39.73 18-39.73 40.12 0 22.12 17.82 40.12 39.73 40.12h72.13c.32 0 .64.07.93.2Zm125.93 4.61h-126.9c-.33 0-.64-.06-.93-.19h-71.16c-24.45 0-44.34-20.07-44.34-44.74s19.89-44.74 44.34-44.74h44.41c25.64 0 48.23-18.36 53.71-43.65l24.58-113.45c12.18-56.18 62.38-96.96 119.36-96.96h21.12c21.46 0 41.54 9.63 55.08 26.42 13.74 17.04 18.95 39.11 14.3 60.56l-38.99 179.92c-9.65 44.52-49.43 76.83-94.58 76.83Zm-522.94-56.18c-13.21 60.5 39.17 226.01 50.15 266.34 1.44 5.29 6.27 8.96 11.78 8.96h48.8c6.79 0 12.27-5.49 12.21-12.22-.45-47.86-9.15-222.33 20.69-272.57 17.27-29.08 48.91-42.19 70.07-56.03 50.77-33.22 31.66-106.77 31.66-106.77l-191.79 113.84c-26.57 3.98-47.88 32.38-53.57 58.45Z"
          style="fill-rule:nonzero;stroke:#000;stroke-width:1px" transform="translate(-.012 -474.323)"/>
    <path d="M1511.62 1637.45s-167.42 1.5-220.21 64.4c-47.44 56.53 22.89 305.41 37.62 355.22 1.53 5.17 6.29 8.7 11.71 8.7h62.9c1.33 0 2.4-1.07 2.4-2.38v-263.71c0-16.61 3.26-7.7 17.32-16.71 19.71-12.62 55.47-1.9 104.74-1.54 156.46 1.16 131.26-146.14 131.26-146.14l-147.74 2.16Z"
          style="fill-rule:nonzero;stroke:#000;stroke-width:1px" transform="translate(-.012 -474.323)"/>
    <path d="m1550.05 2066.24 3.28 42.71-39.11.2-8.08-42.61 43.91-.3Z"
          style="fill:#fff;fill-rule:nonzero;stroke:#000;stroke-width:1px" transform="translate(-.012 -474.323)"/>
    <path d="m1508.92 2068.83 7.21 38 34.71-.18-2.93-38.09-38.99.27Zm5.3 42.63c-1.11 0-2.06-.79-2.26-1.88l-8.09-42.61c-.13-.67.05-1.37.49-1.89.43-.53 1.08-.84 1.76-.85l43.91-.29h.02c1.2 0 2.21.92 2.3 2.13l3.28 42.7c.05.64-.17 1.27-.6 1.74-.44.47-1.05.74-1.69.75l-39.11.2h-.01Z"
          style="fill-rule:nonzero;stroke:#000;stroke-width:1px" transform="translate(-.012 -474.323)"/>
    <path d="m1395.41 2066.24-.59 42.71-40.33.2-7.16-42.61 48.08-.3Z"
          style="fill:#fff;fill-rule:nonzero;stroke:#000;stroke-width:1px" transform="translate(-.012 -474.323)"/>
    <path d="m1350.05 2068.83 6.39 38 36.1-.18.53-38.09-43.02.27Zm4.44 42.63c-1.12 0-2.08-.82-2.27-1.93l-7.17-42.61c-.11-.66.07-1.35.51-1.86.43-.52 1.07-.82 1.75-.83l48.09-.29c.63-.05 1.22.24 1.65.68.44.44.68 1.04.67 1.65l-.6 42.71a2.314 2.314 0 0 1-2.29 2.28l-40.32.2h-.02Z"
          style="fill-rule:nonzero;stroke:#000;stroke-width:1px" transform="translate(-.012 -474.323)"/>
    <path d="M1355.07 2103.7h37.5c2.66 0 5.06 1.58 6.07 4.02 3.33 8.03 10.1 26.8 9.19 44.6-.25 4.87-4.32 8.68-9.23 8.68h-110.04c-5.06 0-8.91-4.6-7.89-9.52 1.21-5.89 5.39-13.65 17.46-20.62 19.54-11.29 44.09-22.57 51.83-26.06 1.61-.73 3.35-1.1 5.11-1.1Z"
          style="fill:#fff;fill-rule:nonzero;stroke:#000;stroke-width:1px" transform="translate(-.012 -474.323)"/>
    <path d="M1355.07 2106c-1.45 0-2.85.31-4.16.9-7.16 3.23-32.03 14.64-51.63 25.96-9.22 5.33-14.88 11.93-16.35 19.09-.34 1.63.08 3.31 1.14 4.61a5.775 5.775 0 0 0 4.49 2.13h110.04c3.7 0 6.74-2.85 6.92-6.49.9-17.53-6-36.33-9.01-43.59a4.25 4.25 0 0 0-3.94-2.61h-37.5Zm43.53 57.3h-110.04c-3.15 0-6.09-1.39-8.07-3.82-1.94-2.39-2.7-5.47-2.09-8.46 1.22-5.92 5.43-14.56 18.58-22.16 19.78-11.43 44.83-22.92 52.03-26.17 1.92-.86 3.95-1.3 6.06-1.3h37.5c3.61 0 6.83 2.14 8.2 5.45 3.13 7.56 10.31 27.13 9.36 45.6-.31 6.09-5.37 10.86-11.53 10.86Z"
          style="fill-rule:nonzero;stroke:#000;stroke-width:1px" transform="translate(-.012 -474.323)"/>
    <path d="M1515.56 2103.7h37.5c2.66 0 5.06 1.58 6.07 4.02 3.33 8.03 10.1 26.8 9.19 44.6-.25 4.87-4.32 8.68-9.23 8.68h-110.04c-5.06 0-8.91-4.6-7.89-9.52 1.21-5.89 5.39-13.65 17.46-20.62 19.54-11.29 44.09-22.57 51.83-26.06 1.61-.73 3.35-1.1 5.11-1.1Z"
          style="fill:#fff;fill-rule:nonzero;stroke:#000;stroke-width:1px" transform="translate(-.012 -474.323)"/>
    <path d="M1515.56 2106c-1.44 0-2.84.31-4.15.9-7.16 3.23-32.03 14.64-51.63 25.96-9.23 5.33-14.89 11.93-16.36 19.09-.34 1.63.08 3.31 1.14 4.61a5.775 5.775 0 0 0 4.49 2.13h110.04c3.7 0 6.74-2.85 6.92-6.49.9-17.54-6-36.33-9.01-43.59a4.25 4.25 0 0 0-3.94-2.61h-37.5Zm43.53 57.3h-110.04c-3.15 0-6.09-1.39-8.07-3.82-1.94-2.39-2.7-5.47-2.09-8.46 1.22-5.92 5.44-14.56 18.58-22.16 19.78-11.43 44.83-22.92 52.04-26.17 1.91-.86 3.95-1.3 6.05-1.3h37.5c3.61 0 6.83 2.14 8.2 5.45 3.13 7.55 10.31 27.12 9.37 45.6-.32 6.09-5.38 10.86-11.54 10.86Z"
          style="fill-rule:nonzero;stroke:#000;stroke-width:1px" transform="translate(-.012 -474.323)"/>
    <path d="m1357.09 1555.29-19.84-7.41c-8.42-3.14-17.63-3.03-25.95.37-10.38 4.25-24.46 11.14-34.11 20.27-2.42 2.3-.93 6.49 2.33 6.49h76.65l.92-19.72Z"
          style="fill:#fff;fill-rule:nonzero;stroke:#000;stroke-width:1px" transform="translate(-.012 -474.323)"/>
    <path d="M1324.72 1547.92c-4.27 0-8.52.82-12.54 2.47-10.03 4.11-23.96 10.88-33.4 19.81-.56.53-.55 1.23-.36 1.71.12.3.42.8 1.1.8h74.44l.74-15.84-18.26-6.83a33.7 33.7 0 0 0-11.72-2.12Zm31.45 29.4h-76.65c-2.41 0-4.48-1.42-5.39-3.7-.94-2.37-.36-5.03 1.48-6.77 9.95-9.43 24.43-16.48 34.82-20.73 8.82-3.62 18.63-3.75 27.62-.4l19.85 7.41c.94.35 1.54 1.27 1.49 2.27l-.92 19.72a2.307 2.307 0 0 1-2.3 2.2Z"
          style="fill-rule:nonzero;stroke:#000;stroke-width:1px" transform="translate(-.012 -474.323)"/>
    <path d="M1694.85 1467.01s2.14-76.92-50.92-86.21c.03-.07.06-.15.08-.22l-56.2-3.18s-36.12-5-69.39 23.64c-30.01 25.83-36.61 92.08-55.8 108.94-16.64 14.61-88.27 33.62-107.04 38.42a5.95 5.95 0 0 0-4.49 5.8l.06 18.16h113.58c15.85 0 31-6.4 42.01-17.73 6.63-6.82 14.79-15.21 23.8-24.65-.1 5.84.54 15.51 4.66 26.28 8.29 21.72 4.33 46.33-11.57 63.37-6.67 7.16-14.21 13.58-22.19 17.43 0 0 5.08 24.01 42.08 25.65 15.04.67 54.77 2.11 84.32.43 40.35-2.29 70.14-9.72 70.14-9.72l-3.13-186.41Z"
          style="fill:#fff;fill-rule:nonzero;stroke:#000;stroke-width:1px" transform="translate(-.012 -474.323)"/>
    <path d="M1504.21 1638.24c1.9 5.23 10.02 20.86 39.41 22.17 12.05.53 53.71 2.14 84.09.43 34.13-1.94 60.94-7.65 67.93-9.24l-3.1-184.55v-.1c.02-.76 1.46-75.04-49.01-83.87-.25-.05-.5-.14-.72-.26l-55.13-3.12c-.53-.06-35.72-4.48-67.75 23.09-16.25 13.98-25.63 40.68-33.9 64.25-6.93 19.75-12.93 36.8-21.89 44.67-16.84 14.8-86.91 33.53-107.98 38.92a3.658 3.658 0 0 0-2.76 3.56l.05 15.86h111.28c15.13 0 29.84-6.2 40.35-17.02l1.55-1.59c6.33-6.52 13.93-14.34 22.24-23.06a2.312 2.312 0 0 1 3.98 1.64c-.11 5.93.58 15.15 4.5 25.41 8.84 23.14 4.23 48.35-12.03 65.78-7.14 7.66-14.23 13.38-21.11 17.03Zm91.18 27.99c-22.45 0-43.87-.85-51.97-1.21-38.34-1.7-44.01-26.43-44.24-27.48-.21-1.04.3-2.1 1.26-2.56 6.91-3.33 14.14-9.03 21.5-16.92 15.05-16.14 19.31-39.5 11.1-60.98a73.104 73.104 0 0 1-4.67-21.49c-6.83 7.12-13.08 13.56-18.43 19.06l-1.55 1.59c-11.37 11.71-27.29 18.43-43.66 18.43h-113.58c-1.27 0-2.3-1.03-2.31-2.3l-.06-18.16a8.273 8.273 0 0 1 6.23-8.05c42.91-10.97 93.31-26.7 106.09-37.92 8.05-7.07 14.13-24.39 20.57-42.73 8.47-24.11 18.07-51.44 35.24-66.22 33.68-28.99 69.7-24.39 71.22-24.17l56.01 3.15c.46.03.89.19 1.25.45 52.69 10.22 51.82 85.76 51.77 88.29l3.12 186.37c.02 1.07-.7 2.02-1.74 2.28-.3.07-30.46 7.51-70.57 9.78-10.12.58-21.48.79-32.58.79Z"
          style="fill-rule:nonzero;stroke:#000;stroke-width:1px" transform="translate(-.012 -474.323)"/>
    <path d="M1528.1 1538.81c-.57 0-1.13-.2-1.57-.62-.94-.86-.99-2.32-.12-3.26 14.7-15.82 26.09-34.05 33.85-54.2.46-1.19 1.8-1.79 2.98-1.32 1.19.45 1.79 1.79 1.33 2.98-7.98 20.7-19.68 39.43-34.78 55.68-.46.49-1.08.74-1.69.74Z"
          style="fill-rule:nonzero;stroke:#000;stroke-width:1px" transform="translate(-.012 -474.323)"/>
    <path d="M1554.31 1280.04s-2.1 18.79-11.53 29.23c-.72.8-.88 1.95-.33 2.88l3.89 6.49c.33.56.61 1.15.82 1.78l6.45 18.95a4.621 4.621 0 0 0 3.98 3.12c4.03.33 14.26-1.23 15.09 1.46.93 3 .21 27.34-.15 37.93a5.68 5.68 0 0 0 4.65 5.79l21.82 4.02c9.83 1.82 19.94.61 29.01-3.39a5.72 5.72 0 0 0 2.89-7.66c-4.99-10.66-15.91-36.1-14.46-51.67l9.69-27.12c-.24-13.01-11.09-23.33-24.19-23l-47.63 1.19Z"
          style="fill:#fff;fill-rule:nonzero;stroke:#000;stroke-width:1px" transform="translate(-.012 -474.323)"/>
    <path d="M1566.67 1340.02c4.16 0 7.38.55 8.21 3.24.76 2.46.75 15.48-.04 38.7a3.354 3.354 0 0 0 2.76 3.44l21.82 4.02c9.37 1.73 18.93.61 27.65-3.23.86-.38 1.51-1.07 1.84-1.94.33-.86.29-1.8-.1-2.63-4.91-10.5-16.17-36.66-14.67-52.86.01-.19.06-.38.12-.57l9.55-26.71c-.2-5.48-2.5-10.59-6.49-14.4a21.214 21.214 0 0 0-15.32-5.92l-45.68 1.14c-.83 5.26-3.77 19.59-11.82 28.52l3.82 6.63c.41.69.76 1.44 1.03 2.22l6.44 18.96c.3.87 1.08 1.48 1.99 1.56 1.06.09 2.77.02 4.57-.05 1.51-.06 2.96-.12 4.32-.12Zm41.37 54.81c-3.15 0-6.31-.29-9.46-.87l-21.82-4.02c-3.92-.73-6.67-4.15-6.53-8.13.8-23.54.68-34.34.32-36.81-1.38-.51-5.65-.34-8.01-.25-1.95.08-3.79.15-5.14.04a6.926 6.926 0 0 1-5.98-4.68l-6.44-18.95c-.16-.47-.37-.92-.62-1.34l-3.89-6.49c-1.06-1.77-.82-4.03.6-5.6 8.82-9.78 10.93-27.77 10.95-27.95a2.303 2.303 0 0 1 2.23-2.05l47.64-1.19c7.08-.15 13.6 2.39 18.63 7.2 4.98 4.77 7.79 11.19 7.92 18.06.01.28-.04.56-.13.82l-9.6 26.85c-1.24 15.1 9.56 40.1 14.28 50.19a7.93 7.93 0 0 1 .24 6.21c-.76 2.05-2.29 3.66-4.29 4.55-6.65 2.92-13.74 4.41-20.9 4.41Z"
          style="fill-rule:nonzero;stroke:#000;stroke-width:1px" transform="translate(-.012 -474.323)"/>
    <path d="M1549.9 1273.39c-1.93 2.96-.77 6.94 2.46 8.42l1.95.9 37.42 18.43c.95.47 2.09.41 2.95-.21 1.55-1.12 4.33-2.5 7.12-.72 3.89 2.48 4.68 15.73-5.32 19.25-1.31.46-2.04 1.85-1.51 3.14.58 1.38 1.43 3.23 2.61 5.25 8.81 15.16 30.62 16.06 41.13 2 7.74-10.36 14.83-27.4 6.1-50.7-13.69-36.54-69.61-44.4-94.91-5.76Z"
          style="fill-rule:nonzero;stroke:#000;stroke-width:1px" transform="translate(-.012 -474.323)"/>
    <path d="M1641.03 1264.91s16.33-19.37 40.22-11.86c23.89 7.51 25.11 47.95 27.88 73.15 9.75 88.78 31.43 121.09 38.43 129.11 7.76 8.9-53.3 2.86-73.88-4.15-59.3-20.21-28.07-77.31-25.29-87.59 2.79-10.28 24.89-67.81-2.58-74.54l-13.94-11.86 9.16-12.26Z"
          style="fill-rule:nonzero;stroke:#000;stroke-width:1px" transform="translate(-.012 -474.323)"/>
    <path d="m1648.54 1292.63-.29.1c-2.61.95-5.49-.37-6.45-2.96l-7.28-19.68c-.96-2.58.38-5.45 2.98-6.4l.29-.1c2.6-.95 5.49.37 6.45 2.96l7.28 19.68c.96 2.58-.38 5.45-2.98 6.4Z"
          style="fill:#fff;fill-rule:nonzero;stroke:#000;stroke-width:1px" transform="translate(-.012 -474.323)"/>
    <path d="M1639.52 1265.59c-.31 0-.63.05-.94.16l-.3.11c-.67.25-1.22.75-1.52 1.4-.3.65-.32 1.37-.08 2.03l7.28 19.68c.52 1.4 2.08 2.11 3.49 1.6l.3-.11c.68-.25 1.22-.75 1.52-1.4.3-.64.33-1.37.09-2.03l-7.29-19.68a2.705 2.705 0 0 0-2.55-1.76Zm7 29.76c-2.98 0-5.79-1.83-6.88-4.77l-7.29-19.69c-.67-1.82-.59-3.8.22-5.56a7.297 7.297 0 0 1 4.13-3.81l.31-.1c3.77-1.39 8 .56 9.39 4.32l7.28 19.69c.68 1.82.6 3.8-.22 5.57a7.263 7.263 0 0 1-4.13 3.79l-.29.11c-.83.3-1.68.45-2.52.45Z"
          style="fill-rule:nonzero;stroke:#000;stroke-width:1px" transform="translate(-.012 -474.323)"/>
    <path d="M1662.65 2109.33h-80.39v-292.61h-42v292.61h-80.39c-25.64 0-46.42 20.78-46.42 46.42v6.94h295.62v-6.94c0-25.64-20.78-46.42-46.42-46.42Z"
          style="fill:#fff;fill-rule:nonzero;stroke:#000;stroke-width:1px" transform="translate(-.012 -474.323)"/>
    <path d="M1415.75 2160.38h291.01v-4.63c0-24.32-19.78-44.11-44.11-44.11h-80.4c-1.27 0-2.3-1.03-2.3-2.31v-290.3h-37.38v290.3c0 1.28-1.03 2.31-2.31 2.31h-80.4c-24.32 0-44.11 19.79-44.11 44.11v4.63Zm293.32 4.62h-295.63c-1.27 0-2.3-1.03-2.3-2.31v-6.94c0-26.87 21.86-48.73 48.72-48.73h78.09v-290.3c0-1.28 1.04-2.31 2.31-2.31h41.99c1.28 0 2.31 1.03 2.31 2.31v290.3h78.09c26.87 0 48.73 21.86 48.73 48.73v6.94c0 1.28-1.03 2.31-2.31 2.31Z"
          style="fill-rule:nonzero;stroke:#000;stroke-width:1px" transform="translate(-.012 -474.323)"/>
    <path d="M1686.64 1505.47h-21.12c-56.33 0-105.06 39.59-117.1 95.14l-24.59 113.45c-5.75 26.55-29.04 45.47-55.96 45.47h-44.41c-23.22 0-42.04 19-42.04 42.43s18.82 42.43 42.04 42.43h72.13l-.05.19h126.91c44.41 0 82.83-31.21 92.32-75.01l39-179.92c9.37-43.26-23.26-84.18-67.13-84.18Z"
          style="fill:#fff;fill-rule:nonzero;stroke:#000;stroke-width:1px" transform="translate(-.012 -474.323)"/>
    <path d="M1496.52 1842.28h125.93c43 0 80.88-30.78 90.07-73.2l38.99-179.92c4.35-20.08-.53-40.74-13.38-56.68-12.66-15.7-31.43-24.7-51.49-24.7h-21.12c-54.83 0-103.13 39.24-114.85 93.32l-24.58 113.45c-5.94 27.4-30.43 47.29-58.22 47.29h-44.41c-21.91 0-39.73 18-39.73 40.12 0 22.12 17.82 40.12 39.73 40.12h72.13c.32 0 .64.07.93.2Zm125.93 4.61h-126.9c-.33 0-.64-.06-.93-.19h-71.16c-24.45 0-44.34-20.07-44.34-44.74s19.89-44.74 44.34-44.74h44.41c25.64 0 48.22-18.36 53.71-43.65l24.58-113.45c12.18-56.18 62.38-96.96 119.36-96.96h21.12c21.46 0 41.54 9.63 55.08 26.42 13.74 17.04 18.95 39.11 14.3 60.56l-38.99 179.92c-9.65 44.52-49.43 76.83-94.58 76.83Z"
          style="fill-rule:nonzero;stroke:#000;stroke-width:1px" transform="translate(-.012 -474.323)"/>
    <path d="M1421.36 2074.79c-11.6-20.75-10.16-30.47-6.85-35.52 5.89-8.98 19.08-5.19 24.92-14.95 6.01-10.03-4.88-19.15-.83-32.01 4.79-15.21 28.56-29.56 43.81-20.94 13.05 7.37 16.49 29.62 8.73 41.12-8.62 12.75-27.59 7.18-32.94 19.07-4.91 10.93 8.61 21.29 4.28 31.39-2.49 5.79-11.15 12.21-41.12 11.84Z"
          style="fill:#fff;fill-rule:nonzero;stroke:#000;stroke-width:1.26px"
          transform="translate(-538.577 2.173) scale(.79422)"/>
    <path d="M1422.67 2072.59c21.7.2 34.77-3.5 37.78-10.51 1.73-4.05-.17-8.51-2.19-13.24-2.34-5.48-4.99-11.69-2.07-18.19 3.1-6.91 10.01-8.7 16.69-10.44 6.19-1.61 12.58-3.27 16.42-8.96 3.64-5.39 4.71-13.76 2.81-21.86-1.73-7.34-5.66-13.2-10.78-16.1-5.39-3.04-12.52-3.08-20.06-.1-9.64 3.8-18.09 11.94-20.56 19.79-1.76 5.57-.35 10.49 1.01 15.25 1.58 5.52 3.21 11.21-.39 17.23-3.45 5.75-9.1 7.4-14.09 8.86-4.54 1.33-8.46 2.47-10.88 6.17-4.07 6.2-1.95 17 6.31 32.1Zm1.19 4.42c-.83 0-1.67 0-2.53-.01-.79-.01-1.51-.44-1.9-1.13-9.78-17.49-11.99-29.85-6.77-37.81 3.32-5.06 8.41-6.55 13.34-7.99 4.62-1.35 8.98-2.62 11.53-6.88 2.62-4.37 1.43-8.51-.06-13.74-1.47-5.14-3.14-10.96-.98-17.8 2.89-9.18 12.19-18.25 23.15-22.58 8.81-3.48 17.29-3.34 23.86.37 6.2 3.5 10.9 10.4 12.91 18.94 2.18 9.26.86 18.97-3.44 25.34-4.78 7.08-12.32 9.04-18.98 10.77-6.19 1.61-11.53 3-13.77 7.97-2.12 4.73-.07 9.55 2.11 14.65 2.29 5.37 4.66 10.92 2.18 16.71-3.8 8.87-17.11 13.19-40.65 13.19Z"
          style="fill-rule:nonzero;stroke:#000;stroke-width:1.26px"
          transform="translate(-538.577 2.173) scale(.79422)"/>
    <path d="M1419.18 2085.46c-.24 0-.49-.04-.73-.12a2.216 2.216 0 0 1-1.36-2.82c21.37-61.72 49.41-81.73 50.59-82.56 1-.7 2.38-.44 3.07.56.7 1 .45 2.37-.54 3.07-.28.2-28.1 20.19-48.94 80.38a2.23 2.23 0 0 1-2.09 1.49Z"
          style="fill-rule:nonzero;stroke:#000;stroke-width:1.26px"
          transform="translate(-538.577 2.173) scale(.79422)"/>
    <path d="M1403.36 2067.63c-.12-19.38 5.43-31.17 10.52-38.37 9.29-13.12 19.58-14.47 23.12-27.14 3.35-11.98-4.48-15.6-1.86-29.09 3.13-16.06 15.45-17.16 18.63-30.38 3.86-16.1-12.04-24.24-20.03-46.83-10.33-29.23 6.8-42.45 2.88-69.75-6.35-44.3-62.33-85.13-86.27-74-22.57 10.5-24.21 70.7-5.97 114.44 19.45 46.62 49.57 45.95 53.95 84.92 3.02 26.93-9.63 42.72-3.12 84.11 2.2 14.01 5.69 25.15 8.15 32.09Z"
          style="fill:#fff;fill-rule:nonzero;stroke:#000;stroke-width:1.26px"
          transform="translate(-538.577 2.173) scale(.79422)"/>
    <path d="M1359.58 1752.44c-3.13 0-5.93.54-8.29 1.64-20.53 9.54-23.07 67.93-4.87 111.58 8.97 21.51 20.27 32.78 30.24 42.71 11.51 11.48 21.46 21.39 23.86 42.82 1.33 11.83-.29 21.6-2.01 31.95-2.24 13.47-4.78 28.74-1.11 52.05a175.07 175.07 0 0 0 4.46 20.4c1.38-10.71 4.8-19.96 10.21-27.61 4.13-5.82 8.43-9.41 12.22-12.57 4.88-4.07 8.74-7.28 10.58-13.89 1.53-5.44.5-8.88-.68-12.88-1.23-4.14-2.62-8.83-1.22-16.03 1.79-9.2 6.49-13.94 10.63-18.14 3.58-3.62 6.68-6.75 8.02-12.34 2.04-8.5-2.05-14.53-7.71-22.89-4.15-6.13-8.86-13.08-12.25-22.68-6.02-17.05-3-29.07-.08-40.7 2.22-8.82 4.51-17.94 2.85-29.47-4.16-29.07-29.39-54.95-51.06-66.69-8.83-4.78-17.08-7.26-23.79-7.26Zm43.78 317.4c-.92 0-1.76-.58-2.08-1.47a182.114 182.114 0 0 1-8.26-32.49c-3.77-24.02-1.17-39.67 1.13-53.46 1.66-10.04 3.24-19.52 1.98-30.74-2.24-19.88-11.22-28.84-22.59-40.17-10.26-10.23-21.89-21.83-31.2-44.15-17.56-42.09-17.74-105.75 7.08-117.29 8.84-4.11 21.64-2.07 36.06 5.74 22.61 12.26 48.95 39.37 53.33 69.95 1.78 12.4-.62 21.94-2.94 31.17-2.89 11.51-5.62 22.37-.04 38.15 3.2 9.07 7.74 15.77 11.75 21.68 5.81 8.59 10.83 16.01 8.34 26.4-1.63 6.8-5.47 10.67-9.18 14.42-4.06 4.11-7.89 7.99-9.43 15.87-1.19 6.15-.07 9.93 1.12 13.94 1.26 4.26 2.57 8.66.7 15.32-2.21 7.94-6.97 11.9-12 16.1-3.76 3.13-7.65 6.37-11.45 11.73-6.8 9.61-10.2 22.08-10.11 37.07.01 1.08-.76 2.01-1.83 2.2-.12.02-.25.03-.38.03Z"
          style="fill-rule:nonzero;stroke:#000;stroke-width:1.26px"
          transform="translate(-538.577 2.173) scale(.79422)"/>
    <path d="M1409.29 2086.34c-.84 0-1.64-.48-2.01-1.29-11.73-25.6-6.99-53.54-.99-88.9 3.14-18.51 6.69-39.47 8.07-62.54 3.82-64.15-49.83-141.86-50.38-142.64-.69-1-.45-2.38.55-3.08 1-.69 2.38-.45 3.08.55.55.79 55.08 79.77 51.16 145.43-1.38 23.31-4.96 44.4-8.12 63.02-5.87 34.61-10.51 61.95.65 86.32a2.21 2.21 0 0 1-2.01 3.13Z"
          style="fill-rule:nonzero;stroke:#000;stroke-width:1.26px"
          transform="translate(-538.577 2.173) scale(.79422)"/>
    <path d="M1389.08 2072.35c-2.61-12.33-5.35-30.49-4.43-52.39 1.48-35.7 11.4-50.9 1.44-64.24-10.99-14.71-29.47-4.86-42.56-22.35-8.93-11.93-4.45-22.02-16.71-33.24-2.34-2.14-9.94-8.92-20.67-9.75-9.96-.77-13.48 4.28-26.17 8.71-23.02 8.03-33.28-.96-41.74 7.49-7.49 7.47-8.98 24.03-1.84 33.17 13.46 17.2 49.05-2.83 62.41 13.48 11.4 13.94-8.26 36.25 4.22 51.78 11.25 13.99 33.76 4.04 42.99 18.69 7.05 11.2-2.82 22.23 3.72 33.9 6.81 12.18 25.59 14.51 39.34 14.75Z"
          style="fill:#fff;fill-rule:nonzero;stroke:#000;stroke-width:1.26px"
          transform="translate(-538.577 2.173) scale(.79422)"/>
    <path d="M1278.85 1944.1c8.58 0 16.5 1.42 21.66 7.73 6.25 7.63 4.24 17.22 2.31 26.49-1.95 9.35-3.8 18.17 1.94 25.31 4.97 6.18 12.45 7.17 20.38 8.23 8.6 1.14 17.5 2.33 22.75 10.66 4.01 6.36 3.16 12.52 2.34 18.48-.73 5.35-1.43 10.41 1.43 15.52 4.64 8.28 16.31 12.83 34.69 13.54-3.29-16.63-4.61-33.5-3.91-50.19.56-13.6 2.35-24.31 3.78-32.92 2.33-13.94 3.73-22.35-1.91-29.91-4.74-6.36-10.96-7.62-18.16-9.08-8-1.63-17.06-3.47-24.39-13.27-4.18-5.58-5.58-10.71-6.93-15.67-1.6-5.86-3.11-11.4-9.51-17.26-6.07-5.57-12.58-8.65-19.34-9.18-5.72-.44-9.01 1.21-14.01 3.7-3.04 1.52-6.49 3.24-11.27 4.9-11.89 4.15-20.7 3.9-27.12 3.71-6.37-.17-10.22-.3-13.78 3.25-7.04 7.03-7.87 22.29-1.65 30.24 6.09 7.79 17.61 7.02 29.81 6.21 3.65-.25 7.33-.49 10.89-.49Zm110.23 130.46h-.04c-21.67-.38-35.55-5.72-41.23-15.88-3.59-6.4-2.73-12.71-1.96-18.28.74-5.41 1.44-10.53-1.7-15.52-4.15-6.58-11.65-7.58-19.6-8.64-8.44-1.12-17.16-2.28-23.24-9.85-7.04-8.76-4.8-19.5-2.82-28.97 1.8-8.64 3.5-16.8-1.4-22.79-5.87-7.17-17.02-6.42-28.83-5.63-12.81.86-26.06 1.74-33.6-7.89-7.55-9.66-6.55-27.54 2.02-36.1 4.9-4.89 10.25-4.73 17.03-4.54 6.43.2 14.41.42 25.54-3.46 4.51-1.58 7.82-3.23 10.74-4.69 5.26-2.62 9.41-4.68 16.33-4.15 5.34.42 13.49 2.54 21.99 10.33 7.34 6.72 9.09 13.14 10.79 19.36 1.3 4.77 2.53 9.27 6.2 14.18 6.32 8.45 13.81 9.97 21.73 11.58 7.41 1.51 15.07 3.07 20.83 10.78 6.77 9.07 5.16 18.7 2.73 33.28-1.42 8.49-3.18 19.05-3.74 32.37-.71 17.24.77 34.68 4.39 51.84.14.66-.03 1.35-.45 1.87-.43.51-1.05.8-1.71.8Z"
          style="fill-rule:nonzero;stroke:#000;stroke-width:1.26px"
          transform="translate(-538.577 2.173) scale(.79422)"/>
    <path d="M1397.64 2085.81c-.48 0-.95-.15-1.35-.46-11.91-9.21-15.97-24.33-22.13-47.23-4.62-17.16-10.36-38.51-21.45-64.64-24.72-58.23-92.14-51.54-92.82-51.46-1.24.12-2.31-.74-2.44-1.96a2.21 2.21 0 0 1 1.95-2.44c.72-.08 71.39-7.08 97.38 54.13 11.21 26.42 17 47.93 21.65 65.22 5.92 22.03 9.84 36.59 20.56 44.88.97.75 1.15 2.14.4 3.1-.44.57-1.09.86-1.75.86Z"
          style="fill-rule:nonzero;stroke:#000;stroke-width:1.26px"
          transform="translate(-538.577 2.173) scale(.79422)"/>
    <path d="m1428.88 2105.28-43.84.33-5.01-13.49c-1.76-4.73 4.07-9.43 14.08-11.12 13.48-2.26 26.58-1.8 39.3 1.28 5.97 1.44 9.42 4.36 9 7.39l-1.42 5.7c-1.45 5.81-6.41 9.87-12.11 9.91Z"
          style="fill-rule:nonzero;stroke:#000;stroke-width:1.26px"
          transform="translate(-538.577 2.173) scale(.79422)"/>
    <path d="M1028.19 1932.55c21.42-39.14 18.76-57.48 12.65-66.99-10.88-16.95-35.21-9.81-45.987-28.21-11.089-18.93 9.007-36.13 1.534-60.39-8.841-28.7-52.704-55.77-80.861-39.51-24.079 13.9-30.415 55.88-16.096 77.57 15.894 24.06 50.913 13.55 60.777 35.98 9.073 20.63-15.88 40.17-7.892 59.22 4.585 10.93 20.578 23.04 75.875 22.33Z"
          style="fill:#fff;fill-rule:nonzero;stroke:#000;stroke-width:1.26px"
          transform="translate(-609.062 154.826) scale(.79422)"/>
    <path d="M934.779 1734.76c-6.678 0-12.842 1.54-18.148 4.6-9.82 5.67-17.375 17.08-20.729 31.29-3.753 15.91-1.695 32.45 5.373 43.15 7.488 11.34 19.639 14.57 31.389 17.69 12.451 3.31 24.21 6.44 29.566 18.62 5.037 11.45.523 22.26-3.842 32.71-3.891 9.32-7.565 18.12-4.034 26.54 6.006 14.32 30.341 21.3 72.516 20.99 16.06-29.7 20.14-51.09 12.11-63.6-4.86-7.57-12.76-9.93-21.13-12.43-9.31-2.78-18.938-5.66-24.907-15.85-6.209-10.61-3.449-20.47-.525-30.92 2.592-9.27 5.272-18.85 1.855-29.94-4.792-15.56-21.089-31.51-39.627-38.79-6.888-2.71-13.604-4.06-19.867-4.06Zm93.411 197.79h.02-.02Zm-4.67 2.24c-42.582 0-66.557-7.77-73.244-23.72-4.25-10.13-.041-20.21 4.031-29.95 4.189-10.04 8.148-19.52 3.876-29.23-4.503-10.23-14.768-12.96-26.655-16.12-11.966-3.19-25.529-6.79-33.941-19.53-7.719-11.69-10.015-29.55-5.989-46.61 3.631-15.39 11.949-27.82 22.821-34.1 11.473-6.62 26.331-6.92 41.844-.83 20.018 7.86 36.993 24.58 42.239 41.61 3.798 12.33.81 23.01-1.825 32.43-2.78 9.93-5.179 18.51.084 27.49 5.089 8.69 13.479 11.2 22.359 13.85 8.77 2.63 17.84 5.34 23.58 14.28 9.07 14.13 4.84 37.43-12.57 69.25-.38.7-1.11 1.14-1.91 1.15-1.59.02-3.16.03-4.7.03Z"
          style="fill-rule:nonzero;stroke:#000;stroke-width:1.26px"
          transform="translate(-609.062 154.826) scale(.79422)"/>
    <path d="M1032.22 1950.72c-.92 0-1.78-.58-2.1-1.5-38.762-114.49-90.495-152.23-91.014-152.6a2.207 2.207 0 0 1-.522-3.08 2.214 2.214 0 0 1 3.084-.52c2.162 1.53 53.422 38.94 92.642 154.78a2.22 2.22 0 0 1-1.38 2.81c-.24.08-.48.11-.71.11Z"
          style="fill-rule:nonzero;stroke:#000;stroke-width:1.26px"
          transform="translate(-609.062 154.826) scale(.79422)"/>
    <path d="M1057.33 1926.93c.17-26.76-7.49-43.06-14.53-52.99-12.83-18.13-27.05-19.99-31.94-37.5-4.63-16.54 6.19-21.55 2.57-40.18-4.32-22.18-21.345-23.71-25.732-41.98-5.339-22.23 16.632-33.47 27.662-64.68 14.27-40.38-9.39-58.65-3.98-96.35 8.78-61.2 86.11-117.61 119.18-102.23 31.18 14.5 33.45 97.66 8.25 158.08-26.86 64.41-23.87 75.9-29.92 129.73-4.18 37.2-14.14 46.91-23.13 104.08-3.04 19.36-25.02 34.44-28.43 44.02Z"
          style="fill:#fff;fill-rule:nonzero;stroke:#000;stroke-width:1.26px"
          transform="translate(-609.062 154.826) scale(.79422)"/>
    <path d="M1117.82 1490.68c-9.42 0-20.95 3.46-33.27 10.14-30.12 16.31-65.17 52.3-70.98 92.74-2.31 16.1.88 28.78 3.96 41.03 4.01 15.95 8.15 32.44-.09 55.74-4.65 13.17-11.12 22.72-16.82 31.15-7.941 11.72-13.677 20.19-10.772 32.29 1.911 7.95 6.473 12.56 11.302 17.45 5.64 5.7 12.03 12.17 14.45 24.61 1.9 9.76.01 16.13-1.66 21.76-1.67 5.64-3.12 10.51-.96 18.25 2.63 9.38 8.04 13.9 14.9 19.61 5.19 4.33 11.09 9.25 16.73 17.21 8.87 12.52 13.82 28.22 14.77 46.74 1.72-2.18 3.79-4.51 6.01-6.99 7.3-8.2 16.39-18.39 18.19-29.84 4.67-29.73 9.55-46.5 13.86-61.3 3.89-13.38 7.26-24.93 9.25-42.69 1.01-8.93 1.77-16.79 2.44-23.73 3.4-35.01 5.11-52.58 27.64-106.6 25.29-60.64 21.55-141.89-7.15-155.23-3.36-1.56-7.35-2.34-11.8-2.34Zm-60.49 438.46c-.12 0-.25-.01-.38-.03a2.212 2.212 0 0 1-1.83-2.19c.13-20.89-4.62-38.29-14.12-51.71-5.31-7.49-10.96-12.2-15.96-16.37-7.15-5.95-13.32-11.1-16.31-21.81-2.51-8.97-.74-14.93.97-20.7 1.6-5.39 3.25-10.96 1.56-19.65-2.17-11.14-7.55-16.58-13.257-22.35-5.043-5.1-10.256-10.38-12.457-19.53-3.358-14 3.484-24.1 11.408-35.8 5.556-8.21 11.856-17.51 16.326-30.14 7.79-22.04 3.99-37.17-.04-53.19-3.19-12.67-6.48-25.78-4.05-42.74 6.02-41.95 42.19-79.17 73.25-96 19.67-10.67 37.09-13.47 49.05-7.92 33.9 15.76 33.48 103.13 9.36 160.94-22.27 53.4-23.85 69.68-27.32 105.33-.67 6.95-1.44 14.83-2.44 23.8-2.04 18.13-5.45 29.85-9.4 43.43-4.27 14.67-9.11 31.29-13.74 60.75-2.01 12.73-11.57 23.46-19.26 32.09-4.37 4.9-8.14 9.13-9.27 12.32-.32.9-1.17 1.47-2.09 1.47Z"
          style="fill-rule:nonzero;stroke:#000;stroke-width:1.26px"
          transform="translate(-609.062 154.826) scale(.79422)"/>
    <path d="M1049.14 1951.94a2.21 2.21 0 0 1-2.01-3.13c15.52-33.9 9.1-71.78.96-119.74-4.35-25.69-9.29-54.81-11.21-86.96-5.39-90.43 69.77-199.28 70.53-200.36.7-1.01 2.07-1.25 3.08-.55 1 .7 1.25 2.08.55 3.08-.75 1.07-75.04 108.68-69.74 197.57 1.9 31.91 6.82 60.9 11.16 86.48 8.26 48.71 14.78 87.19-1.31 122.32-.37.81-1.17 1.29-2.01 1.29Z"
          style="fill-rule:nonzero;stroke:#000;stroke-width:1.26px"
          transform="translate(-609.062 154.826) scale(.79422)"/>
    <path d="M1074.58 1933.46c2.84-17.03 5.82-42.12 4.83-72.37-1.62-49.32-12.44-70.31-1.57-88.75 11.98-20.31 32.15-6.71 46.43-30.88 9.73-16.48 4.85-30.41 18.23-45.91 2.55-2.96 10.84-12.33 22.55-13.47 10.86-1.07 14.69 5.92 28.55 12.04 25.1 11.09 36.3-1.33 45.53 10.33 8.17 10.33 9.8 33.21 2 45.83-14.68 23.76-53.5-3.91-68.07 18.63-12.45 19.25 9 50.07-4.62 71.52-12.26 19.33-36.83 5.59-46.89 25.82-7.7 15.47 3.08 30.71-4.05 46.83-7.44 16.83-27.92 20.05-42.92 20.38Z"
          style="fill:#fff;fill-rule:nonzero;stroke:#000;stroke-width:1.26px"
          transform="translate(-609.062 154.826) scale(.79422)"/>
    <path d="M1167.18 1684.18c-.61 0-1.25.03-1.92.1-5.05.49-12.8 3.1-21.09 12.71-7.12 8.26-8.8 16.06-10.58 24.32-1.45 6.74-2.95 13.72-7.42 21.27-7.91 13.4-17.79 15.94-26.51 18.19-7.86 2.02-14.65 3.77-19.92 12.7-6.38 10.82-4.82 22.64-2.24 42.23 1.56 11.86 3.51 26.61 4.12 45.31.77 23.33-.72 46.91-4.43 70.15 20.25-.94 33.13-7.31 38.28-18.97 3.28-7.41 2.5-14.6 1.68-22.22-.87-8-1.77-16.28 2.42-24.7 5.62-11.31 15.33-12.95 24.71-14.53 8.64-1.45 16.8-2.83 22.3-11.49 6.51-10.27 4.36-23.32 2.28-35.95-2.07-12.52-4.2-25.48 2.34-35.59 7.91-12.25 21.96-11.05 35.53-9.9 13.27 1.12 25.8 2.18 32.52-8.7 7.04-11.38 6.1-33.23-1.86-43.28-3.92-4.96-8.07-4.8-14.99-4.55-7.03.26-16.67.61-29.7-5.14-5.2-2.3-8.97-4.68-12.29-6.77-4.83-3.06-8.21-5.19-13.23-5.19Zm-92.61 251.49c-.64 0-1.25-.28-1.67-.76-.43-.5-.61-1.17-.51-1.82 3.98-23.8 5.6-48.01 4.81-71.93-.61-18.49-2.53-33.12-4.09-44.88-2.61-19.82-4.33-32.92 2.83-45.06 6.19-10.51 14.54-12.66 22.62-14.74 8.65-2.22 16.82-4.33 23.8-16.15 4.1-6.93 5.53-13.55 6.91-19.95 1.81-8.44 3.69-17.17 11.55-26.28 9.25-10.72 18.16-13.65 24.01-14.22 7.64-.77 12.19 2.11 17.95 5.75 3.19 2.01 6.8 4.29 11.71 6.46 12.09 5.35 20.77 5.03 27.75 4.77 7.14-.27 13.31-.49 18.62 6.22 9.08 11.47 10.14 35.43 2.16 48.36-8.15 13.19-22.64 11.96-36.66 10.77-12.85-1.09-24.98-2.11-31.45 7.9-5.61 8.68-3.7 20.24-1.69 32.47 2.22 13.44 4.51 27.35-2.91 39.04-6.55 10.32-16.51 12-25.29 13.48-9.05 1.53-16.87 2.85-21.49 12.14-3.61 7.26-2.82 14.54-1.99 22.26.86 7.86 1.74 15.98-2.02 24.48-6.14 13.87-21.24 21.17-44.9 21.69h-.05Z"
          style="fill-rule:nonzero;stroke:#000;stroke-width:1.26px"
          transform="translate(-609.062 154.826) scale(.79422)"/>
    <path d="M1065.23 1951.21c-.57 0-1.14-.22-1.58-.66-.85-.88-.84-2.28.04-3.13 11.86-11.62 16.16-31.86 22.67-62.51 5.07-23.84 11.37-53.51 23.58-89.93 28.23-84.22 105.36-74.52 106.14-74.42 1.21.17 2.05 1.29 1.89 2.5-.17 1.21-1.31 2.07-2.5 1.88-3.02-.41-74.3-9.23-101.34 71.44-12.13 36.18-18.4 65.72-23.44 89.45-6.68 31.43-11.09 52.2-23.91 64.75-.43.42-.99.63-1.55.63Z"
          style="fill-rule:nonzero;stroke:#000;stroke-width:1.26px"
          transform="translate(-609.062 154.826) scale(.79422)"/>
    <path d="m1085.29 1996.81-75.57.54a9.371 9.371 0 0 1-8.79-5.96l-7.025-17.95c-3.288-8.39 7.605-16.74 26.335-19.72 25.23-4.02 49.73-3.21 73.53 2.26 11.16 2.56 17.62 7.74 16.84 13.13l-2.66 10.1c-2.71 10.31-12 17.53-22.66 17.6Z"
          style="fill-rule:nonzero;stroke:#000;stroke-width:1.26px"
          transform="translate(-609.062 154.826) scale(.79422)"/></svg>