<?xml version="1.0" encoding="UTF-8"?>
<svg id="Calque_1" xmlns="http://www.w3.org/2000/svg" version="1.1" viewBox="0 0 1333 1441">
  <!-- Generator: Adobe Illustrator 29.0.0, SVG Export Plug-In . SVG Version: 2.1.0 Build 186)  -->
  <defs>
    <style>
      .st0 {
        fill: none;
      }

      .st1 {
        fill: #007cbd;
      }

      .st2 {
        fill: #fff;
      }
    </style>
  </defs>
  <path class="st0" d="M0,0h1333v1441H0V0Z"/>
  <path class="st1" d="M950,235.8l-89.8.4c-8.2,0-75-.5-82.6-.6l-31.7-.3c-11.6,0-20.3-9.4-19.5-20.9l9.3-129.1c.8-11.5,10.9-20.8,22.5-20.8l204.1.4c11.6,0,20.3,9.4,19.5,20.9l-9.3,129.1c-.8,11.5-10.9,20.8-22.5,20.8h0Z"/>
  <path class="st1" d="M821.1,234.4l22.1,38.8,30.8-38.8h-52.9,0Z"/>
  <path class="st2" d="M1098.9,1267.8l-16.1,105.7-39-19.8,11.1-105.5,44,19.6h0Z"/>
  <path d="M1046.1,1352.4l34.9,17.8,15.4-101-39.7-17.7-10.7,100.9ZM1082.8,1375.7c-.3,0-.7,0-1-.2l-39-19.9c-.8-.4-1.3-1.3-1.2-2.2l11.1-105.5c0-.7.5-1.3,1.1-1.7.6-.3,1.4-.4,2,0l44,19.6c.9.4,1.4,1.4,1.3,2.3l-16.1,105.7c-.1.7-.5,1.3-1.2,1.6-.3.2-.7.2-1,.2h0Z"/>
  <path class="st2" d="M1092.9,1333.5c4.5,10.2,8.7,29.4,13,54.6,2,11.9-7.3,22.8-19.5,22.8h-143.5c-9.9,0-14.5-12-7.2-18.6,28.6-25.3,72.3-53.2,110.1-69.7l14.4,20.4s31.6-12.3,32.8-9.4h0Z"/>
  <path d="M1090.8,1334.4h0,0ZM1044.9,1325.3c-36.3,16.1-79.5,43.5-107.9,68.6-3.2,2.8-3.3,6.6-2.3,9.2,1,2.6,3.6,5.5,8,5.5h143.5c5.3,0,10.2-2.3,13.6-6.3,3.3-3.8,4.7-8.9,3.8-13.9-4.6-26.8-8.5-43.8-12.4-53.2-3.8.2-18.2,5-30.4,9.7-.9.4-2,0-2.6-.8l-13.4-18.9h0ZM1086.3,1413h-143.5c-5.5,0-10.2-3.3-12.2-8.3-1.9-5.1-.6-10.5,3.5-14.1,29.1-25.8,73.6-53.9,110.7-70,1-.4,2.1-.1,2.7.8l13.4,18.9c32-12.3,33.2-9.5,34-7.6,4.2,9.5,8.3,27,13.1,55.1,1.1,6.2-.7,12.6-4.8,17.5-4.2,5-10.4,7.8-16.9,7.8Z"/>
  <path d="M1084.7,1396.6h-128.3c-1.2,0-2.2-1-2.2-2.2h0c0-1.2,1-2.2,2.2-2.2h128.3c1.2,0,2.2,1,2.2,2.2s-1,2.2-2.2,2.2ZM1027.9,1370.3c-.8,0-1.5-.4-1.9-1.1l-14.7-25c-.6-1-.3-2.4.8-3,1-.6,2.4-.3,3,.8l14.7,25c.6,1.1.3,2.4-.8,3-.4.2-.7.3-1.1.3ZM1006.3,1373.9c-.8,0-1.5-.4-1.9-1.1l-9.5-17.1c-.6-1.1-.2-2.4.8-3,0,0,0,0,0,0,1.1-.6,2.4-.2,3,.8,0,0,0,0,0,0l9.5,17.1c.6,1.1.2,2.4-.8,3-.3.2-.7.3-1.1.3h0Z"/>
  <path class="st2" d="M1130.5,1054.5c10.2-4.4,29.5-8.5,54.6-12.7,11.9-2,22.7,7.4,22.6,19.7l-.8,143.5c0,9.9-12.1,14.5-18.6,7.1-25.1-28.7-52.8-72.6-69.1-110.5l20.4-14.3s-12.1-31.6-9.3-32.8Z"/>
  <path d="M1130.5,1054.5h0,0ZM1122,1102.5c15.9,36.4,43,79.7,68,108.2,2.8,3.2,6.6,3.3,9.2,2.3,2.7-1,5.5-3.6,5.5-8l.8-143.5c0-5.2-2.2-10.2-6.2-13.6-3.9-3.3-8.9-4.7-13.9-3.9-26.9,4.4-43.8,8.3-53.2,12.1.2,3.8,4.9,18.2,9.6,30.4.4.9,0,2-.8,2.6l-19,13.3h0ZM1196.2,1218c-3.6,0-7-1.5-9.5-4.4-25.6-29.3-53.5-73.9-69.4-111.1-.4-1,0-2.1.8-2.7l19-13.3c-12.2-32-9.3-33.2-7.5-34.1,9.5-4.1,27.1-8.2,55.2-12.8,6.2-1,12.6.8,17.5,4.9,5,4.2,7.8,10.4,7.7,17l-.8,143.5c0,5.5-3.3,10.2-8.4,12.1-1.5.6-3,.8-4.5.8h0Z"/>
  <path d="M1190.7,1193.6h0c-1.2,0-2.2-1-2.2-2.2l.7-128.3c0-1.2,1.1-2.2,2.2-2.2,1.2,0,2.2,1,2.2,2.2l-.7,128.3c0,1.2-1,2.2-2.2,2.2ZM1139.7,1136.5c-.8,0-1.5-.4-1.9-1.1-.6-1-.3-2.4.8-3,0,0,0,0,0,0l25.1-14.6c1-.6,2.4-.3,3,.8,0,0,0,0,0,0,.6,1.1.3,2.4-.8,3l-25.1,14.6c-.3.2-.7.3-1.1.3ZM1151.1,1153c-.8,0-1.5-.4-1.9-1.1-.6-1.1-.2-2.4.9-3l17.2-9.4c1.1-.6,2.4-.2,3,.9.6,1.1.2,2.4-.9,3,0,0,0,0,0,0l-17.2,9.5c-.3.2-.7.3-1.1.3ZM1011.4,592.7s-117.9,159.1-155,263.7c-7.1,19.9-1.6,42.1,13.9,56.4,43.2,40,135.5,124.6,194.8,171.8l17.7-45s-21.4-104.1-101.7-151l99.6-148.5,21.9-115.6-91.2-31.8h0Z"/>
  <path d="M1123.5,620.2c35.2,6.4,59,39.4,54,74.9-11.1,77.4-28.7,203.2-32,245.7-4.9,62.9,7.8,132.8,10.2,184.2,2.4,51.3-55.8,170.7-55.8,170.7l-56.1-3.9-10.4-584.3-15.1-107,105.3,19.9h0Z"/>
  <path class="st2" d="M1037.1,1079.5c-1.2,0-2.2-1-2.2-2.2l-1.5-92.5c0-1.2,1-2.2,2.2-2.2,1.2,0,2.2,1,2.2,2.2l1.5,92.5c0,1.2-.9,2.2-2.2,2.2,0,0,0,0,0,0h0ZM1032.6,824.2c-1.2,0-2.2-1-2.2-2.2l-.2-42.1c0-16.4-8.1-31.8-21.4-41.4l-2.9-2.1c-1-.7-1.2-2.1-.5-3.1.7-1,2.1-1.2,3.1-.5l2.9,2.1c14.4,10.4,23.1,27.2,23.2,45l.2,42.1c0,1.2-1,2.2-2.2,2.2,0,0,0,0,0,0h0Z"/>
  <path d="M1020.3,184.1c20.8-22.5,51.6-27.2,74.8-20.9,29.4,8,44.2,33.4,54.6,51.3,18.5,31.7,9.5,43.1,24,61.5,25.7,32.6,66,12.2,97.3,36,47.8,36.3,54.3,159.5-10.4,206.4-43.1,31.3-101.7,13.2-117.7,8.3-48.4-14.9-108.6-56.6-117.3-113.2-7.1-46.7,23.7-85.6-2.1-124.8-6.6-10-12-12.7-16.9-25.2-7.9-20.3-9.7-54.4,13.6-79.6Z"/>
  <path d="M1082.9,189.6c-11-8.9-4-35.3,3-49.6,2.6-5.3,14.5-29.2,30.1-28.3,16,1,31.3,27.8,25.6,49.1-7.1,26.6-45.7,39.3-58.7,28.8ZM881.1,409.7l-41.1.3-49.8-87.5,40.5-.3,50.5,87.6h0Z"/>
  <path class="st2" d="M1038.4,356.7c-26.5.7-54.8,65.2-118,106.8-6.5,4.3-13.9,6.9-20,2-20.3-16.5-62-52.6-68.7-75.5-1.4-4.6-3.7-32.2-13.1-43.7-5.9-7.2-11,1.3-11,1.3,0,0-27.6,37.5,2.6,60.9,4.5,3.5,8.1,8.1,10.6,13.2,11.2,23.1,47.1,83.8,63.3,102.7,21.1,24.6,28.9,23.8,50,12.5l96.7-57s25.4-123.8,7.6-123.3Z"/>
  <path d="M1038.4,356.7h0,0ZM813.7,345.6h-.1c-1.8.1-3.6,2.3-4,3.1-1.2,1.6-26.1,36.2,2,58,4.7,3.6,8.6,8.5,11.3,14,10.7,21.9,46.5,83,63,102.2,20.9,24.5,27.6,22.5,47.3,12l95.8-56.4c8.8-43,18.8-109.5,10.9-119-.5-.6-.9-.7-1.2-.7-12.1.3-25.6,16.2-42.7,36.2-18.6,21.8-41.7,48.8-74.1,70.1-9.1,6-16.7,6.6-22.6,1.9-23-18.7-62.7-53.6-69.5-76.6-.3-1.2-.7-3.3-1.2-6.3-1.6-9.8-4.6-28.2-11.5-36.7-1.1-1.4-2.2-2.1-3.2-2.1h0ZM912.6,546.7c-9.3,0-17.5-6.1-30.1-20.9-16.6-19.4-52.8-81.1-63.6-103.2-2.4-4.9-5.8-9.2-10-12.4-31.5-24.4-3.3-63.6-3-64,.2-.3,3-4.8,7.4-5.1,2.6-.2,5,1.1,7.1,3.7,7.7,9.4,10.8,28.5,12.4,38.7.4,2.6.8,4.8,1,5.7,6.6,22.7,49.8,59.6,68,74.4,4.3,3.5,9.9,2.8,17.4-2.1,31.8-21,54.7-47.8,73.1-69.3,18.6-21.7,32-37.4,46-37.8,1.8,0,3.5.7,4.7,2.2,12,14.2-7.8,112.5-10.1,123.7-.1.6-.5,1.1-1,1.4l-96.7,57c-9.3,5-16.3,7.9-22.7,7.9h0Z"/>
  <path class="st2" d="M1191.5,353.8s-72-39.4-155.5-5.9c-5.4,2.2-8.8,7.6-8.3,13.5.7,7.9-.3,20.1-9.5,32.9-35.5,49.6-14.3,70.3-20.4,95-12.4,50.1-24.6,81.6-50.5,148.1-9.8,25,30,25.1,63.9,19.7,33.9-5.4,117-5.3,151.9,13.8,34.8,19.2,38.4-27.8,34.5-59-3.9-31.3-6.2-258-6.2-258Z"/>
  <path d="M1060.5,651.7c37,0,80.5,4.4,103.8,17.2,8.7,4.8,15.8,5.5,20.9,2,12.1-8.2,13.1-36.8,10.4-58.8-3.8-30.2-6-236.4-6.2-256.9-9.5-4.7-76.6-35.7-152.5-5.2-4.6,1.8-7.4,6.4-6.9,11.2.8,8.3-.4,21.1-9.9,34.4-23.8,33.2-21.6,52.8-19.7,70.1.9,8.2,1.7,15.9-.3,24.1-12.6,50.9-25.3,83.5-50.6,148.3-2,5.1-1.8,9,.6,12,6.4,8,29.2,9.7,60.9,4.7,12-1.9,29.9-3.2,49.6-3.2h0ZM1177.7,677.5c-4.6,0-9.8-1.6-15.6-4.7-34.3-18.9-117.4-18.8-150.5-13.6-19.8,3.2-54.7,6.6-65-6.2-3.4-4.3-3.9-9.8-1.3-16.4,25.2-64.7,37.9-97.1,50.4-147.8,1.8-7.4,1.1-14.4.2-22.5-1.9-17.2-4.2-38.6,20.5-73.2,8.8-12.2,9.8-23.9,9.1-31.4-.6-6.8,3.3-13.2,9.7-15.7,83.4-33.5,156.6,5.6,157.3,6,.7.4,1.1,1.1,1.1,1.9,0,2.3,2.3,226.9,6.1,257.7,3.1,24.4,1.4,53.7-12.3,63-2.9,2-6.2,3-9.9,3h0Z"/>
  <path class="st2" d="M1171.2,540.8l-79.6-47.5c-9.8-5.8-21.7-6.9-32.4-3l-37.3,13.9c-6,2.2-4.8,10.9,1.6,11.6,2.2.2,4.8,0,7.8-.7,8.6-2.2,20.2-2,28.6,4.9,4.5,3.7,9.9,3.4,13.9,2.4,3.8-1,7.8.5,10.1,3.7,16,22,73.8,96.5,125.6,98.3,49.5,1.7,33.5-160.7,17.2-237.2-3.2-14.9-19.7-27.4-33.9-32.8l-18.2-6.9,9.3,185.8c.3,6.7-6.9,11.1-12.7,7.7h0Z"/>
  <path d="M1076.1,519.8c3.7,0,7.2,1.8,9.5,4.9,16.3,22.4,73.2,95.7,123.9,97.4,6,.2,10.9-2.2,15.2-7.2,26.2-31.3,15.4-154.1-.2-227.2-3-14.1-19-26.1-32.5-31.2l-15.1-5.7,9.2,182.4c.2,4-1.7,7.6-5.1,9.6s-7.5,2.1-10.9,0l-79.6-47.5c-9.3-5.5-20.4-6.5-30.5-2.8l-37.3,13.9c-2.1.8-2.6,2.6-2.4,4,.2,1.4,1.2,3.1,3.4,3.3,2.1.2,4.5,0,7-.7,4.3-1.1,19.2-4,30.5,5.3,3.1,2.6,7.2,3.2,12,1.9,1-.2,2-.4,3-.4h0ZM1210.2,626.6c-.3,0-.6,0-.9,0-52.7-1.8-110.8-76.4-127.3-99.2-1.8-2.5-4.9-3.6-7.8-2.9-6.2,1.6-11.7.7-15.9-2.8-9.7-7.9-22.9-5.4-26.7-4.4-3,.8-5.9,1-8.5.8-3.9-.4-6.9-3.2-7.4-7.1-.5-3.8,1.6-7.3,5.3-8.7l37.3-13.9c11.4-4.2,23.9-3.1,34.3,3.1l79.6,47.5c2,1.2,4.4,1.2,6.4,0,2-1.2,3.1-3.3,3-5.6l-9.3-185.8c0-.8.3-1.5.9-1.9.6-.4,1.4-.5,2.1-.3l18.2,6.9c14.7,5.6,31.9,18.8,35.3,34.4,12.8,59.9,29.4,195.1-.7,231-4.9,5.9-10.9,8.8-17.9,8.8h0Z"/>
  <path class="st2" d="M1063.7,298.9c-4.9,2.4-10.8,1.6-14.7-2.2-4.3-4.3-8.1-9.1-11.2-14.3h-5.7c-1.8.2-3.3-1.3-3.4-3.1l-1-22.1c-13-21.2-2.8-32.6-2.8-32.6,6.5-11.3,28.6-17.5,43.9,3.6,5.3,7.3,13.5,1.9,18-2,1.8-1.6,3.3-3.6,4.5-5.7,3-5.6,10.7-17.2,16.7-6.3,13,23.5-5.7,41.9-5.7,41.9l13.6,58.1c3.1,13.4,12.7,24.4,25.6,29.3l13.1,5s-20.5,67-78.4,65.8c-44.2-.9-25.2-60.7-25.2-60.7l5.8-2.6c15.2-6.7,23.5-23.2,19.9-39.5l-3.9-17.2-9.2,4.6h0Z"/>
  <path d="M1052.9,355.1c-1.5,5.4-8.5,32.5,2,47.2,4.5,6.2,11.7,9.5,21.4,9.7.5,0,1,0,1.5,0,49.1,0,70.2-51.6,74.1-62.3l-11.1-4.3c-13.5-5.2-23.6-16.7-26.9-30.9l-13.6-58.1c-.2-.7,0-1.5.6-2.1.7-.7,17.3-17.6,5.3-39.3-.9-1.5-2.2-3.4-3.7-3.4h0c-2.4,0-5.8,3.7-9.1,9.6-1.4,2.5-3,4.7-5,6.3-3.6,3.1-8.9,6.7-14.1,6.1-2.8-.3-5.2-1.8-7.1-4.5-6.4-8.9-14.7-13.5-23.6-13-7.1.4-13.6,4-16.6,9.2,0,.1-.2.3-.3.4-.4.4-8.9,10.6,3,30,.2.3.3.7.3,1l1,22.1c0,.6.5,1.1,1.2,1.1h5.7c.8-.1,1.5.3,1.9.9,3.1,5,6.7,9.7,10.9,13.8,3.2,3.2,8.1,3.9,12.2,1.8l9.2-4.6c.6-.3,1.3-.3,1.9,0,.6.3,1.1.8,1.2,1.5l3.9,17.2c3.9,17.2-5,34.8-21.1,42l-4.9,2.2h0ZM1077.8,416.5c-.5,0-1.1,0-1.6,0-11.2-.2-19.6-4.1-24.9-11.6-12.9-18.1-2.8-50.7-2.3-52,.2-.6.6-1.1,1.2-1.3l5.8-2.6c14.2-6.3,22-21.8,18.6-36.9l-3.3-14.5-6.7,3.3c-5.8,2.9-12.7,1.8-17.2-2.7-4.1-4.1-7.8-8.7-10.9-13.6h-4.4c-2.9.1-5.5-2.2-5.6-5.2l-1-21.5c-12.5-20.8-3.8-32.8-2.4-34.5,3.8-6.4,11.6-10.8,20.1-11.3,6-.3,17.6,1.2,27.4,14.8,1.2,1.6,2.5,2.5,4.1,2.7,2.8.3,6.6-1.5,10.7-5.1,1.5-1.3,2.9-3.1,4-5.1,3-5.4,7.6-11.9,12.9-11.9h0c3,0,5.5,1.9,7.6,5.7,11.9,21.6-1.6,39.4-5.2,43.6l13.4,57c3,12.7,12,23.1,24.2,27.8l13.1,5c1.1.4,1.7,1.6,1.3,2.7-.2.7-21.2,67.4-79,67.4h0Z"/>
  <path d="M1066.8,303.5c-1.2,0-2.2-1-2.2-2.2,0-.8.5-1.6,1.2-2,15.1-7.3,17-26.9,17-27.2.1-1.2,1.2-2.1,2.4-2,1.2.1,2.1,1.2,2,2.4,0,.9-2.2,22.3-19.5,30.7-.3.1-.6.2-1,.2Z"/>
  <path class="st2" d="M217.6,1279.6h.4c0,.3-.1.5-.2.7l-.3-.7h0ZM285.2,985.5c-.9-6-9.1-6.9-11.1-1.2-10.7,30.2-26.4,79.1-31.7,120.3-3.5-13.2-8.2-26.1-14.1-38.6-26.2-54.9-28.3-118.5-5.7-175.1l19.4-48.5c2.5-6.1-5.4-11.1-9.8-6.2l-27.3,30c-61.9,68.1-82.8,164.5-54.7,252.5l9.4,29.4c-13-15.1-30.1-26.4-49.6-32.3l-28.6-8.7c-6.9-2.1-11.6,7.1-5.9,11.5l17.6,13.7c19.1,14.8,30.4,37.6,30.9,61.8.3,14.3,4.3,28.2,11.8,40.3l28.4,46.6,52,4.7c-9.2,32.4-17.3,56.2-17.3,56.2,0,0,34-10.6,89.6-118.6,47-91.1,5.1-179.2-3.3-238.1h0Z"/>
  <path d="M217.9,1282.5c-.9,0-1.7-.6-2.1-1.4l-.3-.7c-.3-.7-.2-1.6.3-2.2s1.3-.9,2.1-.8h.4c.6.2,1.1.6,1.4,1.1.3.5.4,1.2.2,1.8l-.2.6c-.3.9-1.1,1.6-2,1.6,0,0,0,0-.1,0h0ZM165.6,1279.1l50.9,4.6c.7,0,1.2.4,1.6.9.4.5.5,1.2.3,1.8-6.6,23.3-12.7,42.4-15.6,51.1,10.9-6.9,40.9-31.9,83.8-115.1,35.9-69.7,19.3-137.7,5.9-192.3-3.9-15.9-7.6-31-9.5-44.5-.3-2.1-1.8-3-3.2-3.1-1.3-.1-3,.4-3.7,2.4-11.6,32.6-26.4,79.8-31.6,119.8-.1,1-1,1.9-2,1.9-1.1,0-2-.6-2.3-1.6-3.5-13.2-8.2-26.1-14-38.2-26.5-55.4-28.6-119.8-5.7-176.8l19.4-48.6c.9-2.2-.3-3.8-1.5-4.6-1.2-.8-3.1-1-4.6.7l-27.3,30c-61.2,67.4-82,163.3-54.3,250.3l9.4,29.4c.3,1-.1,2.1-1,2.6-.9.5-2.1.3-2.8-.5-12.9-15-29.7-26-48.6-31.7l-28.6-8.7c-2.5-.8-4.3.6-5.1,2.2-.8,1.5-.9,3.9,1.2,5.5l17.6,13.7c19.7,15.3,31.3,38.5,31.8,63.5.3,13.9,4.2,27.4,11.4,39.2l27.9,45.7h0ZM199,1344.4c-.6,0-1.2-.2-1.6-.7-.6-.6-.8-1.5-.5-2.2,0-.2,7.8-22.9,16.6-53.6l-49.4-4.4c-.7,0-1.3-.4-1.7-1.1l-28.4-46.6c-7.6-12.5-11.8-26.8-12.1-41.4-.5-23.7-11.4-45.7-30.1-60.1l-17.6-13.7c-4-3.1-4.1-7.8-2.4-11,1.7-3.2,5.5-5.8,10.3-4.3l28.6,8.7c16.5,5,31.5,13.9,43.9,25.9l-6.4-20.2c-28.2-88.5-7.1-186.1,55.2-254.6l27.3-30c2.7-3,6.8-3.6,10.2-1.4,2.9,1.8,5,5.6,3.2,10l-19.4,48.5c-22.4,55.9-20.3,119,5.6,173.3,4.4,9.3,8.3,19.1,11.4,29.1,6.1-38.1,19.6-80.6,30.3-110.6,1.2-3.5,4.6-5.7,8.3-5.3,3.7.4,6.6,3.1,7.1,6.9,1.9,13.3,5.6,28.2,9.4,44.1,13.5,55.3,30.4,124.2-6.3,195.3-55.4,107.5-89.5,119.2-90.9,119.7-.2,0-.4.1-.7.1Z"/>
  <path d="M214,1238.1c0,0-.1,0-.2,0-1.2-.1-2.1-1.2-2-2.4,6.4-68.3-7.3-112.3-19.4-151.2-5.6-18-10.9-35-14.1-53.3-14.9-86.4,35.9-161.4,36.4-162.1.7-1,2.1-1.2,3.1-.6,1,.7,1.2,2.1.6,3.1-.5.7-50.2,74.3-35.7,158.9,3.1,18,8.4,34.9,13.9,52.7,12.2,39.2,26.1,83.7,19.6,152.9-.1,1.1-1.1,2-2.2,2h0ZM269.9,1192.3c-1.2,0-2.2-1-2.2-2.2,0-.1,0-.3,0-.4,11.4-67.5,7.5-171.5,7.4-172.6,0-1.2.9-2.2,2.1-2.3,1.2,0,2.2.9,2.3,2.1,0,1.1,4,105.5-7.5,173.5-.2,1.1-1.1,1.8-2.2,1.8ZM169.7,1248.3c-1.2,0-2.2-1-2.2-2.2-.8-83.8-67.7-120.6-68.4-121-1.1-.6-1.5-1.9-.9-3,0,0,0,0,0,0,.6-1.1,1.9-1.5,3-.9.7.4,69.9,38.4,70.7,124.8,0,1.2-1,2.2-2.2,2.2h0,0ZM214.5,1410.8h-8.4c-41.6,0-75.3-33.7-75.3-75.3v-75.2h159v75.2c0,41.6-33.7,75.3-75.3,75.3h0Z"/>
  <path class="st2" d="M274.2,1289.1h-127.8c-1.2,0-2.2-1-2.2-2.2s1-2.2,2.2-2.2h127.8c1.2,0,2.2,1,2.2,2.2s-1,2.2-2.2,2.2Z"/>
  <path class="st2" d="M776.3,185.2c0,1.7,1.3,3,3,3h69.5c1.7,0,3-1.3,3-3v-39.6h-75.5v39.6ZM848.8,119.5h-15.9v-6c0-.4-.3-.8-.8-.8h-5.3c-.4,0-.8.3-.8.8v6h-24.2v-6c0-.4-.3-.8-.8-.8h-5.3c-.4,0-.8.3-.8.8v6h-15.9c-1.7,0-3,1.3-3,3v16.6h75.5v-16.6c0-1.7-1.3-3-3-3Z"/>
  <path class="st2" d="M885.9,127.2v15.6l13.8-2.7v45.4h18.4v-66l-32.3,7.7h0Z"/>
</svg>