<svg xmlns="http://www.w3.org/2000/svg" xml:space="preserve" aria-hidden="true"
     style="fill-rule:evenodd;clip-rule:evenodd;stroke-linecap:round;stroke-linejoin:round;stroke-miterlimit:1.5"
     viewBox="0 0 2500 2500"><circle cx="1754.82" cy="552.78" r="20.957" style="fill:#fff" transform="translate(3.626 2.327)"/>
    <path d="M1346.29 2108.41c-47.78 0-89.27-4.88-121.82-10.73-72.82-13.07-117.91-33.69-118.36-33.9a2.246 2.246 0 0 1-1.09-2.98 2.238 2.238 0 0 1 2.97-1.09c.44.2 45.14 20.62 117.44 33.59 66.69 11.96 171.21 19.85 290.33-10.52 1.2-.3 2.42.42 2.73 1.62.31 1.2-.42 2.42-1.62 2.73-61.83 15.76-119.76 21.28-170.58 21.28ZM1303.62 2143.88c-17.39 0-38.55-.83-62.11-3.45-59.33-6.59-146.48-26.16-224.72-82.01a2.232 2.232 0 0 1-.52-3.12 2.241 2.241 0 0 1 3.12-.53c148.22 105.79 330.88 82.39 332.7 82.14 1.23-.17 2.36.7 2.53 1.92.17 1.23-.69 2.36-1.92 2.53-.29.04-19.05 2.52-49.08 2.52ZM1534.57 489.431c-.45 0-.91-.135-1.3-.416-.51-.361-51.94-36.414-147.39-57.407-88.11-19.379-232.82-29.517-421.883 32.218a2.239 2.239 0 0 1-2.827-1.435 2.243 2.243 0 0 1 1.435-2.827c190.165-62.094 335.805-51.825 424.515-32.274 96.25 21.213 148.23 57.708 148.75 58.074a2.236 2.236 0 0 1 .52 3.125c-.43.615-1.12.942-1.82.942Z"
          style="fill-rule:nonzero"/>
    <path d="M1596.43 474.684a2.26 2.26 0 0 1-1.47-.547c-.46-.398-46.95-40.062-138.6-68.907-84.61-26.627-226.1-49.214-419.7-5.61a2.24 2.24 0 0 1-.99-4.373c194.73-43.861 337.14-21.058 422.31 5.794 92.44 29.142 139.45 69.306 139.92 69.708a2.246 2.246 0 0 1-1.47 3.935ZM1679.11 483.5c-3.02 0-5.64-.708-7.88-2.12-5.34-3.367-6.19-9.324-7.02-15.084-.78-5.429-1.51-10.559-5.69-13.832-5-3.918-11.64-2.404-18.66-.803-7.71 1.756-15.68 3.573-22.38-1.552-5.94-4.539-6.72-11.529-7.41-17.697-.66-5.906-1.23-11.007-5.68-13.664-3.79-2.266-8.2-1.46-12.85-.608-5.46.998-11.64 2.129-16.86-2.333-2.74-2.335-3.78-4.966-4.7-7.288-.91-2.287-1.63-4.092-3.82-5.455-3.53-2.188-8.73-1.949-15.48.705a2.25 2.25 0 0 1-2.91-1.265 2.248 2.248 0 0 1 1.27-2.907c8.13-3.203 14.69-3.316 19.48-.342 3.45 2.143 4.61 5.048 5.62 7.61.84 2.104 1.56 3.921 3.45 5.534 3.6 3.074 8.02 2.268 13.14 1.33 5.03-.917 10.72-1.958 15.96 1.169 6.36 3.799 7.11 10.519 7.84 17.018.64 5.788 1.25 11.255 5.67 14.632 5.04 3.85 11.65 2.34 18.66.743 7.74-1.764 15.75-3.589 22.43 1.645 5.59 4.383 6.53 10.94 7.36 16.724.74 5.187 1.38 9.665 4.97 11.926 5.06 3.192 14.26.866 26.59-6.712a2.252 2.252 0 0 1 3.09.737 2.236 2.236 0 0 1-.74 3.083c-9.57 5.883-17.33 8.806-23.45 8.806ZM398.89 1483.04a2.239 2.239 0 0 1-1.778-3.6l10.566-13.81a2.247 2.247 0 0 1 3.142-.42c.984.75 1.171 2.16.419 3.14l-10.566 13.81c-.442.58-1.109.88-1.783.88ZM374.279 1515.21a2.24 2.24 0 0 1-1.78-3.6l10.565-13.81a2.249 2.249 0 0 1 3.143-.42 2.24 2.24 0 0 1 .419 3.14l-10.565 13.81a2.23 2.23 0 0 1-1.782.88ZM382.688 1485.2a2.23 2.23 0 0 1-1.36-.46l-13.81-10.57a2.239 2.239 0 0 1-.419-3.14 2.238 2.238 0 0 1 3.142-.42l13.81 10.57c.984.75 1.171 2.15.419 3.14-.442.57-1.109.88-1.782.88ZM414.858 1509.81c-.476 0-.954-.15-1.36-.46l-13.81-10.57a2.237 2.237 0 0 1-.419-3.14 2.247 2.247 0 0 1 3.142-.42l13.81 10.57a2.239 2.239 0 0 1-1.363 4.02ZM1751.07 537.902c-9.28 4.173-13.5 15.295-9.41 24.791 2 4.638 5.65 8.182 10.28 9.982a17.825 17.825 0 0 0 13.88-.362c9.29-4.174 13.51-15.295 9.41-24.792-2-4.637-5.65-8.184-10.27-9.981a17.854 17.854 0 0 0-13.89.362Zm7.39 40.49c-2.75 0-5.5-.512-8.15-1.54-5.75-2.238-10.29-6.637-12.76-12.386-5.06-11.73.18-25.481 11.68-30.653 5.54-2.488 11.7-2.65 17.35-.452 5.76 2.237 10.29 6.637 12.77 12.387 5.06 11.73-.19 25.481-11.69 30.653a22.387 22.387 0 0 1-9.2 1.991Z"
          style="fill-rule:nonzero"/>
    <path d="M2076.79 614.528h-6.89L1943.73 1970.54h14.91c31.77 0 59.77-25.76 62.54-57.53l108.13-1240.954c2.77-31.772-20.74-57.528-52.52-57.528Z"
          style="fill:#fff;fill-rule:nonzero"/>
    <path d="M1946.19 1968.3h12.45c30.59 0 57.65-24.89 60.31-55.48l108.13-1240.96c1.28-14.773-3.26-28.639-12.8-39.044-9.48-10.348-22.8-16.047-37.49-16.047h-4.85L1946.19 1968.3Zm12.45 4.48h-14.91c-.63 0-1.23-.26-1.65-.73-.43-.47-.64-1.09-.58-1.72l126.17-1356.01a2.233 2.233 0 0 1 2.23-2.034h6.89c15.96 0 30.45 6.215 40.79 17.501 10.4 11.342 15.36 26.423 13.96 42.463l-108.12 1240.96c-2.87 32.85-31.92 59.57-64.78 59.57Z"
          style="fill-rule:nonzero"/>
    <path d="M2048.74 614.527H628.342c-31.772 0-59.772 25.757-62.541 57.529L457.674 1913.01c-2.768 31.77 20.744 57.53 52.516 57.53h1420.4c31.77 0 59.77-25.76 62.54-57.53l108.13-1240.954c2.77-31.772-20.75-57.529-52.52-57.529Z"
          style="fill:#fff;fill-rule:nonzero"/>
    <path d="M628.342 616.769c-30.589 0-57.641 24.889-60.308 55.481L459.907 1913.21c-1.287 14.77 3.257 28.64 12.796 39.04 9.485 10.35 22.798 16.05 37.486 16.05H1930.59c30.59 0 57.64-24.89 60.31-55.48l108.13-1240.96c1.28-14.774-3.26-28.64-12.8-39.047-9.49-10.346-22.8-16.044-37.49-16.044H628.342ZM1930.59 1972.78H510.189c-15.96 0-30.447-6.21-40.791-17.5-10.397-11.34-15.354-26.42-13.957-42.46L563.569 671.86c2.862-32.848 31.919-59.574 64.773-59.574H2048.74c15.96 0 30.45 6.214 40.79 17.498 10.4 11.343 15.36 26.424 13.96 42.466l-108.13 1240.96c-2.86 32.85-31.92 59.57-64.77 59.57Z"
          style="fill-rule:nonzero"/>
    <path d="M2009.3 846.927H627.677a2.242 2.242 0 0 1 0-4.483H2009.3c1.24 0 2.24 1.003 2.24 2.242 0 1.237-1 2.241-2.24 2.241Z"
          style="fill-rule:nonzero"/>
    <path d="M1067.56 1893.02h-.19a2.242 2.242 0 0 1-2.04-2.43l102.99-1181.981a2.21 2.21 0 0 1 2.42-2.038 2.236 2.236 0 0 1 2.04 2.428L1069.79 1890.98a2.24 2.24 0 0 1-2.23 2.04ZM1367.26 1883.64c-.06 0-.13-.01-.19-.01a2.242 2.242 0 0 1-2.04-2.43l102.99-1181.978c.1-1.233 1.21-2.157 2.42-2.038a2.243 2.243 0 0 1 2.04 2.427L1369.49 1881.59a2.24 2.24 0 0 1-2.23 2.05ZM784.289 1893.02h-.197a2.246 2.246 0 0 1-2.037-2.43L885.042 708.609a2.223 2.223 0 0 1 2.428-2.038 2.241 2.241 0 0 1 2.038 2.428L786.52 1890.98a2.242 2.242 0 0 1-2.231 2.04ZM1677.7 1885.99c-.07 0-.13 0-.2-.01a2.25 2.25 0 0 1-2.04-2.43l102.99-1181.977c.11-1.234 1.23-2.158 2.43-2.038a2.25 2.25 0 0 1 2.04 2.427L1679.93 1883.94a2.24 2.24 0 0 1-2.23 2.05ZM926.056 807.532h194.964l5.89-88.214H931.952l-5.896 88.214Zm197.054 4.483H923.66a2.241 2.241 0 0 1-2.236-2.391l6.195-92.697a2.24 2.24 0 0 1 2.235-2.092h199.456c.62 0 1.21.257 1.63.71.43.454.64 1.062.6 1.682l-6.19 92.696a2.246 2.246 0 0 1-2.24 2.092ZM1211.74 807.532h194.96l5.9-88.214h-194.96l-5.9 88.214Zm197.06 4.483h-199.45a2.26 2.26 0 0 1-1.64-.71 2.263 2.263 0 0 1-.6-1.681l6.2-92.697a2.23 2.23 0 0 1 2.23-2.092h199.45c.63 0 1.22.257 1.64.71.43.454.64 1.062.6 1.682l-6.19 92.696a2.246 2.246 0 0 1-2.24 2.092ZM649.755 807.532h194.96l5.895-88.214H655.65l-5.895 88.214Zm197.057 4.483H647.359a2.243 2.243 0 0 1-2.236-2.391l6.194-92.697a2.24 2.24 0 0 1 2.236-2.092h199.452c.621 0 1.213.257 1.638.71.423.454.64 1.062.599 1.682l-6.194 92.696a2.24 2.24 0 0 1-2.236 2.092ZM1821.05 807.529h194.96l5.89-88.213h-194.96l-5.89 88.213Zm197.05 4.483h-199.45c-.62 0-1.21-.258-1.63-.711a2.184 2.184 0 0 1-.6-1.68l6.19-92.697a2.246 2.246 0 0 1 2.24-2.091h199.45c.62 0 1.21.257 1.64.71.42.453.64 1.062.6 1.681l-6.2 92.696a2.246 2.246 0 0 1-2.24 2.092ZM1521.65 805.966h194.95l5.9-88.214h-194.96l-5.89 88.214Zm197.05 4.483h-199.45a2.26 2.26 0 0 1-1.64-.711 2.262 2.262 0 0 1-.6-1.681l6.2-92.697a2.236 2.236 0 0 1 2.23-2.091h199.46c.62 0 1.21.257 1.63.71.43.454.64 1.062.6 1.682l-6.19 92.696a2.246 2.246 0 0 1-2.24 2.092Z"
          style="fill-rule:nonzero"/>
    <path d="M1651.39 1882.64h-260.07l30.13-345.81h260.07l-30.13 345.81Z" style="fill:#fff;fill-rule:nonzero"/>
    <path d="M1117.42 1608.8h251.36l29.26-341.32h-251.36l-29.26 341.32Zm253.42 4.49h-255.87c-.62 0-1.22-.27-1.65-.73a2.26 2.26 0 0 1-.58-1.7l29.64-345.82c.1-1.15 1.07-2.05 2.24-2.05h255.87c.62 0 1.22.27 1.65.73.42.46.63 1.08.58 1.71l-29.65 345.81a2.227 2.227 0 0 1-2.23 2.05Z"
          style="fill-rule:nonzero"/>
    <path d="M817.453 1104.66H582.631l17.602-217.027h234.821l-17.601 217.027Z" style="fill:#fff;fill-rule:nonzero"/>
    <path d="M1773.86 1110.32c-.06 0-.12 0-.18-.01a2.24 2.24 0 0 1-2.06-2.41l17.6-217.03a2.249 2.249 0 0 1 2.24-2.059h234.82c.63 0 1.22.261 1.65.722.42.459.63 1.075.58 1.7l-9.36 115.467a2.242 2.242 0 1 1-4.47-.37l9.17-113.037h-230.33l-17.43 214.967a2.235 2.235 0 0 1-2.23 2.06ZM1724.92 1693.98h230.33l17.24-212.54h-230.33l-17.24 212.54Zm232.39 4.49h-234.82c-.62 0-1.22-.27-1.65-.73-.42-.46-.63-1.07-.58-1.7l17.6-217.02a2.235 2.235 0 0 1 2.23-2.06h234.82c.63 0 1.23.26 1.65.72.43.46.64 1.07.59 1.7l-17.6 217.03a2.252 2.252 0 0 1-2.24 2.06ZM1464.75 1107.18c-.06 0-.12 0-.19-.01a2.228 2.228 0 0 1-2.04-2.42l18.09-217.023a2.23 2.23 0 0 1 2.23-2.056h241.37c.62 0 1.22.263 1.65.724.42.462.63 1.079.58 1.704l-1.62 19.43a2.23 2.23 0 0 1-2.42 2.048 2.234 2.234 0 0 1-2.04-2.42l1.41-17.003H1484.9l-17.92 214.976a2.226 2.226 0 0 1-2.23 2.05Z"
          style="fill-rule:nonzero"/>
    <path d="M1406.36 1105.04h-243.55l18.25-217.025h243.55l-18.25 217.025Z" style="fill:#fff;fill-rule:nonzero"/>
    <path d="M780.245 1577.27H536.697a2.22 2.22 0 0 1-1.651-.73 2.242 2.242 0 0 1-.583-1.7l18.257-217.03a2.238 2.238 0 0 1 2.234-2.05h108.01c1.238 0 2.241 1 2.241 2.24 0 1.24-1.003 2.24-2.241 2.24h-105.95l-17.878 212.55h239.049l14.966-177.93a2.233 2.233 0 0 1 2.422-2.05 2.246 2.246 0 0 1 2.046 2.42l-15.14 179.98a2.24 2.24 0 0 1-2.234 2.06Z"
          style="fill-rule:nonzero"/>
    <path d="M1097.04 1318.01H853.487l18.256-217.03h243.547l-18.25 217.03Z" style="fill:#fff;fill-rule:nonzero"/>
    <path d="M1651.39 1884.88h-63.1c-1.24 0-2.24-1-2.24-2.24 0-1.24 1-2.24 2.24-2.24h61.05l29.74-341.33h-255.57l-3.78 43.3c-.1 1.24-1.21 2.17-2.42 2.04a2.236 2.236 0 0 1-2.04-2.43l3.95-45.35a2.24 2.24 0 0 1 2.23-2.04h260.07c.63 0 1.23.26 1.66.72.42.47.63 1.09.58 1.71l-30.14 345.81a2.241 2.241 0 0 1-2.23 2.05ZM821.795 1053.39c-.06 0-.121 0-.184-.01a2.238 2.238 0 0 1-2.052-2.41l13.065-161.096H721.215a2.24 2.24 0 1 1 0-4.483h113.839a2.24 2.24 0 0 1 2.234 2.423l-13.261 163.516a2.243 2.243 0 0 1-2.232 2.06ZM694.195 1106.9H582.631c-.626 0-1.223-.26-1.648-.72a2.248 2.248 0 0 1-.586-1.7L598 887.451a2.24 2.24 0 0 1 2.233-2.06h45.4a2.242 2.242 0 0 1 0 4.483h-43.332l-17.239 212.546h109.133a2.24 2.24 0 1 1 0 4.48ZM1222.72 1107.28h-59.91c-.63 0-1.23-.26-1.65-.72-.43-.46-.64-1.08-.59-1.71l18.26-217.022a2.244 2.244 0 0 1 2.23-2.054h151.56a2.24 2.24 0 0 1 2.24 2.242c0 1.237-1 2.241-2.24 2.241h-149.5l-17.87 212.543h57.47a2.25 2.25 0 0 1 2.24 2.24c0 1.24-1.01 2.24-2.24 2.24ZM864.22 1192.68c-.062 0-.125 0-.19-.01a2.234 2.234 0 0 1-2.046-2.42l7.525-89.46a2.238 2.238 0 0 1 2.234-2.05h65.227a2.24 2.24 0 1 1 0 4.48h-63.167l-7.351 87.41a2.239 2.239 0 0 1-2.232 2.05ZM1034.15 1320.25H853.487c-.627 0-1.226-.26-1.65-.72a2.262 2.262 0 0 1-.584-1.71l5.352-63.63c.103-1.23 1.158-2.16 2.422-2.04a2.24 2.24 0 0 1 2.046 2.42l-5.149 61.2h178.226c1.23 0 2.24 1 2.24 2.24 0 1.24-1.01 2.24-2.24 2.24ZM1108.44 1184.69c-.06 0-.13 0-.19-.01a2.243 2.243 0 0 1-2.05-2.42l6.65-79.04h-61.35c-1.24 0-2.24-1-2.24-2.24 0-1.24 1-2.24 2.24-2.24h63.79c.63 0 1.23.26 1.65.72.42.47.64 1.08.58 1.71l-6.85 81.47a2.24 2.24 0 0 1-2.23 2.05ZM851.237 586.826c0 139.079-112.747 251.826-251.826 251.826S347.585 725.905 347.585 586.826C347.585 447.746 460.332 335 599.411 335s251.826 112.746 251.826 251.826Z"
          style="fill-rule:nonzero"/>
    <path d="M826.159 586.907c0 125.409-101.664 227.073-227.073 227.073S372.013 712.316 372.013 586.907s101.664-227.073 227.073-227.073 227.073 101.664 227.073 227.073Z"
          style="fill:#fff;fill-rule:nonzero"/>
    <path d="M779.778 710.684a2.241 2.241 0 0 1-1.855-3.496 215.643 215.643 0 0 0 17.094-30.334 2.242 2.242 0 0 1 4.071 1.877 220.253 220.253 0 0 1-17.45 30.966 2.241 2.241 0 0 1-1.86.987ZM814.563 621.284a2.242 2.242 0 0 1-2.221-2.571 217.877 217.877 0 0 0 2.346-31.887c0-81.96-47.68-158.039-121.471-193.819a2.243 2.243 0 0 1-1.039-2.995 2.246 2.246 0 0 1 2.996-1.039c36.604 17.75 67.559 45.284 89.518 79.629 22.557 35.276 34.478 76.157 34.478 118.224 0 10.896-.805 21.846-2.393 32.546a2.241 2.241 0 0 1-2.214 1.912ZM545.357 378.317a2.24 2.24 0 0 1-.553-4.412c33.414-8.546 69.351-9.057 103.009-1.491a2.242 2.242 0 0 1-.983 4.374c-32.973-7.412-68.186-6.911-100.916 1.46a2.283 2.283 0 0 1-.557.069ZM400.277 501.411a2.246 2.246 0 0 1-2.05-3.147c10.594-24.034 25.296-45.805 43.695-64.708a2.242 2.242 0 0 1 3.213 3.127c-18.026 18.518-32.428 39.845-42.806 63.389a2.244 2.244 0 0 1-2.052 1.339ZM483.155 772.946c-.41 0-.825-.113-1.197-.348a220.569 220.569 0 0 1-49.596-42.977 2.241 2.241 0 1 1 3.406-2.913 216.196 216.196 0 0 0 48.589 42.104 2.24 2.24 0 0 1-1.202 4.134Z"
          style="fill-rule:nonzero"/>
    <path d="M781.738 520.396c-27.124-74.428-98.518-127.573-182.327-127.573-.088 0-.175.003-.264.004l.264 190.274 182.327-62.705Z"
          style="fill:#007CBD;fill-rule:nonzero"/>
    <path d="M611.247 391.974c0 6.536-5.299 11.835-11.836 11.835s-11.836-5.299-11.836-11.835c0-6.537 5.299-11.836 11.836-11.836s11.836 5.299 11.836 11.836Z"
          style="fill:#fff;fill-rule:nonzero"/>
    <path d="M599.411 382.379c-5.29 0-9.595 4.305-9.595 9.595 0 5.291 4.305 9.594 9.595 9.594 5.291 0 9.594-4.303 9.594-9.594 0-5.29-4.303-9.595-9.594-9.595Zm0 23.672c-7.763 0-14.078-6.315-14.078-14.077 0-7.763 6.315-14.078 14.078-14.078 7.762 0 14.077 6.315 14.077 14.078 0 7.762-6.315 14.077-14.077 14.077Z"
          style="fill-rule:nonzero"/>
    <path d="M611.247 781.678c0 6.537-5.299 11.836-11.836 11.836s-11.836-5.299-11.836-11.836c0-6.536 5.299-11.836 11.836-11.836s11.836 5.3 11.836 11.836Z"
          style="fill:#fff;fill-rule:nonzero"/>
    <path d="M599.411 772.083c-5.29 0-9.595 4.304-9.595 9.595 0 5.29 4.305 9.595 9.595 9.595 5.291 0 9.594-4.305 9.594-9.595 0-5.291-4.303-9.595-9.594-9.595Zm0 23.673c-7.763 0-14.078-6.316-14.078-14.078s6.315-14.077 14.078-14.077c7.762 0 14.077 6.315 14.077 14.077s-6.315 14.078-14.077 14.078Z"
          style="fill-rule:nonzero"/>
    <path d="M404.559 574.99c6.536 0 11.836 5.299 11.836 11.836 0 6.536-5.3 11.836-11.836 11.836-6.537 0-11.836-5.3-11.836-11.836 0-6.537 5.299-11.836 11.836-11.836Z"
          style="fill:#fff;fill-rule:nonzero"/>
    <path d="M404.559 577.232c-5.291 0-9.595 4.303-9.595 9.594 0 5.291 4.304 9.594 9.595 9.594 5.29 0 9.593-4.303 9.593-9.594 0-5.291-4.303-9.594-9.593-9.594Zm0 23.671c-7.763 0-14.078-6.315-14.078-14.077s6.315-14.077 14.078-14.077c7.761 0 14.076 6.315 14.076 14.077s-6.315 14.077-14.076 14.077Z"
          style="fill-rule:nonzero"/>
    <path d="M794.263 574.99c6.537 0 11.836 5.299 11.836 11.836 0 6.536-5.299 11.836-11.836 11.836-6.536 0-11.835-5.3-11.835-11.836 0-6.537 5.299-11.836 11.835-11.836Z"
          style="fill:#fff;fill-rule:nonzero"/>
    <path d="M794.263 577.232c-5.29 0-9.594 4.303-9.594 9.594 0 5.291 4.304 9.594 9.594 9.594 5.291 0 9.594-4.303 9.594-9.594 0-5.291-4.303-9.594-9.594-9.594Zm0 23.671c-7.762 0-14.077-6.315-14.077-14.077s6.315-14.077 14.077-14.077 14.077 6.315 14.077 14.077-6.315 14.077-14.077 14.077Z"
          style="fill-rule:nonzero"/>
    <path d="M507.44 414.93a6.299 6.299 0 1 1-10.91 6.298 6.299 6.299 0 0 1 10.91-6.298Z"
          style="fill:#fff;fill-rule:nonzero"/>
    <path d="M501.978 414.02a4.062 4.062 0 0 0-3.507 6.088 4.064 4.064 0 0 0 5.542 1.484 4.028 4.028 0 0 0 1.892-2.464 4.033 4.033 0 0 0-.406-3.077 4.029 4.029 0 0 0-2.464-1.891 4.03 4.03 0 0 0-1.057-.14Zm.021 12.597a8.55 8.55 0 0 1-7.41-4.266c-2.355-4.08-.952-9.314 3.126-11.668a8.47 8.47 0 0 1 6.48-.853 8.483 8.483 0 0 1 5.187 3.979 8.488 8.488 0 0 1 .852 6.481 8.486 8.486 0 0 1-3.979 5.185 8.49 8.49 0 0 1-4.256 1.142Z"
          style="fill-rule:nonzero"/>
    <path d="M427.515 678.797a6.299 6.299 0 1 1 6.298 10.91 6.299 6.299 0 0 1-6.298-10.91Z"
          style="fill:#fff;fill-rule:nonzero"/>
    <path d="M430.657 680.196c-.689 0-1.385.175-2.022.543a4.028 4.028 0 0 0-1.891 2.463 4.033 4.033 0 0 0 .406 3.079 4.062 4.062 0 0 0 5.542 1.485 4.034 4.034 0 0 0 1.891-2.465 4.028 4.028 0 0 0-.405-3.077 4.06 4.06 0 0 0-3.521-2.028Zm.022 12.595a8.547 8.547 0 0 1-7.411-4.268c-2.355-4.08-.952-9.314 3.126-11.668 4.072-2.354 9.31-.953 11.666 3.127a8.484 8.484 0 0 1 .853 6.48 8.486 8.486 0 0 1-3.979 5.186 8.492 8.492 0 0 1-4.255 1.143Z"
          style="fill-rule:nonzero"/>
    <path d="M765.008 483.945a6.298 6.298 0 1 1 6.299 10.909 6.3 6.3 0 0 1-6.299-10.909Z"
          style="fill:#fff;fill-rule:nonzero"/>
    <path d="M765.008 483.945h.022-.022Zm3.144 1.396c-.704 0-1.398.184-2.023.545v.001a4.026 4.026 0 0 0-1.89 2.462 4.026 4.026 0 0 0 .405 3.078 4.033 4.033 0 0 0 2.464 1.892 4.04 4.04 0 0 0 3.078-.406 4.033 4.033 0 0 0 1.892-2.463 4.038 4.038 0 0 0-.407-3.079 4.031 4.031 0 0 0-2.463-1.891 4.101 4.101 0 0 0-1.056-.139Zm.02 12.602a8.605 8.605 0 0 1-2.225-.294 8.484 8.484 0 0 1-5.185-3.98 8.486 8.486 0 0 1-.854-6.48 8.482 8.482 0 0 1 3.98-5.184 8.457 8.457 0 0 1 6.481-.854 8.489 8.489 0 0 1 5.186 3.978 8.492 8.492 0 0 1 .852 6.482 8.486 8.486 0 0 1-3.979 5.185 8.486 8.486 0 0 1-4.256 1.147Z"
          style="fill-rule:nonzero"/>
    <path d="M433.813 483.945a6.299 6.299 0 1 1-6.298 10.91 6.299 6.299 0 0 1 6.298-10.91Z"
          style="fill:#fff;fill-rule:nonzero"/>
    <path d="M430.671 485.344c-1.403 0-2.77.727-3.522 2.028a4.034 4.034 0 0 0-.405 3.078 4.028 4.028 0 0 0 1.891 2.463 4.064 4.064 0 0 0 5.544-1.485c.54-.938.685-2.032.404-3.077a4.03 4.03 0 0 0-1.891-2.464v-.001a4.03 4.03 0 0 0-2.021-.542Zm-.022 12.594a8.49 8.49 0 0 1-4.255-1.142c-4.078-2.354-5.481-7.588-3.127-11.667 2.357-4.078 7.591-5.481 11.667-3.124a8.485 8.485 0 0 1 3.979 5.184 8.487 8.487 0 0 1-.852 6.48 8.55 8.55 0 0 1-7.412 4.269Z"
          style="fill-rule:nonzero"/>
    <path d="M771.307 678.797a6.299 6.299 0 1 1-6.299 10.91 6.299 6.299 0 0 1 6.299-10.91Z"
          style="fill:#fff;fill-rule:nonzero"/>
    <path d="M768.165 680.194c-.352 0-.707.046-1.057.139a4.03 4.03 0 0 0-2.463 1.891 4.024 4.024 0 0 0-.406 3.079 4.026 4.026 0 0 0 1.89 2.462 4.026 4.026 0 0 0 3.079.406 4.026 4.026 0 0 0 2.463-1.89 4.038 4.038 0 0 0 .407-3.079 4.033 4.033 0 0 0-1.892-2.463 4.018 4.018 0 0 0-2.021-.545Zm-.021 12.602a8.475 8.475 0 0 1-4.256-1.149 8.479 8.479 0 0 1-3.98-5.185 8.486 8.486 0 0 1 .855-6.481 8.484 8.484 0 0 1 5.184-3.978 8.483 8.483 0 0 1 6.481.852 8.491 8.491 0 0 1 3.979 5.186 8.489 8.489 0 0 1-.852 6.481 8.482 8.482 0 0 1-5.186 3.978 8.522 8.522 0 0 1-2.225.296Z"
          style="fill-rule:nonzero"/>
    <path d="M496.53 752.423a6.298 6.298 0 1 1 2.305 8.605 6.3 6.3 0 0 1-2.305-8.605Z"
          style="fill:#fff;fill-rule:nonzero"/>
    <path d="M498.47 753.545a4.062 4.062 0 0 0 1.487 5.541 4.06 4.06 0 0 0 5.542-1.485 4.035 4.035 0 0 0 .406-3.078 4.028 4.028 0 0 0-1.892-2.463 4.065 4.065 0 0 0-5.543 1.485Zm3.5 10.566a8.488 8.488 0 0 1-4.255-1.142c-4.078-2.354-5.481-7.588-3.127-11.667l.001-.001c2.356-4.075 7.587-5.476 11.666-3.124a8.486 8.486 0 0 1 3.979 5.185 8.489 8.489 0 0 1-.852 6.481 8.55 8.55 0 0 1-7.412 4.268Z"
          style="fill-rule:nonzero"/>
    <path d="M691.382 414.93a6.299 6.299 0 1 1 10.91 6.299 6.299 6.299 0 0 1-10.91-6.299Z"
          style="fill:#fff;fill-rule:nonzero"/>
    <path d="M691.382 414.929h.022-.022Zm5.462-.909c-.353 0-.707.045-1.056.14a4.028 4.028 0 0 0-2.464 1.89 4.031 4.031 0 0 0-.406 3.078 4.028 4.028 0 0 0 1.89 2.464 4.06 4.06 0 0 0 5.543-1.484 4.06 4.06 0 0 0-3.507-6.088Zm-.021 12.597a8.488 8.488 0 0 1-4.257-1.142 8.487 8.487 0 0 1-3.978-5.185 8.476 8.476 0 0 1 .854-6.481 8.48 8.48 0 0 1 5.184-3.979 8.468 8.468 0 0 1 6.482.854 8.484 8.484 0 0 1 3.978 5.184 8.488 8.488 0 0 1-.853 6.482 8.547 8.547 0 0 1-7.41 4.267Z"
          style="fill-rule:nonzero"/>
    <path d="M691.382 755.364a6.299 6.299 0 1 1 10.91 6.3 6.299 6.299 0 0 1-10.91-6.3Z"
          style="fill:#fff;fill-rule:nonzero"/>
    <path d="M691.382 755.364h.022-.022Zm5.462-.91c-.353 0-.707.046-1.056.14a4.032 4.032 0 0 0-2.464 1.89 4.034 4.034 0 0 0-.406 3.079 4.028 4.028 0 0 0 1.89 2.464 4.035 4.035 0 0 0 3.079.406 4.032 4.032 0 0 0 2.464-1.891 4.03 4.03 0 0 0 .405-3.078 4.032 4.032 0 0 0-1.891-2.464 4.032 4.032 0 0 0-2.021-.546Zm-.021 12.597a8.497 8.497 0 0 1-4.257-1.141 8.484 8.484 0 0 1-3.978-5.185 8.479 8.479 0 0 1 .854-6.482 8.479 8.479 0 0 1 5.184-3.978 8.462 8.462 0 0 1 6.482.854 8.484 8.484 0 0 1 3.978 5.184 8.483 8.483 0 0 1-.853 6.48 8.542 8.542 0 0 1-7.41 4.268Z"
          style="fill-rule:nonzero"/>
    <path d="M673.964 575.571c-56.922 19.727-74.819 19.254-77.367 11.902-2.548-7.352 11.218-18.799 68.14-38.526 40.688-14.101 93.716-24.859 120.652-29.848 4.112-.762 5.525 3.314 1.823 5.26-24.247 12.749-72.56 37.111-113.248 51.212Z"
          style="fill:#fff;fill-rule:nonzero"/>
    <path d="M786.363 521.246c-.16 0-.349.016-.566.056-27.634 5.119-80.015 15.792-120.326 29.763-61.459 21.3-68.205 31.494-66.756 35.673 1.451 4.182 13.055 8.014 74.515-13.285 40.323-13.974 88.067-37.999 112.938-51.078.762-.401.961-.829.944-.931-.035-.064-.278-.198-.749-.198Zm-178.629 73.107c-9.153 0-12.122-2.878-13.255-6.146-2.489-7.184 3.164-18.379 69.523-41.378 40.59-14.067 93.219-24.794 120.979-29.935 3.432-.635 5.676 1.091 6.368 3.085.691 1.995.002 4.737-3.095 6.364-24.983 13.137-72.956 37.275-113.555 51.345-36.166 12.534-56.001 16.665-66.965 16.665Z"
          style="fill-rule:nonzero"/>
    <path d="M619.187 525.782c1.331 38.289-6.293 49.217-16.154 49.559-9.861.343-18.225-10.028-19.556-48.318-.952-27.37 6.986-61.772 11.592-79.167.703-2.656 6.17-2.846 7.056-.245 5.802 17.034 16.111 50.801 17.062 78.171Z"
          style="fill:#fff;fill-rule:nonzero"/>
    <path d="m598.724 448-.117.002c-.803.028-1.306.328-1.38.448-4.695 17.746-12.446 51.572-11.511 78.495.608 17.456 2.749 30.161 6.365 37.761 2.762 5.807 6.319 8.542 10.874 8.395 4.555-.158 7.913-3.145 10.266-9.129 3.079-7.833 4.333-20.656 3.726-38.113-.935-26.918-11.017-60.127-16.944-77.526-.067-.09-.543-.333-1.279-.333Zm3.835 129.591c-6.182 0-11.066-3.684-14.527-10.959-3.935-8.273-6.158-21.203-6.796-39.531-.956-27.499 6.899-61.813 11.665-79.819.58-2.188 2.759-3.663 5.549-3.761 2.82-.101 5.067 1.226 5.797 3.366 6.006 17.635 16.225 51.323 17.18 78.817.637 18.328-.683 31.381-4.034 39.907-3.035 7.719-7.839 11.746-14.283 11.97-.184.006-.368.01-.551.01Z"
          style="fill-rule:nonzero"/>
    <path d="M626.644 585.307c0 13.858-11.234 25.091-25.091 25.091-13.858 0-25.091-11.233-25.091-25.091 0-13.857 11.233-25.091 25.091-25.091 13.857 0 25.091 11.234 25.091 25.091Z"
          style="fill:#fff;fill-rule:nonzero"/>
    <path d="M601.553 562.458c-12.599 0-22.85 10.25-22.85 22.849s10.251 22.85 22.85 22.85c12.599 0 22.849-10.251 22.849-22.85 0-12.599-10.25-22.849-22.849-22.849Zm0 50.182c-15.072 0-27.333-12.262-27.333-27.333 0-15.071 12.261-27.332 27.333-27.332 15.071 0 27.332 12.261 27.332 27.332 0 15.071-12.261 27.333-27.332 27.333Z"
          style="fill-rule:nonzero"/>
    <path d="M380.314 1990.18c-92.972-85.7-44.847-140.98-44.847-140.98s41.532-67.28 187.278 20.68c145.749 87.96 286.823 55.26 318.726 42.08 31.903-13.19 143.379-96.07 206.199-100.73 34.95-2.59 76.79 23.7 40.09 94.74-75.9 146.91-282.032 163.67-282.032 163.67s-99.923 18.77-202.572.59c0 0-129.869 5.65-222.842-80.05Z"
          style="fill:#fff;fill-rule:nonzero"/>
    <path d="M603.157 2067.98c.131 0 .261.02.39.04 101.041 17.9 200.772-.4 201.767-.58a.917.917 0 0 1 .232-.03c.513-.05 52.02-4.45 112.069-26.66 55.262-20.44 129.295-60.6 168.155-135.81 19.95-38.61 14.92-60.65 7.19-72.35-10.43-15.79-30.14-20.22-45.12-19.12-43.29 3.21-109.587 43.79-157.992 73.42-21.07 12.9-37.712 23.08-47.521 27.14-16.666 6.88-60.205 18.23-117.573 17.06-72.058-1.47-140.413-21.42-203.166-59.29-74.364-44.88-120.581-48.22-146.256-43.13-27.519 5.46-37.86 21.55-37.961 21.72-.061.09-.136.19-.211.28-.116.14-11.606 13.71-11.898 37.24-.27 21.86 9.324 57.07 56.571 100.62 91.189 84.06 219.943 79.51 221.226 79.46.033 0 .065-.01.098-.01Zm95.919 12.37c-29.586 0-62.745-1.99-96.078-7.88-6.571.21-133.578 2.89-224.203-80.64-48.636-44.83-58.391-81.47-58.01-104.31.401-24.05 11.522-38.04 12.874-39.65 1.214-1.87 12.266-17.79 40.344-23.51 38.527-7.85 88.96 6.82 149.901 43.6 62.072 37.46 129.679 57.19 200.942 58.65 56.65 1.14 99.425-9.97 115.769-16.73 9.482-3.92 26.818-14.53 46.893-26.82 48.796-29.87 115.622-70.77 159.992-74.06 16.25-1.21 37.7 3.71 49.2 21.12 8.39 12.7 14 36.34-6.95 76.88-39.54 76.52-114.645 117.28-170.692 138-59.206 21.88-110.219 26.62-113.031 26.86-2.631.48-47.558 8.48-106.951 8.49Z"
          style="fill-rule:nonzero"/>
    <path d="m621.581 2007.73 32.921 18.42-16.437 34.16-27.252-17.45 10.768-35.13Z"
          style="fill:#fff;fill-rule:nonzero"/>
    <path d="m613.455 2041.89 23.688 15.16 14.427-29.97-28.661-16.04-9.454 30.85Zm24.61 20.66a2.19 2.19 0 0 1-1.208-.36l-27.252-17.44a2.255 2.255 0 0 1-.935-2.55l10.768-35.13a2.247 2.247 0 0 1 3.237-1.3l32.922 18.42c1.033.58 1.44 1.86.925 2.93l-16.438 34.16a2.21 2.21 0 0 1-1.407 1.18c-.201.06-.407.09-.612.09Z"
          style="fill-rule:nonzero"/>
    <path d="M641.582 2021.8c3.811-4.92 11.252-4.86 14.945.15l15.98 21.68-21.589 27.81-28.588-13.15c1.964-12.33 11.966-27.09 19.252-36.49Z"
          style="fill-rule:nonzero"/>
    <path d="m638.265 2044.87 8.728-8.83a9.663 9.663 0 0 1 11.874-1.47l6.205 3.77 1.335-2.89a6.744 6.744 0 0 1 8.264-3.58c19.911 6.65 86.049 29.44 108.172 45.83 26.167 19.38 7.584 62.51-38.052 58.11-36.167-3.48-85.597-43.81-104.554-60.4-3.726-3.26-2.785-9.28 1.748-11.27l.046-.02-4.827-6.95a9.656 9.656 0 0 1 1.061-12.3Z"
          style="fill:#fff;fill-rule:nonzero"/>
    <path d="M639.859 2046.45a7.412 7.412 0 0 0-.816 9.44l4.828 6.95c.378.54.496 1.22.323 1.86a2.25 2.25 0 0 1-1.221 1.45c-1.536.68-2.506 1.94-2.745 3.5-.239 1.55.302 3.03 1.484 4.07 19.271 16.86 67.913 56.45 103.293 59.86 26.202 2.53 40.976-10.81 45.659-22.99 4.483-11.68.976-23.59-9.155-31.09-21.85-16.19-87.842-38.92-107.548-45.51a4.511 4.511 0 0 0-5.52 2.4l-1.335 2.89a2.244 2.244 0 0 1-1.38 1.2c-.61.19-1.27.1-1.816-.23l-6.205-3.76a7.4 7.4 0 0 0-9.118 1.13l-8.728 8.83Zm111.498 91.93c-2.179 0-4.439-.11-6.781-.33-36.677-3.54-86.219-43.81-105.816-60.96a8.934 8.934 0 0 1-2.964-8.12 8.957 8.957 0 0 1 3.059-5.49l-3.492-5.03a11.896 11.896 0 0 1 1.307-15.15l8.728-8.83a11.846 11.846 0 0 1 14.632-1.81l4.06 2.46.283-.61a8.988 8.988 0 0 1 11.009-4.77c19.863 6.64 86.414 29.57 108.796 46.15 11.82 8.76 15.907 22.67 10.67 36.3-4.818 12.54-18.973 26.19-43.491 26.19Z"
          style="fill-rule:nonzero"/>
    <path d="M695.028 2094.24c-.323 0-.651-.07-.962-.22a2.235 2.235 0 0 1-1.062-2.98l14.783-31.09a2.243 2.243 0 0 1 4.049 1.93l-14.782 31.08a2.239 2.239 0 0 1-2.026 1.28ZM763.528 2007.24c-.622 0-1.239-.26-1.683-.76l-4.832-5.48a2.254 2.254 0 0 1-.55-1.7c.059-.62.371-1.18.862-1.56l153.693-118.6a2.249 2.249 0 0 1 3.144.41c.755.98.575 2.39-.406 3.14l-151.798 117.14 3.25 3.68c.818.93.73 2.35-.2 3.17-.425.37-.954.56-1.48.56Z"
          style="fill-rule:nonzero"/>
    <path d="m768.825 2014.58-66.907 24.02 10.589 36.4 80.771-22.03-24.453-38.39Z" style="fill:#fff;fill-rule:nonzero"/>
    <path d="m704.658 2040 9.385 32.25 75.71-20.64-21.857-34.32-63.238 22.71Zm7.847 37.24c-.973 0-1.866-.64-2.15-1.62l-10.589-36.39a2.243 2.243 0 0 1 1.394-2.74l66.907-24.02c.983-.35 2.085.02 2.648.91l24.453 38.39a2.237 2.237 0 0 1-1.3 3.36l-80.772 22.03c-.197.05-.396.08-.591.08Z"
          style="fill-rule:nonzero"/>
    <path d="M715.379 2036.43c-2.949-5.47-10.299-6.64-14.766-2.3l-19.332 18.75 16.715 30.98 30.363-8.26c.094-12.49-7.341-28.69-12.98-39.17Z"
          style="fill-rule:nonzero"/>
    <path d="m714.851 2059.74-7.155-10.15a9.652 9.652 0 0 0-11.47-3.4l-6.74 2.69-.841-3.07a6.746 6.746 0 0 0-7.562-4.89c-20.734 3.28-89.722 14.87-114.242 27.39-29.001 14.81-17.774 60.41 27.964 63.59 36.247 2.52 91.643-29.13 113.073-42.37 4.212-2.6 4.275-8.69.132-11.4l-.042-.03 5.904-6.05a9.66 9.66 0 0 0 .979-12.31Z"
          style="fill:#fff;fill-rule:nonzero"/>
    <path d="M682.141 2043.08c-.233 0-.47.01-.707.05-20.522 3.25-89.361 14.81-113.574 27.18-11.228 5.73-16.649 16.9-14.148 29.15 2.613 12.79 14.982 28.38 41.248 30.2 1.34.1 2.713.14 4.104.14 35.43.01 86.673-29.22 107.636-42.17a4.444 4.444 0 0 0 2.137-3.78 4.433 4.433 0 0 0-2.053-3.84 2.299 2.299 0 0 1-1.024-1.65c-.073-.66.135-1.34.603-1.82l5.905-6.06a7.417 7.417 0 0 0 .751-9.45l-7.155-10.14a7.384 7.384 0 0 0-8.807-2.62l-6.741 2.69c-.59.24-1.258.21-1.83-.08a2.212 2.212 0 0 1-1.162-1.41l-.84-3.07a4.506 4.506 0 0 0-4.343-3.32Zm-83.161 91.2c-1.471 0-2.912-.04-4.331-.14-28.775-2-42.402-19.45-45.329-33.78-2.922-14.31 3.402-27.36 16.503-34.05 24.8-12.66 94.223-24.33 114.91-27.61 4.517-.71 8.858 2.09 10.074 6.52l.178.65 4.411-1.76a11.852 11.852 0 0 1 14.132 4.19l7.155 10.15a11.897 11.897 0 0 1-1.206 15.16l-4.275 4.39a8.913 8.913 0 0 1 2.116 5.91 8.936 8.936 0 0 1-4.262 7.53c-21.3 13.16-73.423 42.84-110.076 42.84Z"
          style="fill-rule:nonzero"/>
    <path d="M651.1 2099.12a2.24 2.24 0 0 1-2.154-1.63l-9.462-33.09a2.242 2.242 0 0 1 1.539-2.77 2.233 2.233 0 0 1 2.771 1.54l9.462 33.09a2.24 2.24 0 0 1-1.539 2.77c-.205.06-.413.09-.617.09ZM597.41 2124.61c-.407 0-.818-.11-1.188-.34-36.82-23.05-22.197-52.92-22.044-53.22a2.24 2.24 0 1 1 3.999 2.02c-.543 1.09-12.826 26.58 20.425 47.4a2.244 2.244 0 0 1 .71 3.09 2.238 2.238 0 0 1-1.902 1.05ZM623.66 2001.76c-.148 0-.298-.02-.449-.05a2.243 2.243 0 0 1-1.75-2.64l2.049-10.09c-6.524-5.2-42.621-33.79-100.047-76.02-63.305-46.56-77.17-56.09-77.303-56.18a2.24 2.24 0 1 1 2.531-3.7c.134.09 14 9.62 77.427 56.26 63.436 46.66 100.894 76.7 101.265 77 .654.52.96 1.37.793 2.19l-2.322 11.43a2.248 2.248 0 0 1-2.194 1.8ZM952.646 1778.45c-4.779-21.39-35.289-100.27-58.297-158.37-18.362-46.38-62.752-79.82-115.596-86.54-39.333-5.01-81.976-6.02-122.98-2.79-68.372 5.39-127.094 47.24-149.71 107.23-20.368 54.04-42.569 120.38-43.071 153.98-.535 35.8 21.094 70.01 44.7 96.58 29.778 33.51 72.258 54.4 118.133 58.65 65.539 6.07 167.804 12.15 214.257-3.02 71.238-23.28 124.129-113.95 112.564-165.72Z"
          style="fill-rule:nonzero"/>
    <path d="M860.413 1673.82H550.747c-14.054 0-25.445 11.39-25.445 25.44v204.75c0 14.05 11.391 25.44 25.445 25.44h309.666c14.052 0 25.443-11.39 25.443-25.44v-204.75c0-14.05-11.391-25.44-25.443-25.44Z"
          style="fill:#fff;fill-rule:nonzero"/>
    <path d="M550.747 1676.06c-12.794 0-23.203 10.41-23.203 23.2v204.75c0 12.79 10.409 23.2 23.203 23.2h309.666c12.793 0 23.201-10.41 23.201-23.2v-204.75c0-12.79-10.408-23.2-23.201-23.2H550.747Zm309.666 255.64H550.747c-15.266 0-27.687-12.42-27.687-27.69v-204.75c0-15.26 12.421-27.68 27.687-27.68h309.666c15.265 0 27.684 12.42 27.684 27.68v204.75c0 15.27-12.419 27.69-27.684 27.69Z"
          style="fill-rule:nonzero"/>
    <path d="M880.927 1930.69H524.952c-8.848 0-16.017 7.17-16.017 16.01 0 8.85 7.169 16.02 16.017 16.02h355.975c8.848 0 16.019-7.17 16.019-16.02 0-8.84-7.171-16.01-16.019-16.01Z"
          style="fill:#fff;fill-rule:nonzero"/>
    <path d="M524.953 1932.93c-7.597 0-13.778 6.18-13.778 13.77 0 7.6 6.181 13.78 13.778 13.78h355.974c7.598 0 13.778-6.18 13.778-13.78 0-7.59-6.18-13.77-13.778-13.77H524.953Zm355.974 32.03H524.953c-10.07 0-18.261-8.19-18.261-18.26 0-10.07 8.191-18.26 18.261-18.26h355.974c10.069 0 18.261 8.19 18.261 18.26 0 10.07-8.192 18.26-18.261 18.26Z"
          style="fill-rule:nonzero"/>
    <path d="m732.966 1532.31 3.335-47.27c2.259-.16 3.82-.25 4.279-.26 13.188-.15 17.472-4.42 18.608-15.25.709-6.78.96-16.84-2.343-29.43-.352-1.34-.275-2.77.27-4.05l2.254-5.28a4.586 4.586 0 0 0-1.52-4.73l-1.201-.99c-4.3-3.53-7.877-7.86-10.745-12.67-2.639-4.43-7.124-12.73-10.199-14.2-8.664-4.14-43.82-22.53-63.471 9.6-15.321 25.06 9.715 59.55 18.812 70.85 2.2 2.73-14.853 56.29-14.853 56.29l-22.048 5.33s17.014 30.21 68.688 17.72c36.799-8.9 30.953-22.59 30.953-22.59l-20.819-3.07Z"
          style="fill:#fff;fill-rule:nonzero"/>
    <path d="M657.849 1541.66c5.34 6.77 23.498 24.03 64.456 14.13 19.682-4.76 26.434-10.69 28.633-14.83.802-1.51.966-2.76.946-3.6l-19.245-2.83a2.246 2.246 0 0 1-1.909-2.38l3.335-47.27c.079-1.11.966-2 2.081-2.07 2.326-.17 3.934-.26 4.407-.27 12.864-.15 15.458-4.21 16.405-13.25 1.004-9.58.258-18.94-2.281-28.62a8.558 8.558 0 0 1 .376-5.5l2.183-5.11c.175-.84-.14-1.74-.808-2.29l-1.203-.99c-4.339-3.56-8.124-8.02-11.247-13.26l-1.196-2.03c-2.101-3.61-6.014-10.32-8.044-11.29l-.944-.45c-10.31-4.99-41.697-20.15-59.649 9.2-14.15 23.14 8.326 55.46 18.646 68.28.884 1.09 2.955 3.67-14.463 58.37a2.23 2.23 0 0 1-1.609 1.5l-18.87 4.56ZM699 1563.27c-33.997.01-46.207-20.85-46.81-21.92a2.248 2.248 0 0 1 1.427-3.28l20.822-5.03c7.445-23.48 14.725-49.16 14.573-53.36-11.038-13.8-34.191-47.72-18.691-73.06 13.314-21.78 35.325-25.45 65.424-10.91l.926.44c3.034 1.45 6.183 6.56 9.984 13.08l1.174 2c2.856 4.79 6.301 8.86 10.239 12.09l1.203.98a6.836 6.836 0 0 1 2.261 7.06c-.027.1-.061.2-.101.29l-2.254 5.28c-.338.8-.396 1.72-.164 2.61 2.678 10.21 3.465 20.09 2.404 30.22-1.303 12.43-6.944 17.1-20.812 17.26-.296.01-1.071.05-2.206.13l-3.05 43.25 18.763 2.76c.77.11 1.429.62 1.734 1.34.158.37 1.476 3.74-.796 8.27-3.681 7.33-14.344 13.18-31.692 17.38-9.138 2.21-17.23 3.12-24.358 3.12Z"
          style="fill-rule:nonzero"/>
    <path d="M683.067 1366.92c9.529-2.05 20.478-.59 25.101-2.29 7.458-2.74 7.665-11.67 17.982-14.18 12.491-3.04 17.702 2.29 22.586 9.73.814 1.24 1.53 2.62 2.116 4.19 7.852 21.06-2.061 31.33-6.476 34.67 0 0-28.099 14.52-32.909 18.67-4.5 3.88-9.693 13.06-6.427 26.27.421 1.7-.321 3.47-1.762 4.34-1.69 1.02-3.877.53-5.035-1.15-3.652-5.3-11.635-15.54-17.314-13.11-7.135 3.04-4.912 24.43 10.829 26.9 4.831.75 8.762 5.7 8.284 10.76-.312 3.3-3.424 7.31-8.053 8.37-2.822.65-5.611-.49-8.098-2.08-10.272-6.55-39.247-34.37-42.847-59.3-4.336-30.03 29.344-49.06 42.023-51.79ZM739.85 1486.81h-.083c-.479-.02-11.823-.52-20.003-7.46a2.242 2.242 0 0 1 2.902-3.42c6.972 5.92 17.167 6.39 17.269 6.4a2.236 2.236 0 0 1 2.152 2.32 2.241 2.241 0 0 1-2.237 2.16ZM1844.9 1047.9c1.72-10.7-1.09-13.47 1.44-22.91 2.24-8.39 6.56-18.39 14.86-26.819 1.54-1.565 13.21-13.215 30.35-16.002 40.96-6.659 79.51 18.731 91.96 32.921 11.13 12.68 13.39 36.79 21.84 44.69 25.72 24.06 44.47 17.49 65.7 38.27 15.31 14.98 20.61 33.12 23.11 41.65 2.1 7.18 6.85 26.32.43 57.98-9.3 45.86-27.3 45.3-34.23 80.06-8.76 43.94 17.23 58.72 5.1 92.58-9.52 26.6-36.44 47.91-65.92 49.51-57.59 3.13-94.32-70.42-95.78-75.15-6.1-19.93-17.58-29.44 4.36-82.61 13.72-33.25 2.62-79.04-8.97-90.47-9.41-9.28-56.85 25.05-76.74-24.85-3.78-9.5-8.68-16.58-9.51-24.27-1.16-10.8 4.41-14.85 21.53-48.14 7.05-13.69 9.26-18.92 10.47-26.44Z"
          style="fill-rule:nonzero"/>
    <path d="M2045.1 1945.06s27.57 36.57 25.6 60.62l.55 9.31 57.54-52.36-8.03-3.25c-12.74-8.71-26.19-13.88-33.59-27.42l-42.07 13.1Z"
          style="fill:#fff;fill-rule:nonzero"/>
    <path d="m2072.94 2005.71.27 4.47 51.44-46.8-4.74-1.92a2.82 2.82 0 0 1-.42-.23c-3.11-2.12-6.3-4.06-9.39-5.94-9.29-5.63-18.09-10.97-23.97-20.66l-37.38 11.64c6.27 8.84 25.81 38.29 24.19 59.44Zm-1.69 11.52c-.28 0-.57-.05-.84-.16a2.24 2.24 0 0 1-1.39-1.94l-.56-9.31a1.71 1.71 0 0 1 0-.32c1.88-22.94-24.88-58.73-25.15-59.09-.44-.58-.57-1.34-.34-2.04.22-.69.77-1.23 1.47-1.45l42.07-13.1c1.01-.32 2.12.13 2.63 1.06 5.28 9.66 14.02 14.96 23.28 20.58 3.08 1.87 6.26 3.79 9.4 5.93l7.81 3.17c.72.29 1.23.92 1.37 1.68.13.76-.13 1.53-.7 2.05l-57.54 52.36c-.42.38-.96.58-1.51.58Z"
          style="fill-rule:nonzero"/>
    <path d="m2060.81 1993.69.89 11.33c1.77 22.45-1.95 45-10.84 65.69l-6.83 15.9c-.65 1.52-.51 3.25.38 4.64l.45.71c5.01 7.85 27.11 14.62 55.06-4.33 17.3-11.72 52.37-44.28 76.35-101.15a8.87 8.87 0 0 0-2.46-10.26c-10.89-9.14-37.76-29.99-58.73-32.32-2.33-.26-4.4 1.49-4.42 3.83l-.2 22.57c-.09 10.13-8.4 18.26-18.52 18.12l-25.87-.34a5.203 5.203 0 0 0-5.26 5.61Z"
          style="fill:#fff;fill-rule:nonzero"/>
    <path d="m2063.05 1993.51.89 11.34c1.78 22.72-2.03 45.8-11.02 66.74l-6.83 15.91c-.36.83-.28 1.78.21 2.54l.45.71c1.37 2.15 5.05 4.9 11.24 6.18 6.94 1.43 21.45 1.88 40.68-11.16 7.78-5.28 48.03-34.92 75.54-100.16 1.14-2.71.4-5.79-1.84-7.67-10.5-8.81-37.13-29.54-57.54-31.82-.49-.05-1.01.1-1.38.43-.35.31-.54.74-.54 1.2l-.21 22.57c-.05 5.5-2.24 10.65-6.17 14.49-3.93 3.85-9.05 5.88-14.62 5.85l-25.87-.34c-.86.01-1.62.32-2.2.93-.58.62-.86 1.42-.79 2.26Zm2.1 108.6c-3.26 0-5.97-.36-8.06-.79-6.52-1.34-11.67-4.32-14.12-8.15l-.45-.71a7.213 7.213 0 0 1-.55-6.73l6.83-15.9c8.71-20.28 12.4-42.63 10.67-64.63l-.89-11.34c-.17-2.08.56-4.15 1.99-5.67 1.42-1.52 3.46-2.35 5.53-2.36l25.87.35c4.19.04 8.35-1.57 11.42-4.57 3.08-3.01 4.79-7.03 4.83-11.32l.2-22.58c.02-1.72.77-3.37 2.06-4.51a6.261 6.261 0 0 1 4.85-1.53c21.62 2.41 49.11 23.76 59.92 32.83 3.76 3.15 5 8.32 3.09 12.85-28 66.41-69.19 96.73-77.16 102.13-14.95 10.14-27.41 12.63-36.03 12.63Z"
          style="fill-rule:nonzero"/>
    <path d="M2046.93 2083.08c-.87 0-1.69-.51-2.06-1.35-.49-1.14.03-2.46 1.16-2.95l3.57-1.55c18.22-7.91 32.61-23.14 39.46-41.79l2.38-6.49c.91-2.47 3.1-4.1 5.72-4.25 2.59-.18 4.99 1.2 6.18 3.55l3.09 6.06c.4.79 1.13 1.32 2 1.45.88.14 1.73-.15 2.35-.78 16.79-17.07 29.61-37.07 38.11-59.46l4.89-12.87a2.245 2.245 0 0 1 2.89-1.3 2.24 2.24 0 0 1 1.3 2.89l-4.89 12.88c-8.72 22.96-21.88 43.49-39.11 61.01-1.64 1.67-3.9 2.43-6.23 2.06a7.119 7.119 0 0 1-5.31-3.85l-3.09-6.06c-.55-1.09-1.59-1.13-1.91-1.11-.31.02-1.36.17-1.78 1.32l-2.38 6.5c-7.28 19.79-22.54 35.96-41.88 44.36l-3.57 1.54c-.29.13-.59.19-.89.19Z"
          style="fill-rule:nonzero"/>
    <path d="M1835.46 2047.76s3.16 36-11.76 53.08l-4.65 7.34 69.99-3.72-3.38-7.66c-6.02-13.63-10.64-35.56-9.47-49.89l-40.73.85Z"
          style="fill:#fff;fill-rule:nonzero"/>
    <path d="m1825.5 2102.18-2.23 3.53 62.41-3.31-2.07-4.69c-5.43-12.31-10.37-33.26-9.8-48.51l-35.96.75c.43 8.48.81 37-12.35 52.23Zm-6.45 8.24a2.243 2.243 0 0 1-1.9-3.44l4.66-7.34c.06-.1.12-.19.2-.28 14.11-16.15 11.25-51.06 11.22-51.41-.06-.62.15-1.23.56-1.69.42-.46 1-.73 1.62-.74l40.74-.85c.63.02 1.24.25 1.68.71.43.46.65 1.08.6 1.72-1.08 13.13 3 34.57 9.28 48.8l3.38 7.66c.3.67.25 1.45-.14 2.08-.39.62-1.06 1.02-1.79 1.06l-69.99 3.72h-.12Z"
          style="fill-rule:nonzero"/>
    <path d="m1825.85 2077.56-7.03 7.24a123.116 123.116 0 0 1-50.1 31.26l-14.59 4.77a4.422 4.422 0 0 0-2.87 2.97l-.21.71c-2.29 7.94 6.15 26.63 35.15 34.14 17.44 4.52 57.85 8.7 107.82-7.02 5.91-1.86 9.78-7.53 9.5-13.73-.64-14.34-3.17-39.87-12.81-53.5-1.19-1.68-3.49-1.9-5.04-.56-3.43 2.96-9.56 8.25-15.16 13.1-6.8 5.87-17.08 5.09-22.92-1.73l-14.92-17.43c-1.77-2.06-4.93-2.16-6.82-.22Z"
          style="fill:#fff;fill-rule:nonzero"/>
    <path d="m1827.46 2079.13-7.03 7.23c-14.12 14.53-31.76 25.54-51.01 31.83l-14.59 4.77c-.69.22-1.22.77-1.42 1.46l-.21.72c-.61 2.12-.28 6.1 2.45 10.9 3.09 5.43 11.25 15.29 31.11 20.44 7.73 2 49.18 11.08 106.59-6.99 4.9-1.55 8.17-6.27 7.93-11.49-.62-13.86-3.06-39.1-12.4-52.31-.25-.34-.56-.45-.78-.47-.34-.04-.68.07-.97.32l-15.16 13.09c-3.74 3.23-8.52 4.8-13.45 4.44-4.93-.37-9.41-2.65-12.63-6.4l-14.93-17.43c-.44-.52-1.05-.81-1.72-.83-.68-.02-1.31.23-1.78.72Zm-3.22 85.87c-20.66 0-34.43-3.1-38.61-4.18-21.45-5.56-30.43-16.52-33.87-22.55-2.96-5.19-4-10.43-2.86-14.38l.21-.72a6.665 6.665 0 0 1 4.32-4.47l14.59-4.77c18.57-6.07 35.58-16.68 49.19-30.69l7.03-7.24a6.795 6.795 0 0 1 5.14-2.07c1.92.06 3.74.93 4.99 2.39l14.92 17.43c2.44 2.85 5.84 4.57 9.57 4.85 3.73.28 7.35-.91 10.18-3.36l15.16-13.1a5.8 5.8 0 0 1 4.45-1.37c1.57.19 2.96 1.02 3.89 2.33 10 14.14 12.58 40.34 13.22 54.7.33 7.25-4.22 13.81-11.07 15.97-27.73 8.73-51.88 11.23-70.45 11.23Z"
          style="fill-rule:nonzero"/>
    <path d="M1836.23 2139.51c-2.94 0-5.89-.09-8.85-.25a6.547 6.547 0 0 1-5.22-3.05c-1.17-1.83-1.37-4.02-.57-6.03l2.23-5.61c.34-.84-.12-1.44-.33-1.65-.22-.21-.8-.68-1.65-.35l-5.72 2.21c-17.51 6.78-37.29 6.09-54.28-1.91l-3.13-1.47a2.236 2.236 0 0 1-1.07-2.98c.53-1.12 1.86-1.6 2.98-1.07l3.13 1.47c15.88 7.47 34.38 8.12 50.75 1.78l5.72-2.21c2.27-.88 4.74-.35 6.45 1.38s2.22 4.2 1.31 6.46l-2.23 5.61c-.26.65-.19 1.36.19 1.95.37.59.99.96 1.69.99 21.16 1.18 41.97-1.99 61.83-9.43l11.44-4.28c1.16-.44 2.45.15 2.88 1.31.44 1.16-.15 2.45-1.31 2.88l-11.44 4.29c-17.67 6.62-36.06 9.96-54.8 9.96ZM1961.18 1458.66s28.25 93.47-19.92 159.8c-64.89 89.38-27.81 295.61-60.29 434.28-.62 2.65-3.03 4.5-5.76 4.47l-39.34-.42a5.827 5.827 0 0 1-5.57-4.32c-9.26-34.58-71.38-268.62-69.39-315.27.46-10.64 1.81-23.05 3.68-36.1 9.08-63.21 28.17-124.57 55.9-182.1l43.27-89.76 97.42 29.42Z"
          style="fill-rule:nonzero"/>
    <path d="M1991.65 1448.09s35.53 66.04 19.81 135.52c-15.73 69.47 7.92 127.1 24.59 154.23 16.47 26.81 46.65 94.42 57.26 194.92.25 2.44-.63 4.87-2.4 6.57-5.55 5.3-19.29 16.07-40.03 16.96-2.41.1-4.74-.89-6.34-2.7-16.35-18.58-110.47-127.66-143.92-214.43-36.68-95.16-43.56-253.3-43.56-253.3s91.32 9.65 134.59-37.77Z"
          style="fill-rule:nonzero"/>
    <path d="M1905.17 1767.28c-.05 0-.11-.01-.16-.01a2.242 2.242 0 0 1-2.08-2.4c4.07-56.2 11.31-113 36.52-147.72 17.94-24.71 27.26-56.01 27.7-93.04a2.252 2.252 0 0 1 2.24-2.22h.03c1.24.02 2.23 1.03 2.22 2.27-.46 37.98-10.07 70.15-28.56 95.62-24.55 33.81-31.66 89.87-35.68 145.42a2.23 2.23 0 0 1-2.23 2.08ZM1611.13 1118.43s-8.7-11.47-8.1-21.88c.55-9.63 1.3-31.99-10.02-44.25-14.69-15.89-38.36-20.97-40.76-16.1-2.15 4.38 27.07 27.23 25.48 45.15-.34 3.79-3.69 6.67-7.5 6.55-4.6-.13-11.76-1.71-20.65-8.13-2.26-1.63-5.51-.27-5.81 2.5-.43 3.8.29 9.51 4.95 16.99 5.94 9.53 15.69 16.49 22.37 18.86 7.28 2.59 16.37 17.05 16.37 17.05l23.67-16.74Z"
          style="fill:#fff;fill-rule:nonzero"/>
    <path d="M1547.42 1081.31c-.29 0-.52.09-.62.13-.27.12-.73.42-.81 1.07-.35 3.15.17 8.41 4.63 15.56 5.71 9.18 15 15.73 21.22 17.94 6.34 2.26 13.31 11.71 16.22 15.99l19.96-14.12c-2.53-3.84-7.73-12.84-7.23-21.46 1.17-20.22-2.01-34.56-9.43-42.59-10.8-11.7-26.7-17.16-34.04-17.16h-.01c-1.54 0-2.41.23-2.82.41.68 1.67 4.09 5.71 6.88 9 8.3 9.83 19.67 23.28 18.59 35.47-.44 4.97-4.78 8.74-9.79 8.6-4.79-.15-12.47-1.75-21.9-8.56-.29-.21-.59-.28-.85-.28Zm40.04 56.11c-.15 0-.29-.02-.44-.05-.6-.12-1.13-.48-1.46-1-2.42-3.84-9.86-14.23-15.22-16.13-6.93-2.47-17.24-9.71-23.52-19.8-5.14-8.24-5.71-14.57-5.28-18.42.23-2.08 1.52-3.82 3.44-4.68 1.97-.87 4.18-.64 5.91.62 8.51 6.14 15.25 7.58 19.41 7.71 2.63.05 4.97-1.95 5.19-4.52.92-10.33-10.19-23.47-17.54-32.17-6.1-7.21-9.16-10.83-7.71-13.77.53-1.07 1.79-2.44 4.81-2.88 8.13-1.18 26.91 4.71 39.6 18.45 12.49 13.52 11.08 37.89 10.62 45.9-.55 9.44 7.57 20.29 7.65 20.39.37.49.52 1.1.43 1.7-.09.6-.43 1.14-.92 1.49l-23.68 16.74c-.38.27-.83.42-1.29.42Z"
          style="fill-rule:nonzero"/>
    <path d="M2007.33 1355.41c-.93-68.78-15.97-114.24-40.51-143.8-18.72-22.55-45.59-36.85-74.58-41.14-15.25-2.25-36.37-4.81-55.14-5.09a31.63 31.63 0 0 0-8.25-4.71c-3.77 2.01-7.49 3.83-11.18 5.47-7.32.81-13.51 2.3-17.75 4.73-2 1.15-3.42 2.19-4.48 3.19-44.25 11.91-82.42-.79-115.14-16.31-22.32-10.58-37.06-19.38-58.16-41.22-3.36-3.48-8.74-4.05-12.78-1.38l-24.96 16.59a10.05 10.05 0 0 0-3.23 13.25c17.18 31.03 86.22 138.61 213.06 129.91 4.17 8.49 9.51 16.42 15.82 23.57 16.12 18.26 10.83 64.05-14.98 161.06 0 0 112.15 57.87 224.82 22.25 0 0-11.6-54.6-12.56-126.37Z"
          style="fill:#fff;fill-rule:nonzero"/>
    <path d="M1797.71 1458.33c14.04 6.75 117 53.36 219.58 21.91-2.06-10.52-11.35-61.25-12.21-124.8-.86-64.45-13.94-111.03-39.98-142.4-18.03-21.7-44.02-36.03-73.19-40.35-14.57-2.16-35.92-4.78-54.84-5.06-.5-.01-.97-.18-1.36-.49a29.544 29.544 0 0 0-6.73-4c-3.42 1.8-6.91 3.5-10.4 5.04-.21.1-.43.16-.66.19-7.5.82-13.18 2.32-16.88 4.45-1.74.99-3.07 1.93-4.07 2.87-.27.25-.59.44-.95.53-46.09 12.41-84.84-1.34-116.68-16.44-23.16-10.98-37.87-20.02-58.81-41.69a7.817 7.817 0 0 0-9.93-1.07l-24.96 16.59c-3.43 2.27-4.5 6.7-2.51 10.29 17.92 32.37 86.08 137.32 210.94 128.76.9-.05 1.77.44 2.17 1.25 4.06 8.27 9.27 16.03 15.49 23.08 16.3 18.46 12.64 60.76-14.02 161.34Zm144.67 37.17c-81.26 0-147.47-33.53-148.33-33.98a2.237 2.237 0 0 1-1.14-2.57c26.3-98.88 30.49-141.97 15.46-158.99-6.14-6.97-11.35-14.61-15.48-22.73-4.47.28-8.87.41-13.19.41-118.14.01-182.96-99.9-200.49-131.57-3.09-5.56-1.35-12.68 3.95-16.2l24.96-16.58a12.27 12.27 0 0 1 15.63 1.69c20.46 21.17 34.85 30.01 57.51 40.75 30.98 14.69 68.61 28.09 113.07 16.3 1.19-1.04 2.66-2.06 4.48-3.1 4.18-2.4 10.33-4.08 18.27-4.98 3.59-1.61 7.2-3.38 10.71-5.25.58-.31 1.26-.35 1.87-.12 2.94 1.14 5.7 2.67 8.22 4.58 18.98.34 40.17 2.95 54.69 5.1 30.26 4.47 57.24 19.36 75.97 41.92 26.73 32.19 40.15 79.68 41.03 145.2.95 70.73 12.39 125.4 12.51 125.94a2.24 2.24 0 0 1-1.52 2.6c-26.5 8.38-53.06 11.58-78.18 11.58Z"
          style="fill-rule:nonzero"/>
    <path d="M1914.34 1078.88c-1.75.41-3.46-.79-3.62-2.59-.78-8.52-6.48-23.02-15.95-28.49-12.13-7.01-28.37-7.6-34.7 1.3-5.53 7.76-4.36 13.84-17.34 22.11-1.25.79-.99 2.75-.12 3.95l4.45 6.85c.97 1.34 1.07 4.87.74 6.49-1.02 5.01-3.24 15.35-2.31 17.41 2.7 5.99 20.47 10.73 20.47 10.73l-1.8 46.16c-.56 6.23-3.32 7.33-3.32 7.33l-10.51 9.54s-.39 11.31 40.55 17.82c30.74 4.89 28.82-.53 28.82-.53s-26.09-27.37-15-86.94c.25-1.3 1.19-2.38 2.44-2.83 4.82-1.71 18.02-7.05 18.86-16.33.89-9.86-5.65-13.41-11.66-11.98Z"
          style="fill:#fff;fill-rule:nonzero"/>
    <path d="M1852.83 1180.43c1.13 2.3 7.15 9.87 38.4 14.85 16.88 2.68 23.18 2.09 25.4 1.53-5.51-6.92-23.91-34.72-14.13-87.2a6 6 0 0 1 3.89-4.53c4.99-1.77 16.68-6.73 17.38-14.42.34-3.76-.5-6.62-2.44-8.29-1.64-1.43-4.01-1.9-6.47-1.31-1.49.35-3.02.05-4.25-.83a5.205 5.205 0 0 1-2.13-3.73c-.73-8.05-6.3-21.83-14.83-26.76-10.71-6.18-26.02-7.39-31.76.66-1.6 2.25-2.59 4.32-3.64 6.52-2.35 4.94-4.79 10.06-14.13 16.06 0 .2.09.57.3.86l4.52 6.95c1.48 2.04 1.42 6.33 1.05 8.16l-.22 1.08c-.74 3.61-2.7 13.21-2.2 15.05 1.52 3.37 12.01 7.54 18.96 9.4 1.01.27 1.71 1.2 1.67 2.25l-1.8 46.16c-.56 6.25-3.11 8.42-4.27 9.09l-9.3 8.45Zm58.25 21.35c-4.52 0-11.04-.56-20.55-2.08-40.83-6.49-42.51-17.89-42.44-20.1.02-.61.29-1.18.74-1.59l10.5-9.54c.2-.18.43-.32.67-.42-.03 0 1.53-1.05 1.92-5.45l1.73-44.28c-5.18-1.51-17.59-5.69-20.2-11.49-.99-2.18-.13-7.67 1.93-17.7l.22-1.07c.31-1.5.04-4.14-.36-4.73l-4.51-6.95c-.87-1.2-1.28-2.9-1.01-4.34.22-1.15.86-2.12 1.8-2.72 8.41-5.36 10.39-9.52 12.69-14.33 1.08-2.28 2.2-4.63 4.03-7.19 7.38-10.37 25.29-9.08 37.65-1.94 10.41 6.01 16.24 21.3 17.06 30.23.02.26.16.41.28.5.1.07.3.18.59.11 3.89-.93 7.7-.1 10.45 2.28 2.14 1.85 4.56 5.45 3.96 12.08-.89 9.91-13.13 15.68-20.34 18.24-.51.18-.88.62-.98 1.13-10.77 57.78 14.16 84.72 14.41 84.98.22.23.39.5.49.8.28.77.25 1.98-.65 3.06-1 1.21-3.22 2.51-10.08 2.51Z"
          style="fill-rule:nonzero"/>
    <path d="m1678.48 1196.69-418.68-1.25c-9.69-.03-18.03-6.78-17.38-14.07l22.98-258.374c.51-5.627 6.3-9.695 13.78-9.672l418.68 1.248c9.69.029 18.04 6.78 17.39 14.07l-22.99 258.378c-.5 5.62-6.3 9.69-13.78 9.67Z"
          style="fill:#007CBD;fill-rule:nonzero"/>
    <path d="M1678.49 1194.45h.05c6.27 0 11.09-3.21 11.48-7.63l22.99-258.378c.25-2.766-1.22-5.016-2.5-6.416-2.92-3.2-7.77-5.198-12.66-5.213l-418.68-1.248c-6.3-.124-11.14 3.188-11.53 7.63l-22.99 258.375c-.25 2.77 1.22 5.02 2.5 6.42 2.92 3.2 7.77 5.19 12.66 5.21l418.68 1.25Zm.05 4.48h-.06l-418.68-1.25c-6.2-.02-12.17-2.51-15.96-6.67-2.66-2.92-3.96-6.41-3.66-9.84l22.99-258.374c.61-6.795 7.31-11.713 15.95-11.713h.07l418.68 1.247c6.19.019 12.16 2.514 15.95 6.674 2.67 2.918 3.96 6.412 3.66 9.836l-22.99 258.37c-.6 6.8-7.31 11.72-15.95 11.72Z"
          style="fill-rule:nonzero"/>
    <path d="m1294.1 1083.15-2.12 25.27h363.34l2.13-25.27H1294.1ZM1297.87 1038.51l-2.13 25.28h363.34l2.13-25.28h-363.34ZM1302 993l-2.5 26.15h362.63l2.84-25.274L1302 993ZM1290.35 1127.78l-2.13 25.28h363.34l2.13-25.28h-363.34ZM1366.67 952.152l-2.13 25.274h241.26l2.13-25.274h-241.26Z"
          style="fill:#fff;stroke:#fff;stroke-width:2.5px"/>
    <path d="M1299.5 1019.15h363.34l2.13-25.274h-363.34l-2.13 25.274Zm365.4 4.48h-367.84c-.63 0-1.23-.26-1.65-.72-.43-.46-.64-1.08-.58-1.71l2.5-29.753a2.245 2.245 0 0 1 2.24-2.053h367.84c.63 0 1.22.262 1.65.724.42.462.63 1.08.58 1.705l-2.51 29.757a2.241 2.241 0 0 1-2.23 2.05ZM1364.54 977.426h241.26l2.13-25.274h-241.26l-2.13 25.274Zm243.32 4.483H1362.1c-.63 0-1.23-.263-1.65-.725a2.267 2.267 0 0 1-.58-1.705l2.5-29.757a2.245 2.245 0 0 1 2.24-2.053h245.76c.63 0 1.22.263 1.65.725.42.461.63 1.08.58 1.705l-2.51 29.756a2.229 2.229 0 0 1-2.23 2.054ZM1295.74 1063.79h363.34l2.13-25.28h-363.34l-2.13 25.28Zm365.4 4.48H1293.3a2.231 2.231 0 0 1-2.23-2.43l2.51-29.76a2.227 2.227 0 0 1 2.23-2.05h367.84c.62 0 1.22.26 1.65.72.42.47.63 1.08.58 1.71l-2.51 29.76a2.234 2.234 0 0 1-2.23 2.05ZM1291.98 1108.42h363.34l2.13-25.27H1294.1l-2.12 25.27Zm365.4 4.48h-367.84c-.63 0-1.23-.26-1.65-.72-.43-.46-.64-1.08-.58-1.71l2.5-29.75a2.25 2.25 0 0 1 2.23-2.06h367.85c.62 0 1.22.27 1.65.73.42.46.63 1.08.58 1.7l-2.51 29.76a2.234 2.234 0 0 1-2.23 2.05ZM1288.22 1153.06h363.34l2.13-25.28h-363.34l-2.13 25.28Zm365.4 4.48h-367.84c-.63 0-1.23-.26-1.65-.73-.43-.46-.64-1.08-.58-1.7l2.5-29.76c.1-1.16 1.07-2.05 2.24-2.05h367.84c.63 0 1.22.26 1.65.72.42.47.63 1.08.58 1.71l-2.51 29.76a2.241 2.241 0 0 1-2.23 2.05Z"
          style="fill-rule:nonzero"/>
    <path d="m1601.16 1187.63-5.68-18.89c-1.7-8.41 15.41-26.58 4.22-31.65-8.14-3.69-7.3 9.14-18.86 11.23-6.03 1.1-12.67-10.59-13.71-16.06-3.6-18.95-11.78-25.92-19.02-23.36-7.24 2.56-16.73 32-3.8 52.72 12.92 20.72 38.94 38.13 38.94 38.13l17.91-12.12Z"
          style="fill:#fff;fill-rule:nonzero"/>
    <path d="M1551.01 1110.63c-.71 0-1.43.13-2.15.38-1.45.51-3.9 3.65-5.89 9.32-3.61 10.32-4.92 27.02 3.24 40.1 10.94 17.54 31.78 32.89 37.05 36.6l15.28-10.33-5.21-17.32c-.86-4.21 1.47-9.24 3.94-14.57 2.28-4.93 4.87-10.52 3.74-13.53-.21-.59-.68-1.45-2.23-2.15-2.33-1.05-3.03-.47-5.58 2.95-2.3 3.07-5.44 7.27-11.96 8.45-7.75 1.41-15.14-11.71-16.31-17.85-2.04-10.74-5.86-18.42-10.49-21.07-1.13-.65-2.28-.98-3.43-.98Zm32.24 91.36c-.44 0-.87-.13-1.25-.38-1.08-.72-26.57-17.92-39.6-38.81-9-14.43-7.59-32.69-3.66-43.95 1.08-3.09 4.09-10.46 8.62-12.06 3.11-1.1 6.33-.78 9.32.93 5.92 3.4 10.3 11.75 12.65 24.12 1.04 5.48 7.27 14.99 11.11 14.28 4.79-.87 7.02-3.85 9.17-6.73 2.33-3.1 5.21-6.97 11.02-4.34 2.27 1.03 3.82 2.6 4.59 4.67 1.77 4.76-1.1 10.97-3.88 16.97-2.06 4.44-4.18 9.03-3.66 11.6l5.63 18.7c.28.93-.08 1.95-.89 2.5l-17.92 12.11c-.37.26-.81.39-1.25.39Z"
          style="fill-rule:nonzero"/>
    <path d="m1599.67 1176.46-25.87 15.6c-3.56 2.14-5.34 6.33-4.36 10.37 7.54 31.26 74.05 132.63 289.89 131.21 39.66-.25 55.54-52.38 40.29-88.98-8.39-20.13-29.67-31.54-51.13-27.69-50.54 9.08-172.34 38.85-236.49-38.34-3.04-3.66-8.26-4.62-12.33-2.17Z"
          style="fill:#fff;fill-rule:nonzero"/>
    <path d="M1855.03 1335.9c-90.08 0-166.07-18.55-219.98-53.73-45.61-29.76-64.07-63.8-67.79-79.22-1.21-5 .95-10.14 5.38-12.81l25.87-15.59c5.02-3.03 11.42-1.92 15.21 2.64 36.79 44.27 97.93 59.32 186.91 46 1.25-.18 2.37.67 2.55 1.89a2.25 2.25 0 0 1-1.89 2.55c-90.66 13.57-153.14-2-191.02-47.57-2.36-2.85-6.34-3.55-9.44-1.68l-25.88 15.6c-2.74 1.65-4.08 4.83-3.34 7.92 8.16 33.79 77.73 129.52 283.34 129.52 1.45 0 2.9-.01 4.37-.02h.01c1.24 0 2.24 1 2.25 2.23 0 1.24-.99 2.25-2.23 2.26-1.44.01-2.89.01-4.32.01Z"
          style="fill-rule:nonzero"/>
    <path d="M1239.28 1888.83h176.65s24.22 147.3-81.21 159.06c-105.43 11.76-95.44-159.06-95.44-159.06Z"
          style="fill:#fff;fill-rule:nonzero"/>
    <path d="M1241.43 1891.07c-.5 14.55-1.65 100.22 37.72 137.56 14.52 13.78 33.12 19.5 55.32 17.03 24.47-2.73 43.79-13.23 57.42-31.22 31.48-41.56 23.76-111.08 22.1-123.37h-172.56Zm83.18 159.64c-19.06 0-35.35-6.31-48.55-18.84-44.39-42.11-39.26-139.07-39.02-143.17a2.238 2.238 0 0 1 2.24-2.11h176.65c1.09 0 2.03.79 2.21 1.87.54 3.32 12.93 81.69-22.68 128.68-14.4 19.01-34.75 30.11-60.49 32.98-3.54.39-6.99.59-10.36.59Z"
          style="fill-rule:nonzero"/>
    <path d="M1292.25 1852.81c-12.63.37-39.53.78-64.85-16.47-9.37-6.39-35.1-23.91-32.69-46.96 2.06-19.77 24.21-37.97 54.26-41.24-35.66 4.23-64.35-22.5-64.39-50.11-.04-21.15 16.74-42.16 41.54-49.11-38.44-29.04-58.62-75.85-52.24-122.3 6.21-45.18 37.5-89.65 84.72-103.38 5.94-1.73 57.26-15.79 94.22 15.7 31.02 26.43 31.36 67.44 31.6 95.39.41 49.74-19.54 87.53-31.6 106.5 2.52-.18 28.02-8.56 51.86 12.61 24.29 21.59 25.49 71.19 13.65 90.82-12.39 20.55-42.25 16.2-47.57 17.7 22.34 19.72 21.56 36.16 21.31 39.26-2.53 32.08-60.7 50.45-99.82 51.59Z"
          style="fill:#fff;fill-rule:nonzero"/>
    <path d="M1248.54 1750.45c-27.47 3.22-49.6 19.97-51.6 39.16-2.27 21.72 22.43 38.54 31.72 44.88 25.23 17.19 52.07 16.41 63.52 16.08 38.41-1.12 95.29-19.4 97.66-49.53.33-4.22-.17-19.4-20.56-37.4-.62-.54-.89-1.38-.7-2.18.18-.8.78-1.44 1.57-1.66 1.36-.38 3.54-.44 6.56-.53 10.65-.31 30.48-.89 39.7-16.17 11.55-19.15 10.19-67.19-13.22-87.98-13.61-12.09-29.91-16.26-48.41-12.38-.88.18-1.49.3-1.81.32-.86.05-1.65-.36-2.08-1.09-.43-.72-.42-1.63.03-2.35 14.47-22.74 31.64-59.46 31.25-105.27-.22-27.05-.56-67.93-30.81-93.71-35.02-29.83-82.89-17.94-92.13-15.25-43.1 12.53-76.51 53.34-83.13 101.54-6.25 45.48 13.43 91.54 51.37 120.2.68.52 1.01 1.37.85 2.21a2.24 2.24 0 0 1-1.6 1.74c-23.15 6.49-39.94 26.23-39.9 46.94.02 12.3 6.04 24.69 16.53 33.99 12.01 10.66 28.26 15.74 44.69 13.98.23-.03.46-.05.69-.08a2.243 2.243 0 0 1 .51 4.46c-.23.03-.47.05-.7.08Zm43.71 102.36h.02-.02Zm-6.8 2.36c-13.9 0-37.11-1.85-59.31-16.98-9.9-6.74-36.21-24.67-33.66-49.05 1.79-17.18 16.92-32.13 38.15-39.28-11.23-1.97-21.73-6.93-30.26-14.49-11.44-10.16-18.01-23.76-18.04-37.34-.03-21.42 16.16-41.83 39.05-49.96-37-29.78-56-76.04-49.72-121.75 6.86-49.93 41.54-92.22 86.31-105.24 9.63-2.8 59.53-15.18 96.3 16.15 31.81 27.1 32.16 69.22 32.39 97.09.37 44.09-15.12 79.93-29.27 103.38 18.51-2.96 34.92 1.76 48.78 14.07 24.91 22.13 26.37 73.26 14.08 93.65-10.48 17.37-32.72 18.02-43.41 18.33-.28.01-.56.02-.83.02 17.72 17.33 18.74 31.92 18.3 37.62-2.62 33.15-60.91 52.47-101.99 53.66-1.91.05-4.22.12-6.87.12Z"
          style="fill-rule:nonzero"/>
    <path d="M1305.02 1874.65c-.1 0-.2-.01-.3-.03a2.243 2.243 0 0 1-1.93-2.52c22.54-166.41-30.11-354.18-30.64-356.05a2.241 2.241 0 0 1 4.31-1.23c.54 1.88 53.44 190.52 30.78 357.89a2.256 2.256 0 0 1-2.22 1.94Z"
          style="fill-rule:nonzero"/>
    <path d="M1330.45 1860.48c-4.01-9.81-21.38-55.14 1.15-93.33 4.63-7.85 20.13-34.12 42.63-32.26 16.78 1.38 27.36 17.57 29.69 21.33-6.76-24.64 5.38-49.58 25.62-58.2 23.93-10.19 55.72 3.9 64.53 33.41 5.91-1.68 21.88-5.31 38.02 2.31 21.24 10.02 34.02 35.41 31.11 63.37-8.84 29.99-36.24 48.35-62.22 44.94-28.22-3.71-41.69-31.4-42.63-33.42 4.4 6.92 10.87 19.77 6.91 32.27-6.65 20.98-39.67 31.4-63.37 25.34-22.01-5.61-28.38-23.49-46.09-21.89-11.67 1.06-20.33 9.84-25.35 16.13Z"
          style="fill:#fff;fill-rule:nonzero"/>
    <path d="M1358 1842.01c9.08 0 15.41 4.84 22.09 9.94 6.21 4.74 12.62 9.64 22.35 12.12 22.26 5.69 54.29-3.68 60.68-23.85 2.69-8.49.21-17.34-3.35-24.53-2.16-3.38-3.3-5.77-3.45-6.11-.5-1.07-.09-2.34.95-2.91a2.24 2.24 0 0 1 2.97.76c1.19 1.87 2.39 3.94 3.5 6.17 5.5 8.57 17.8 23.63 37.53 26.22 25.76 3.39 51.37-15.15 59.72-43.15 2.71-26.73-9.28-51.19-29.86-60.91-14.41-6.8-29.02-4.28-36.45-2.17a2.24 2.24 0 0 1-2.76-1.52c-4.03-13.51-13.61-24.67-26.28-30.62-11.61-5.46-24.45-5.96-35.22-1.37-19.88 8.46-30.57 32.86-24.34 55.55.3 1.07-.24 2.2-1.26 2.64-1.02.45-2.21.08-2.8-.87-3.54-5.69-13.34-19.07-27.97-20.28-14-1.15-27.63 9.33-40.52 31.17-19.09 32.36-9.08 70.06-2.37 87.87 7.61-8.54 15.82-13.26 24.44-14.04.82-.07 1.62-.11 2.4-.11Zm57.91 28.14c-5.07 0-10.02-.57-14.58-1.73-10.61-2.71-17.7-8.13-23.96-12.91-7.1-5.42-12.73-9.71-21.37-8.93-8.29.75-16.3 5.9-23.8 15.3-.5.62-1.28.94-2.07.82-.79-.11-1.46-.63-1.76-1.37-6.76-16.54-20.17-58.93 1.3-95.32 13.84-23.44 28.89-34.67 44.74-33.35 11.37.93 20.03 8.09 25.63 14.53-1.89-21.77 9.54-43.11 28.62-51.23 11.95-5.09 26.12-4.57 38.89 1.43 13.17 6.18 23.27 17.53 28 31.33 8.5-2.09 23.04-3.84 37.49 2.99 22.36 10.55 35.37 36.93 32.39 65.63-.02.14-.04.27-.08.4-8.9 30.2-36.7 50.19-64.66 46.53-14.45-1.9-25.2-9.87-32.51-17.7.87 4.85.82 9.95-.78 15-5.76 18.17-29.76 28.58-51.49 28.58Z"
          style="fill-rule:nonzero"/>
    <path d="M1328.68 1872.74c-.13 0-.26-.01-.39-.04a2.234 2.234 0 0 1-1.82-2.59c.5-2.84 12.99-69.69 75.44-93.44 44.85-17.06 85.11-.01 96.39 5.62 1.1.55 1.55 1.9 1 3.01-.55 1.1-1.9 1.55-3.01 1-10.86-5.42-49.64-21.85-92.78-5.44-60.11 22.85-72.14 87.29-72.63 90.03a2.238 2.238 0 0 1-2.2 1.85Z"
          style="fill-rule:nonzero"/></svg>