<svg xmlns="http://www.w3.org/2000/svg" xml:space="preserve"
     style="fill-rule:evenodd;clip-rule:evenodd;stroke-linejoin:round;stroke-miterlimit:2" viewBox="0 0 1063 727"><path d="M882 330h1301v845H882z" style="fill:none" transform="matrix(.81706 0 0 .86035 -720.65 -283.917)"/>
    <path d="M1847.99 651.928h-87.5c-9.61-61.399-62.73-108.373-126.83-108.373-16.48 0-32.23 3.142-46.71 8.803-32.62-58.912-95.4-98.813-167.51-98.813-105.7 0-191.38 85.684-191.38 191.382 0 2.348.09 4.673.18 7.001h-8.89c-73.77 0-133.57 59.801-133.57 133.57 0 73.768 59.8 133.57 133.57 133.57h628.64c73.76 0 133.57-59.801 133.57-133.57 0-73.769-59.81-133.57-133.57-133.57Z"
          style="fill:#007CBD;fill-rule:nonzero" transform="translate(-972.48 -410.125)"/>
    <path d="M1233.65 638c-72.43 0-131.35 58.925-131.35 131.354 0 72.43 58.92 131.356 131.35 131.356h628.64c72.43 0 131.36-58.926 131.36-131.355 0-72.43-58.93-131.355-131.36-131.355h-87.49c-1.09 0-2.02-.795-2.19-1.873-9.66-61.71-62.08-106.501-124.64-106.501-15.78 0-31.22 2.911-45.91 8.651-1.03.405-2.2-.02-2.74-.989-33.37-60.246-96.81-97.671-165.57-97.671-104.31 0-189.17 84.86-189.17 189.167 0 2.142.08 4.265.16 6.388l.02.532c.02.601-.21 1.185-.62 1.618-.42.433-1 .678-1.6.678h-8.89Zm628.64 267.139h-628.64c-74.87 0-135.78-60.912-135.78-135.784 0-74.873 60.91-135.785 135.78-135.785h6.6c-.06-1.591-.1-3.183-.1-4.786 0-106.75 86.85-193.597 193.6-193.597 69.73 0 134.12 37.604 168.5 98.275a129.98 129.98 0 0 1 45.72-8.265c31.32 0 61.61 11.258 85.29 31.7 22.95 19.813 38.32 46.981 43.42 76.673h85.61c74.88 0 135.79 60.912 135.79 135.784 0 74.872-60.91 135.785-135.79 135.785Zm-93.9 26.271c-.27 0-.55-.052-.82-.159-8.47-3.389-17.71-8.939-18.1-9.173a2.213 2.213 0 0 1-.75-3.04 2.212 2.212 0 0 1 3.04-.754c.09.055 9.33 5.602 17.45 8.854a2.22 2.22 0 0 1 1.24 2.88 2.223 2.223 0 0 1-2.06 1.392Z"
          style="fill-rule:nonzero" transform="translate(-989 -393)"/>
    <path d="m1852.99 1060.32 33.68 19.26c2.79 1.59 6.35.61 7.94-2.2l104.05-183.331c1.77-3.131.69-7.111-2.42-8.889l-85.35-48.81-57.9 223.97Z"
          style="fill:#fff;fill-rule:nonzero" transform="translate(-989 -393)"/>
    <path d="m1852.99 1060.32 33.68 19.26c1.64.93 3.54.98 5.15.3 0 0 2.69-1.23 5.69-6.48 2.57-4.52 100.39-178.022 100.39-178.022 2.16-3.795 1.07-7.775-2.03-9.553l-85.36-48.811-57.52 223.306Z"
          style="fill:#fff;fill-rule:nonzero" transform="translate(-989 -393)"/>
    <path d="M1889.52 1082.56a7.96 7.96 0 0 1-3.95-1.06l-33.68-19.26a2.215 2.215 0 0 1 2.19-3.85l33.69 19.27c.98.55 2.13.62 3.18.18-.01 0 2.15-1.19 4.64-5.54 2.54-4.46 99.4-176.275 100.38-178.01 1.48-2.603.98-5.292-1.21-6.542l-85.35-48.811a2.215 2.215 0 0 1 2.2-3.846l85.35 48.811c4.31 2.461 5.54 7.865 2.87 12.569-.98 1.73-97.85 173.549-100.4 178.019-3.25 5.71-6.35 7.25-6.69 7.4-1.05.45-2.14.67-3.22.67Z"
          style="fill-rule:nonzero" transform="translate(-989 -393)"/>
    <path d="m1946.77 952.738-99.83 115.682a4.483 4.483 0 0 1-5.61.97l-196.81-112.552c-2.45-1.401-3.01-4.709-1.16-6.857l151.38-175.402a4.46 4.46 0 0 1 5.6-.974l196.82 112.553c2.45 1.402 3.01 4.709 1.16 6.857l-41.47 48.123-10.08 11.6Z"
          style="fill:#fff;fill-rule:nonzero" transform="translate(-989 -393)"/>
    <path d="M1843.54 1072.19c-1.13 0-2.27-.29-3.3-.88l-196.82-112.548a6.677 6.677 0 0 1-3.27-4.686 6.68 6.68 0 0 1 1.53-5.54l151.38-175.404a6.694 6.694 0 0 1 8.38-1.449l196.82 112.552a6.675 6.675 0 0 1 3.27 4.686 6.713 6.713 0 0 1-1.53 5.539l-41.47 48.123a2.22 2.22 0 0 1-3.13.232 2.218 2.218 0 0 1-.23-3.123l41.47-48.123c.45-.523.64-1.215.53-1.898a2.269 2.269 0 0 0-1.11-1.59l-196.82-112.552a2.245 2.245 0 0 0-2.82.495l-151.38 175.404a2.294 2.294 0 0 0-.53 1.897c.07.397.3 1.13 1.11 1.591l196.81 112.554c.93.53 2.13.32 2.83-.5l99.84-115.679c.8-.927 2.2-1.029 3.12-.229a2.21 2.21 0 0 1 .23 3.123l-99.83 115.675a6.701 6.701 0 0 1-5.08 2.33Zm-33.46-16.89c-.21.04-.41.08-.61.12l.61-.12Z"
          style="fill-rule:nonzero" transform="translate(-989 -393)"/>
    <path d="m1762.73 837.194 37.51 21.452-27.08 31.378-37.51-21.452 27.08-31.378Z" style="fill:#fff;fill-rule:nonzero"
          transform="translate(-989 -393)"/>
    <path d="m1739.08 867.984 33.59 19.212 24.14-27.962-33.6-19.212-24.13 27.962Zm34.08 24.255c-.38 0-.76-.095-1.1-.292l-37.51-21.452a2.233 2.233 0 0 1-1.09-1.549 2.23 2.23 0 0 1 .51-1.821l27.08-31.378a2.224 2.224 0 0 1 2.78-.476l37.51 21.453c.58.328.97.896 1.09 1.548a2.23 2.23 0 0 1-.51 1.821l-27.09 31.378c-.43.502-1.04.768-1.67.768Z"
          style="fill-rule:nonzero" transform="translate(-989 -393)"/>
    <path d="m1729.69 875.354 37.51 21.453-27.09 31.378-37.51-21.453 27.09-31.378Z" style="fill:#fff;fill-rule:nonzero"
          transform="translate(-989 -393)"/>
    <path d="m1706.04 906.145 33.59 19.211 24.13-27.962-33.59-19.211-24.13 27.962Zm34.07 24.254c-.37 0-.75-.095-1.1-.292l-37.51-21.452a2.22 2.22 0 0 1-1.08-1.549c-.11-.652.07-1.32.51-1.821l27.08-31.378a2.22 2.22 0 0 1 2.78-.476l37.51 21.453a2.222 2.222 0 0 1 .58 3.369l-27.09 31.379a2.21 2.21 0 0 1-1.68.767Z"
          style="fill-rule:nonzero" transform="translate(-989 -393)"/>
    <path d="m1807.85 862.998 37.51 21.452-27.08 31.378-37.51-21.453 27.08-31.377Z" style="fill:#fff;fill-rule:nonzero"
          transform="translate(-989 -393)"/>
    <path d="M1784.2 893.788 1817.8 913l24.13-27.962-33.59-19.212-24.14 27.962Zm34.08 24.254c-.38 0-.75-.095-1.1-.292l-37.51-21.452a2.23 2.23 0 0 1-1.09-1.549c-.11-.652.08-1.32.51-1.82l27.09-31.378a2.206 2.206 0 0 1 2.77-.476l37.51 21.452c.58.329.98.897 1.09 1.55.11.652-.08 1.319-.51 1.82l-27.08 31.378c-.44.501-1.05.767-1.68.767Z"
          style="fill-rule:nonzero" transform="translate(-989 -393)"/>
    <path d="m1774.81 901.158 37.51 21.452-27.08 31.378-37.52-21.452 27.09-31.378Z" style="fill:#fff;fill-rule:nonzero"
          transform="translate(-989 -393)"/>
    <path d="m1751.16 931.948 33.59 19.212 24.14-27.962-33.6-19.212-24.13 27.962Zm34.08 24.255c-.38 0-.76-.095-1.1-.292l-37.52-21.453a2.216 2.216 0 0 1-.57-3.369l27.08-31.378a2.22 2.22 0 0 1 2.78-.476l37.51 21.453c.57.329.97.896 1.08 1.549.12.652-.07 1.32-.5 1.821l-27.09 31.377c-.43.502-1.05.768-1.67.768Z"
          style="fill-rule:nonzero" transform="translate(-989 -393)"/>
    <path d="m1852.97 888.801 37.52 21.453-27.09 31.378-37.51-21.453 27.08-31.378Z" style="fill:#fff;fill-rule:nonzero"
          transform="translate(-989 -393)"/>
    <path d="m1829.32 919.592 33.6 19.212 24.13-27.963-33.59-19.211-24.14 27.962Zm34.08 24.255c-.37 0-.75-.096-1.1-.292l-37.51-21.453a2.19 2.19 0 0 1-1.08-1.549c-.12-.652.07-1.32.5-1.821l27.09-31.378a2.209 2.209 0 0 1 2.77-.476l37.52 21.453c.57.329.97.897 1.08 1.549.11.652-.08 1.32-.51 1.821l-27.08 31.378c-.43.502-1.05.768-1.68.768Z"
          style="fill-rule:nonzero" transform="translate(-989 -393)"/>
    <path d="m1819.93 926.961 37.51 21.453-27.08 31.378-37.52-21.453 27.09-31.378Z" style="fill:#fff;fill-rule:nonzero"
          transform="translate(-989 -393)"/>
    <path d="m1796.28 957.752 33.59 19.212 24.14-27.962-33.6-19.212-24.13 27.962Zm34.08 24.255c-.38 0-.76-.095-1.1-.292l-37.51-21.452a2.204 2.204 0 0 1-1.09-1.55 2.23 2.23 0 0 1 .51-1.82l27.08-31.378a2.22 2.22 0 0 1 2.78-.476l37.51 21.452c.58.329.97.897 1.09 1.55a2.23 2.23 0 0 1-.51 1.82l-27.09 31.378c-.43.502-1.05.768-1.67.768Z"
          style="fill-rule:nonzero" transform="translate(-989 -393)"/>
    <path d="m1898.09 914.605 37.52 21.453-27.09 31.378-37.51-21.453 27.08-31.378Z" style="fill:#fff;fill-rule:nonzero"
          transform="translate(-989 -393)"/>
    <path d="m1874.44 945.396 33.6 19.211 24.13-27.962-33.59-19.212-24.14 27.963Zm34.08 24.254c-.37 0-.75-.095-1.1-.292l-37.51-21.452a2.224 2.224 0 0 1-.58-3.37l27.09-31.378a2.208 2.208 0 0 1 2.77-.476l37.52 21.452c.57.329.97.897 1.08 1.55.11.652-.07 1.319-.51 1.82l-27.08 31.378c-.43.502-1.05.768-1.68.768Z"
          style="fill-rule:nonzero" transform="translate(-989 -393)"/>
    <path d="m1865.05 952.765 37.51 21.453-27.08 31.382-37.51-21.457 27.08-31.378Z" style="fill:#fff;fill-rule:nonzero"
          transform="translate(-989 -393)"/>
    <path d="m1841.4 983.556 33.59 19.214 24.14-27.965-33.6-19.212-24.13 27.963Zm34.08 24.254c-.38 0-.76-.09-1.1-.29l-37.51-21.454a2.233 2.233 0 0 1-1.09-1.549c-.11-.652.08-1.32.51-1.821l27.08-31.378a2.225 2.225 0 0 1 2.78-.476l37.51 21.453c.58.329.97.896 1.09 1.549.11.652-.08 1.32-.51 1.821l-27.08 31.375c-.44.5-1.05.77-1.68.77Zm-58.98-201.549c-.37 0-.75-.094-1.1-.292-10.26-5.868-13.84-19.039-7.98-29.362 2.85-5.018 7.47-8.619 13.02-10.139 5.51-1.51 11.28-.781 16.23 2.054.39.22.76.448 1.12.686a2.218 2.218 0 0 1 .64 3.066 2.217 2.217 0 0 1-3.07.638c-.29-.19-.58-.371-.89-.545a16.787 16.787 0 0 0-12.86-1.627c-4.4 1.207-8.07 4.067-10.34 8.054-4.65 8.205-1.81 18.67 6.33 23.329 1.07.607 1.43 1.96.83 3.022a2.223 2.223 0 0 1-1.93 1.116Zm25.27 14.449c-.37 0-.75-.094-1.1-.292-10.26-5.868-13.84-19.04-7.98-29.362 2.85-5.018 7.47-8.619 13.01-10.139 5.52-1.512 11.28-.782 16.24 2.054.38.217.75.447 1.12.684 1.02.67 1.31 2.043.64 3.066a2.219 2.219 0 0 1-3.07.64c-.29-.189-.59-.37-.89-.544a16.789 16.789 0 0 0-12.86-1.628c-4.41 1.206-8.08 4.066-10.34 8.054-4.66 8.204-1.82 18.67 6.33 23.329a2.213 2.213 0 0 1 .82 3.022 2.205 2.205 0 0 1-1.92 1.116Zm25.26 14.449c-.37 0-.75-.095-1.09-.292-10.26-5.868-13.84-19.039-7.98-29.362 2.84-5.018 7.46-8.619 13.01-10.138a21.21 21.21 0 0 1 17.35 2.737 2.209 2.209 0 0 1 .64 3.066 2.21 2.21 0 0 1-3.06.641c-.29-.19-.59-.372-.9-.546a16.781 16.781 0 0 0-12.86-1.627c-4.4 1.206-8.07 4.067-10.33 8.054-4.66 8.205-1.82 18.67 6.33 23.329a2.213 2.213 0 0 1 .82 3.022 2.223 2.223 0 0 1-1.93 1.116Zm25.27 14.449c-.37 0-.75-.095-1.1-.293-10.26-5.867-13.84-19.039-7.98-29.361 2.85-5.018 7.47-8.619 13.02-10.139 5.51-1.51 11.28-.781 16.23 2.054.38.218.76.447 1.12.686a2.218 2.218 0 0 1 .64 3.066 2.216 2.216 0 0 1-3.07.638c-.29-.19-.58-.371-.89-.544a16.78 16.78 0 0 0-12.86-1.628 16.976 16.976 0 0 0-10.34 8.054c-4.65 8.205-1.82 18.67 6.33 23.329 1.06.607 1.43 1.96.83 3.022a2.223 2.223 0 0 1-1.93 1.116Zm25.27 14.449c-.38 0-.75-.095-1.1-.292-10.26-5.869-13.84-19.04-7.98-29.362a21.359 21.359 0 0 1 13.01-10.139 21.22 21.22 0 0 1 17.35 2.738 2.22 2.22 0 0 1 .65 3.066 2.222 2.222 0 0 1-3.07.641c-.29-.189-.59-.372-.89-.545a16.798 16.798 0 0 0-12.87-1.627c-4.4 1.206-8.07 4.066-10.33 8.052-4.66 8.205-1.82 18.671 6.33 23.33 1.06.607 1.43 1.96.82 3.022a2.219 2.219 0 0 1-1.92 1.116Zm25.26 14.449c-.37 0-.75-.095-1.1-.293-10.26-5.867-13.84-19.039-7.98-29.361 2.85-5.018 7.47-8.619 13.02-10.139 5.51-1.51 11.28-.78 16.23 2.054.39.219.76.446 1.12.684a2.217 2.217 0 0 1 .64 3.066 2.21 2.21 0 0 1-3.06.641c-.29-.19-.59-.372-.9-.546a16.774 16.774 0 0 0-12.86-1.627c-4.4 1.206-8.07 4.067-10.34 8.053-4.65 8.206-1.81 18.671 6.33 23.33 1.07.607 1.43 1.96.83 3.022a2.223 2.223 0 0 1-1.93 1.116Zm23.83 13.627c-.37 0-.75-.094-1.1-.292-10.26-5.867-13.84-19.039-7.98-29.362 2.85-5.018 7.47-8.619 13.02-10.139 5.51-1.51 11.28-.781 16.23 2.054 6.5 3.714 10.53 10.42 10.8 17.939a2.222 2.222 0 0 1-2.14 2.291c-1.28.056-2.25-.913-2.29-2.136-.21-5.975-3.41-11.301-8.57-14.248a16.793 16.793 0 0 0-12.86-1.628c-4.4 1.207-8.07 4.067-10.34 8.054-4.65 8.205-1.81 18.671 6.33 23.329a2.216 2.216 0 0 1 .83 3.022 2.223 2.223 0 0 1-1.93 1.116Z"
          style="fill-rule:nonzero" transform="translate(-989 -393)"/>
    <path d="m1531.11 593.16 216.88 63.077 153.93-171.194-370.81 108.117Z" style="fill:#fff;fill-rule:nonzero"
          transform="translate(-989 -393)"/>
    <path d="m1539.03 593.158 208.24 60.564 147.8-164.375-356.04 103.811Zm208.96 65.294c-.21 0-.41-.028-.62-.088l-216.88-63.077a2.212 2.212 0 0 1 0-4.253l370.8-108.117c.95-.277 1.97.109 2.5.948.53.838.43 1.923-.23 2.659l-153.92 171.194c-.43.475-1.03.734-1.65.734Z"
          style="fill-rule:nonzero" transform="translate(-989 -393)"/>
    <path d="m1639.17 694.938-30.27-79.153 239.67-101.045-201.55 112.133 45.34 13.185-53.19 54.88Z"
          style="fill:#fff;fill-rule:nonzero" transform="translate(-989 -393)"/>
    <path d="m1611.74 616.994 28.25 73.907 48.22-49.744-41.81-12.158a2.222 2.222 0 0 1-1.58-1.878c-.1-.888.35-1.749 1.13-2.184l165.98-92.344-200.19 84.401Zm27.43 80.158a2.21 2.21 0 0 1-2.07-1.423l-30.27-79.153a2.222 2.222 0 0 1 1.21-2.832l239.67-101.045a2.209 2.209 0 0 1 2.85 1.071 2.207 2.207 0 0 1-.91 2.905l-196.91 109.553 40.24 11.703c.74.217 1.32.809 1.52 1.56.2.75-.01 1.551-.55 2.108l-53.19 54.88c-.42.435-1 .673-1.59.673Z"
          style="fill-rule:nonzero" transform="translate(-989 -393)"/>
    <path d="M1641.93 673.251a2.214 2.214 0 0 1-2.2-2.469l5.09-44.163a2.214 2.214 0 1 1 4.4.507l-5.09 44.164a2.218 2.218 0 0 1-2.2 1.961Zm-21.31 91.762c-.34 0-.7-.083-1.03-.256a2.216 2.216 0 0 1-.92-2.993c3.86-7.329 6.68-15.528 8.38-24.366a2.213 2.213 0 1 1 4.35.835c-1.78 9.268-4.74 17.881-8.82 25.598a2.2 2.2 0 0 1-1.96 1.182Zm-37.59 36.307c-.79 0-1.56-.428-1.96-1.177a2.219 2.219 0 0 1 .92-2.995c8.06-4.274 15.16-9.302 21.12-14.941a2.213 2.213 0 0 1 3.13.085c.84.888.8 2.29-.08 3.13-6.25 5.915-13.68 11.177-22.09 15.639-.33.175-.69.259-1.04.259Zm-50.42 16.154a2.214 2.214 0 0 1-.38-4.396c9.17-1.613 17.78-3.652 25.58-6.062a2.214 2.214 0 0 1 1.31 4.232c-7.98 2.464-16.77 4.548-26.13 6.192-.12.023-.25.034-.38.034Zm-132.64 3.771h-.06c-6.9-.182-12.33-.266-17.1-.266l-.42-2.214v2.214l-8.99.014h-.01a2.21 2.21 0 0 1-2.21-2.21 2.22 2.22 0 0 1 2.21-2.22l9-.013h.42c4.81 0 10.28.085 17.22.266a2.214 2.214 0 0 1 2.15 2.272 2.208 2.208 0 0 1-2.21 2.157Zm-79.74.554c-1.19 0-2.17-.94-2.21-2.135a2.208 2.208 0 0 1 2.13-2.292c8.22-.295 16.93-.5 26.63-.629h.03c1.21 0 2.2.972 2.21 2.185a2.21 2.21 0 0 1-2.18 2.244c-9.66.128-18.34.333-26.53.626l-.08.001Zm159.46.591a2.21 2.21 0 0 1-2.21-2.149 2.21 2.21 0 0 1 2.15-2.28c9.47-.278 18.11-.771 26.42-1.505 1.24-.109 2.3.793 2.4 2.01a2.212 2.212 0 0 1-2.01 2.402c-8.39.742-17.12 1.239-26.68 1.521l-.07.001Zm-26.58.227h-.02c-9.96-.094-19.46-.35-26.62-.562a2.222 2.222 0 0 1-2.15-2.28c.04-1.221 1.03-2.158 2.28-2.148 7.14.212 16.61.468 26.53.561a2.207 2.207 0 0 1 2.19 2.235 2.212 2.212 0 0 1-2.21 2.194Zm-185.91 2.988a2.216 2.216 0 0 1-.26-4.415c8.4-.974 17.34-1.794 26.58-2.439a2.22 2.22 0 0 1 2.36 2.055 2.222 2.222 0 0 1-2.06 2.363c-9.17.641-18.04 1.455-26.37 2.422-.08.01-.17.014-.25.014Zm-52.27 9.366c-.98 0-1.89-.667-2.14-1.67-.3-1.185.41-2.39 1.6-2.692 8.3-2.11 17.09-3.989 26.13-5.586 1.2-.209 2.35.592 2.57 1.796a2.216 2.216 0 0 1-1.8 2.566c-8.93 1.578-17.62 3.434-25.81 5.517-.18.047-.36.069-.55.069Zm-49.94 17.803a2.21 2.21 0 0 1-2-1.257 2.217 2.217 0 0 1 1.04-2.955c7.82-3.749 16.15-7.191 24.75-10.23a2.222 2.222 0 0 1 2.83 1.351 2.22 2.22 0 0 1-1.36 2.825c-8.45 2.987-16.63 6.367-24.31 10.048-.3.148-.63.218-.95.218Zm-44.58 28.66c-.62 0-1.25-.266-1.69-.783a2.22 2.22 0 0 1 .26-3.122 203.694 203.694 0 0 1 21.61-15.94 2.215 2.215 0 0 1 2.39 3.73 198.48 198.48 0 0 0-21.14 15.591c-.41.352-.92.524-1.43.524Zm-35.29 39.489a2.21 2.21 0 0 1-1.84-3.444c4.08-6.116 8.16-11.593 12.11-16.279a176.82 176.82 0 0 1 4.34-4.985 2.218 2.218 0 0 1 3.13-.162c.9.818.98 2.219.16 3.128a187.873 187.873 0 0 0-4.25 4.873c-3.84 4.561-7.81 9.905-11.81 15.885-.42.639-1.13.984-1.84.984Zm-24.76 46.967a2.223 2.223 0 0 1-2.06-3.041c3.25-8.088 7.05-16.268 11.29-24.315a2.225 2.225 0 0 1 3-.926 2.216 2.216 0 0 1 .92 2.993c-4.17 7.911-7.91 15.952-11.1 23.899a2.218 2.218 0 0 1-2.05 1.39Z"
          style="fill-rule:nonzero" transform="translate(-989 -393)"/></svg>