<svg xmlns="http://www.w3.org/2000/svg" xml:space="preserve" style="fill-rule:evenodd;clip-rule:evenodd;stroke-linejoin:round;stroke-miterlimit:2" viewBox="0 0 849 340"><path d="M0 0h512v512H0z" style="fill:none" transform="scale(1.65762 .66406)"/><path d="M0 .982h991V398H0z" style="fill:none" transform="matrix(.85639 0 0 .85638 0 -.841)"/><path d="M340.853 269.107h14.265c2.622 0 4.91.959 6.807 2.852 1.991 1.994 2.96 4.257 2.96 6.919v3.401c0 2.288-.825 4.227-2.519 5.926-1.723 1.719-3.642 2.521-6.039 2.521h-15.474v-21.619Zm17.711-19.346c-1.51 1.578-3.567 2.344-6.298 2.344h-11.413v-16.024h12.623c2.26 0 3.787.604 5.269 2.084 1.536 1.536 2.193 3.111 2.193 5.268 0 2.703-.71 4.596-2.374 6.328Zm14.321 9.139c3.356-4.413 5.053-9.609 5.053-15.467 0-6.626-2.425-12.409-7.195-17.18-4.631-4.761-10.441-7.176-17.267-7.176h-23.925c-3.355 0-5.703 2.344-5.703 5.702v77.252c0 3.305 2.399 5.703 5.703 5.703h26.776c6.983 0 13.038-2.512 17.99-7.463 5.025-5.021 7.574-11.075 7.574-17.992v-3.401c0-5.066-1.407-9.851-4.176-14.208a25.422 25.422 0 0 0-4.83-5.77ZM413 247.822c0-3.668 1.219-6.597 3.838-9.22 2.506-2.509 5.489-3.729 9.111-3.729 3.625 0 6.604 1.22 9.108 3.73 2.623 2.619 3.843 5.549 3.843 9.219v31.492c0 3.729-1.182 6.534-3.843 9.111-2.583 2.585-5.564 3.842-9.108 3.842-3.546 0-6.536-1.269-9.16-3.892-2.587-2.502-3.789-5.381-3.789-9.061v-31.492Zm12.949-29.953c-8.229 0-15.354 2.955-21.178 8.781-5.82 5.822-8.776 12.947-8.776 21.172v31.492c0 8.225 2.956 15.35 8.776 21.174 5.824 5.825 12.949 8.779 21.178 8.779 8.229 0 15.351-2.954 21.173-8.779 5.824-5.824 8.781-12.949 8.781-21.174v-31.492c0-8.225-2.957-15.35-8.781-21.172-5.822-5.826-12.944-8.781-21.173-8.781Zm152.924 72.857h-10.645v-54.645h7.789c4.223 0 7.668 1.431 10.539 4.389 3.029 3.028 4.5 6.475 4.5 10.536v27.539c0 3.451-1.146 6.166-3.625 8.564-2.463 2.467-5.183 3.617-8.558 3.617Zm-2.856-71.649h-19.09c-3.359 0-5.705 2.344-5.705 5.702v77.252c0 3.305 2.397 5.703 5.705 5.703h21.946c8.005 0 14.943-2.879 20.63-8.561 5.678-5.683 8.555-12.625 8.555-20.628v-27.539c0-8.737-3.174-16.34-9.435-22.6-6.19-6.192-13.793-9.329-22.606-9.329Zm95.324 71.649h-28.203V269h23.483c3.189 0 5.593-2.454 5.593-5.705V257.7c0-3.361-2.302-5.706-5.593-5.706h-23.483v-15.913h27.434c3.25 0 5.705-2.453 5.705-5.706v-5.596c0-3.303-2.399-5.702-5.705-5.702h-38.737c-3.357 0-5.705 2.344-5.705 5.702v77.252c0 3.305 2.401 5.703 5.705 5.703h39.506c3.301 0 5.703-2.398 5.703-5.703v-5.6c0-3.305-2.402-5.705-5.703-5.705Zm59.159-26.553h-12.579l6.258-21.202 6.321 21.202Zm4.201-41.146c-.813-2.436-2.869-3.95-5.366-3.95h-10.312c-2.535 0-4.549 1.508-5.393 4.057l-23.437 76.645a5.416 5.416 0 0 0-.463 2.252c0 3.305 2.398 5.703 5.699 5.703h5.817c2.64 0 4.828-1.654 5.429-4.055l6.93-22.504h21.139l6.875 22.648.109.307c.898 2.256 2.91 3.604 5.389 3.604h5.814c3.25 0 5.705-2.452 5.705-5.703 0-.822-.162-1.582-.418-2.107l-23.517-76.897Zm87.34-3.95h-5.596c-3.303 0-5.703 2.399-5.703 5.702v56.397c0 3.222-1.004 5.694-3.182 7.797-2.215 2.216-4.762 3.294-7.793 3.294-3.068 0-5.56-1.06-7.855-3.349-2.141-2.073-3.227-4.675-3.227-7.742v-56.397c0-3.358-2.35-5.702-5.703-5.702h-5.6c-3.304 0-5.705 2.399-5.705 5.702v56.397c0 7.716 2.77 14.398 8.229 19.862 5.463 5.461 12.146 8.229 19.861 8.229 7.713 0 14.406-2.778 19.893-8.266 5.365-5.496 8.086-12.165 8.086-19.825v-56.397c0-3.358-2.35-5.702-5.705-5.702Zm58.861 44.13 19.803-36.254.375-1.033c.527-2.395-.256-4.024-1.016-4.969-.611-.762-2.006-2.035-4.471-2.035h-5.705c-2.351 0-4.316 1.295-5.076 3.246l-13.211 24.086-13.15-23.952c-.819-2.085-2.784-3.38-5.135-3.38h-5.703c-2.475 0-3.865 1.276-4.475 2.035-.76.942-1.547 2.57-.967 5.123l.399 1.029 19.73 36.104-19.738 35.987-.312.758c-.782 2.61.146 4.395.765 5.225.61.825 2.026 2.209 4.645 2.209h5.81c2.264 0 4.19-1.285 5.117-3.355l13.014-23.809 12.975 23.723c.961 2.156 2.89 3.441 5.158 3.441h5.812c2.606 0 4.022-1.383 4.633-2.205.627-.834 1.551-2.619.733-5.348l-20.01-36.626ZM512.89 244.093v4.389c0 2.232-.719 3.906-2.41 5.597-1.694 1.692-3.369 2.414-5.603 2.414H491.27v-20.412h13.607c2.218 0 4.034.737 5.529 2.231 1.744 1.82 2.484 3.549 2.484 5.781Zm19.68 55.699-15.461-29.458a26.118 26.118 0 0 0 5.433-4.188c4.879-4.879 7.352-10.822 7.352-17.664v-4.389c0-6.917-2.473-12.896-7.352-17.773-4.8-4.806-10.744-7.243-17.665-7.243h-24.906c-3.356 0-5.705 2.344-5.705 5.702v77.252c0 3.305 2.401 5.703 5.705 5.703h5.599c3.249 0 5.7-2.452 5.7-5.703v-28.535h9.058l15.933 30.461c.963 2.176 2.898 3.476 5.176 3.476h5.816c2.614 0 4.03-1.383 4.635-2.205.623-.838 1.549-2.631.766-5.23a1.156 1.156 0 0 0-.084-.206Zm-261.713-59.824c0-1.715-.569-3.17-1.817-4.365-1.248-1.246-2.703-1.818-4.366-1.818-1.714 0-3.22.572-4.415 1.818-1.195 1.195-1.819 2.65-1.819 4.365v7.899c0 1.714.624 3.169 1.819 4.416 1.195 1.195 2.701 1.818 4.415 1.818 1.715 0 3.17-.623 4.366-1.818 1.248-1.247 1.817-2.702 1.817-4.416v-7.899Zm3.274 17.2h-1.713c-.417 0-.573-.209-.573-.573v-.467c0-.416-.207-.572-.571-.572-.156 0-.259 0-.312.104-1.922 1.508-4 2.234-6.288 2.234-2.754 0-5.09-.987-7.066-2.961-1.975-1.974-2.961-4.314-2.961-7.066v-7.899c0-2.754.986-5.091 2.961-7.066 1.923-1.975 4.312-2.91 7.066-2.91 1.923 0 3.691.468 5.248 1.507.106.051.207.104.417.104.364 0 .518-.156.518-.469v-11.118c0-.416.209-.572.572-.572h2.702c.365 0 .519.156.519.572v36.579c0 .364-.154.573-.519.573Zm22.286-17.668c0-1.558-.521-2.909-1.663-4.052-1.143-1.144-2.492-1.663-4.053-1.663-1.557 0-2.909.519-4 1.663-1.143 1.143-1.716 2.494-1.716 4.052v1.767c0 .364.209.571.573.571h10.338c.366 0 .521-.207.521-.571V239.5Zm3.274 6.132h-14.133c-.364 0-.573.207-.573.572v1.61c0 1.767.626 3.222 1.821 4.416 1.246 1.248 2.699 1.871 4.415 1.871 2.181 0 4.156-.623 5.924-1.871.259-.207.52-.155.727.104l1.559 2.235c.209.259.156.571-.157.78-2.337 1.714-5.041 2.545-8.053 2.545-2.753 0-5.092-.987-7.065-2.961-1.976-1.974-2.964-4.314-2.964-7.119V239.5c0-2.649.935-4.883 2.808-6.754 1.869-1.819 4.103-2.754 6.701-2.754 2.65 0 4.885.935 6.756 2.805 1.871 1.872 2.752 4.105 2.752 6.703v5.56c0 .364-.154.572-.518.572ZM101.784 139.429v26.557c0 4.974 1.719 9.266 5.319 12.869 3.603 3.604 7.722 5.318 12.869 5.318 4.977 0 9.266-1.714 12.697-5.318 3.603-3.603 5.49-7.895 5.49-12.869V108.68c0-1.202.514-1.715 1.716-1.715h8.921c1.203 0 1.889.513 1.889 1.715v57.306c0 8.408-3.091 15.614-9.094 21.619-6.005 6.004-13.211 9.094-21.619 9.094-8.405 0-15.784-3.09-21.792-9.094-6.004-6.005-8.921-13.211-8.921-21.619v-13.682l12.525-12.875Zm248.007-11.167-14.185 39.075c-.344.686-.689.858-1.374.858-.514 0-1.03-.172-1.203-.858l-21.274-58.709c-.512-1.203-1.198-1.917-2.228-1.917h-9.267c-1.715 0-2.401 1.059-1.715 2.774l30.368 83.448c.344 1.029.858 1.778 1.888 1.778h7.034c.857 0 1.543-.647 1.888-1.676l20.523-56.746-10.455-8.027Zm129.925 13.285v51.012c0 1.199-.685 1.884-1.887 1.884h-8.749c-1.203 0-1.889-.685-1.889-1.884v-36.375l12.525-14.637Zm80.259-21.117c-5.278-2.026-10.885-3.011-16.822-3.011-3.26 0-6.004 1.026-8.406 3.431-2.233 2.229-3.262 4.974-3.262 8.236 0 5.66 2.746 9.263 8.408 10.806l18.016 4.805c6.004 1.543 10.636 4.806 14.24 9.438 3.432 4.63 5.318 9.952 5.318 15.785 0 7.549-2.744 13.894-8.064 19.216-5.319 5.147-11.666 7.893-19.045 7.893-12.525 0-24.191-3.09-34.656-9.439-1.202-.686-1.375-1.544-.686-2.745l4.461-7.549c.514-1.029 1.371-1.029 2.4-.515 8.75 5.149 18.362 7.722 28.481 7.722 3.949 0 7.379-1.375 10.297-4.289 2.746-2.745 4.289-6.179 4.289-10.294 0-2.918-1.031-5.665-2.918-8.237-1.889-2.573-4.289-3.944-7.207-4.803l-18.184-4.976c-5.322-1.371-9.611-4.289-12.869-8.578-3.261-4.291-4.807-9.094-4.807-14.24 0-6.694 2.233-12.357 7.036-17.159 4.804-4.804 10.468-7.033 17.158-7.033 7.497 0 14.741 1.278 21.608 3.956l-4.786 11.58Zm51.524 73.839h-8.75c-1.375 0-1.887-.685-1.887-1.885v-83.729c0-1.202.512-1.715 1.887-1.715h8.75c1.199 0 1.886.513 1.886 1.715v83.729c0 1.2-.687 1.885-1.886 1.885Zm1.543-105.689c-1.543 1.716-3.604 2.573-6.004 2.573-2.233 0-4.289-.857-5.836-2.573-1.715-1.543-2.573-3.603-2.573-5.832 0-2.4.858-4.46 2.573-6.004 1.547-1.719 3.603-2.404 5.836-2.404 2.4 0 4.461.685 6.004 2.404 1.714 1.544 2.572 3.604 2.572 6.004 0 2.229-.858 4.289-2.572 5.832Zm140.941 47.209c0-5.151-1.715-9.612-5.49-13.387-3.772-3.773-8.233-5.487-13.383-5.487-5.147 0-9.608 1.714-13.209 5.487-3.776 3.775-5.664 8.236-5.664 13.387v5.832c0 1.201.689 1.886 1.888 1.886h34.143c1.203 0 1.715-.685 1.715-1.886v-5.832Zm10.81 20.244h-46.668c-1.199 0-1.888.685-1.888 1.887v5.318c0 5.832 2.06 10.637 6.008 14.586 4.115 4.115 8.922 6.176 14.582 6.176 7.205 0 13.726-2.061 19.562-6.176.858-.69 1.715-.518 2.401.34l5.146 7.379c.686.857.516 1.888-.514 2.574-7.722 5.662-16.644 8.408-26.595 8.408-9.096 0-16.815-3.264-23.334-9.779-6.518-6.522-9.78-14.241-9.78-23.508v-27.449c0-8.754 3.09-16.129 9.266-22.309 6.176-6.004 13.555-9.091 22.131-9.091 8.75 0 16.129 3.087 22.305 9.263 6.175 6.177 9.093 13.557 9.093 22.137v18.355c0 1.203-.513 1.889-1.715 1.889Z" style="fill:#3b1b12;fill-rule:nonzero" transform="matrix(.85639 0 0 .85638 0 -.841)"/><path d="M746.423 68.473c-1.765 2.21-3.681 5.746-5.597 7.953-2.207 1.916-5.153 6.482-7.215 8.249 0 .441-1.324 1.914-1.324 1.914-.737 2.063-1.329 1.62-2.356 2.504-1.623 1.621-3.389 1.768-4.566.884-2.508-1.621 1.619-7.365 3.681-9.721.293-.442.293-.736.293-1.178.592-1.031 1.032-2.209 1.619-3.094.592-.589 1.032-.589 1.475-.883-.146-1.033 1.178-2.503 1.473-3.387.734-.884.443-2.358 1.328-3.241 1.176-1.033 1.471-1.769 2.057-3.094.593 0 1.476-1.029 1.476-1.029.293-1.326.588-2.799 1.176-3.978 0 0 .443-.589.738-.589 1.178-1.325 1.326-3.386 2.506-4.566.883-.589 2.65-.884 3.83-.589 2.059.589 4.418 1.473 6.184 4.123.293 4.273-4.125 7.071-6.778 9.722Zm-253.245 36.443c-5.756 0-9.062 2.795-13.326 9.795h.035v-8h-23v7h6.014c2.985 0 3.986.92 3.986 4.014l.304 38.459 12.525-14.637.171-15.143c0-6.869 4.407-15.611 13.15-15.611 1.599 0 3.269.214 4.442 1.494-3.838.105-7.055 2.344-7.055 6.395 0 4.372 3.405 6.825 7.563 6.825 5.221 0 8.098-4.111 8.098-8.912 0-7.782-6.082-11.679-12.907-11.679Zm71.583 3.934c3.932 0 7.028-2.432 8.928-7.044h7.117v45.346h-8.336c-1.355-11.389-5.716-20.014-12.495-26.722l4.786-11.58ZM266.766 74.275h12.226v15.93h-12.226z" style="fill:#009de0;fill-rule:nonzero" transform="matrix(.85639 0 0 .85638 0 -.841)"/><path d="M279.13 132.711v59.867c0 1.2-.685 1.885-1.885 1.885h-8.751c-1.373 0-1.888-.685-1.888-1.885v-59.867h12.524Z" style="fill:#3b1b12;fill-rule:nonzero" transform="matrix(.85639 0 0 .85638 0 -.841)"/><path d="M277.369 100.711c-4.222 8-8.482 9.447-20.482 10.46v4.054c3 0 8.044-.271 9.396 3.613.459 1.379.332-.127.323 13.873h12.524c0-14 .438-23 1.788-32h-3.549Zm91.607 11.459c5.615 0 5.615.176 7.37.176 1.229 0 2.63-1.227 2.63-3.158 0-1.752-1.401-2.98-2.63-2.98-1.755 0-2.809.877-14.207.877h-.527c-11.928 0-12.277-.877-14.031-.877-1.401 0-2.807 1.228-2.807 2.98 0 1.931 1.406 3.158 2.807 3.158 1.754 0 1.929-.176 7.893-.176l-5.683 16.092 10.455 8.027 8.73-24.119Z" style="fill:#009de0;fill-rule:nonzero" transform="matrix(.85639 0 0 .85638 0 -.841)"/><path d="M434.608 135.945c0-5.147-1.718-9.608-5.491-13.381-3.775-3.777-8.237-5.49-13.384-5.49-5.145 0-9.609 1.713-13.212 5.49-3.772 3.773-5.66 8.234-5.66 13.381v5.836c0 1.201.685 1.885 1.888 1.885h34.141c1.205 0 1.718-.684 1.718-1.885v-5.836Zm-50.275 22.623v-22.623c0-8.75 3.09-16.128 9.266-22.305 6.176-6.005 13.555-9.093 22.134-9.093 8.751 0 16.129 3.088 22.306 9.266 6.176 6.177 9.093 13.556 9.093 22.132v18.361c0 1.201-.512 1.887-1.715 1.887h-46.668c-1.203 0-1.888.685-1.888 1.889v5.318c0 1.562.148 3.052.441 4.471l-12.969-9.303Z" style="fill:#3b1b12;fill-rule:nonzero" transform="matrix(.85639 0 0 .85638 0 -.841)"/><path d="M409.398 182.711c6.238 3.828 13.521 5.323 19.703 5.323 12.27 0 17.847-4.462 18.963-4.462.928 0 .928 1.115.928 1.49 0 .928-14.128 11.896-29.183 11.896-15.243 0-35.476-7.347-35.476-38.39l12.969 9.303c2.51 6.885 6.912 11.658 12.096 14.84Z" style="fill:#009de0;fill-rule:nonzero" transform="matrix(.85639 0 0 .85638 0 -.841)"/><path d="M658.902 130.211v35.123c0 5.491 1.887 10.124 5.66 13.898 3.775 3.775 8.408 5.662 13.9 5.662 4.461 0 9.094-1.373 13.727-4.289 1.199-.686 1.885-.516 2.744.514l4.977 7.036c.685 1.028.513 1.888-.516 2.573-6.178 4.463-13.211 6.692-20.932 6.692-8.921 0-16.3-3.088-22.648-9.438-6.35-6.348-9.439-13.727-9.439-22.648v-39.467l12.527 4.344Z" style="fill:#3b1b12;fill-rule:nonzero" transform="matrix(.85639 0 0 .85638 0 -.841)"/><path d="M646.375 125.88v-6.689c-4.299-.329-9.565 0-13.698 1.654l-1.156-.828c1.984-5.618 8.266-9.424 14.549-9.424 2.808-1.652 2.644-17.071 4.959-19.88.992-1.156 4.336-3.308 6.82-5.456 1.156 1.818-1.984 23.849 1.156 24.345 11.243 1.984 22.942 2.481 33.522-.827 2.148 1.653 0 3.639-.992 5.126-8.93 8.267-21.059 4.795-32.633 5.126v11.193l-12.527-4.34Zm-544.578-18.902H77.259v9.377h12v35.949l12.525-12.875.013-32.451Z" style="fill:#009de0;fill-rule:nonzero" transform="matrix(.85639 0 0 .85638 0 -.841)"/><path d="M226.656 170.77v-35.254c0-4.974-1.715-9.262-5.319-12.693-3.603-3.604-7.891-5.322-12.865-5.322-4.978 0-9.267 1.718-12.869 5.322-3.431 3.431-5.319 7.719-5.319 12.693v57.309c0 1.199-.517 1.885-1.888 1.885h-8.749c-1.202 0-1.888-.686-1.888-1.885v-57.309c0-8.404 3.087-15.613 9.094-21.617 6.004-6.006 13.21-8.922 21.619-8.922 8.404 0 15.611 2.916 21.615 8.922 6.008 6.004 9.094 13.213 9.094 21.617v28.368l-12.525 6.886Z" style="fill:#3b1b12;fill-rule:nonzero" transform="matrix(.85639 0 0 .85638 0 -.841)"/><path d="M240.775 188.872c-1.244-3.797-1.594-15.423-1.594-24.988l-12.525 6.886.231 13.484c0 5.634 1.428 10.285 2.549 13.952 7.625-2.818 14.451-5.24 22.451-7.271v-4.42c-4 1.442-7.709 2.228-11.112 2.357Z" style="fill:#009de0;fill-rule:nonzero" transform="matrix(.85639 0 0 .85638 0 -.841)"/></svg>