<?xml version="1.0" encoding="UTF-8"?>
<svg id="n_xB0_1" xmlns="http://www.w3.org/2000/svg" version="1.1" viewBox="0 0 825.3 257.3">
  <path d="M297,205.8c3.4-4.4,5.1-9.6,5.1-15.5s-2.4-12.6-7.2-17.4c-4.6-4.8-10.4-7.4-17.3-7.4h-23.9c-3.4,0-5.7,2.7-5.7,6.1v77.3c0,3.3,2.4,5.7,5.7,5.7h26.8c7,0,13-2.5,18-7.5s7.6-11.1,7.6-18v-3.4c0-5.1-1.4-9.9-4.2-14.2-1.4-2.2-3-4.1-4.8-5.8h-.1ZM265,182.6h12.6c2.3,0,3.8.8,5.3,2.3s2.2,3.2,2.2,5.4-.7,4.4-2.4,6.2c-1.5,1.6-3.6,2.2-6.3,2.2h-11.4v-16h0ZM289,229.2c0,2.3-.8,4.2-2.5,5.9-1.7,1.7-3.6,2.5-6,2.5h-15.4v-22h14.2c2.6,0,4.9,1.2,6.8,3,2,2,3,4.5,3,7.1v3.4h-.1Z" style="fill: #fff;"/>
  <path d="M371.2,173.6c-5.8-5.8-12.9-8.8-21.2-8.8s-15.4,3-21.2,8.8c-5.8,5.8-8.8,12.9-8.8,21.2v31.5c0,8.2,3,15.3,8.8,21.2,5.8,5.8,13,8.8,21.2,8.8s15.4-3,21.2-8.8c5.8-5.8,8.8-12.9,8.8-21.2v-31.5c0-8.2-2.9-15.3-8.8-21.2ZM363,226.2c0,3.7-1.2,6.5-3.8,9.1-2.6,2.6-5.6,3.8-9.1,3.8s-6.6-1.3-9.2-3.9c-2.6-2.5-3.8-5.4-3.8-9.1v-31.5c0-3.7,1.3-6.6,3.9-9.2,2.5-2.5,5.5-3.7,9.1-3.7s6.6,1.2,9.1,3.7,3.9,5.5,3.9,9.2v31.5h-.1Z" style="fill: #fff;"/>
  <path d="M500.1,165.6h-19.1c-3.4,0-6,2.7-6,6.1v77.3c0,3.3,2.7,5.7,6,5.7h21.9c8,0,14.9-2.9,20.5-8.5,5.7-5.7,8.5-12.6,8.5-20.6v-27.5c0-8.7-3.1-16.5-9.3-22.8-6.2-6.2-13.7-9.5-22.5-9.5v-.2ZM515,225.5c0,3.5-1.1,6.2-3.5,8.6-2.5,2.5-5.1,3.6-8.5,3.6h-11v-55h8.1c4.2,0,7.6,1.6,10.5,4.6,3,3,4.4,6.7,4.4,10.7v27.5h0Z" style="fill: #fff;"/>
  <path d="M555.9,254.6h39.5c3.3,0,5.5-2.4,5.5-5.7v-5.6c0-3.3-2.2-5.7-5.5-5.7h-28.5v-22h23.7c3.2,0,5.3-2.2,5.3-5.4v-5.6c0-3.4-2-6-5.3-6h-23.7v-16h27.7c3.2,0,5.3-2.1,5.3-5.3v-5.6c0-3.3-2-6.1-5.3-6.1h-38.7c-3.4,0-5.9,2.7-5.9,6.1v77.3c0,3.3,2.6,5.7,5.9,5.7h0Z" style="fill: #fff;"/>
  <path d="M658.8,169.8c-.8-2.4-2.9-4.1-5.4-4.1h-10.3c-2.5,0-4.5,1.7-5.4,4.2l-23.4,76.7c-.3.7-.5,1.5-.5,2.3,0,3.3,2.4,5.7,5.7,5.7h5.8c2.6,0,4.8-1.9,5.4-4.3l6.9-22.7h21.1l6.9,22.9v.4c1,2.3,3,3.7,5.5,3.7h5.8c3.2,0,5.7-2.4,5.7-5.7s-.2-1.7-.4-2.2l-23.5-77h.1ZM642,210.6l6.3-21.2,6.3,21.2h-12.6Z" style="fill: #fff;"/>
  <path d="M746.1,165.6h-5.6c-3.3,0-5.6,2.8-5.6,6.1v56.4c0,3.2-1.1,5.7-3.3,7.8-2.2,2.2-4.8,3.3-7.8,3.3s-5.5-1.1-7.8-3.3c-2.1-2.1-3.1-4.7-3.1-7.7v-56.4c0-3.4-2.6-6.1-5.9-6.1h-5.6c-3.3,0-5.5,2.8-5.5,6.1v56.4c0,7.7,2.7,14.4,8.1,19.9,5.5,5.5,12.1,8.2,19.8,8.2s14.5-2.8,19.9-8.3,8.1-12.2,8.1-19.8v-56.4c0-3.4-2.5-6.1-5.8-6.1h0Z" style="fill: #fff;"/>
  <path d="M766.3,246.9c-.8,2.6,0,4.6.8,5.4.6.8,2,2.4,4.6,2.4h5.8c2.3,0,4.2-1.4,5.1-3.5l13-23.9,13,23.8c1,2.2,2.9,3.6,5.2,3.6h5.8c2.6,0,4-1.5,4.6-2.4.6-.8,1.6-2.7.7-5.4l-20-36.7,19.8-36.3.4-1c.5-2.4-.3-4.1-1-5.1-.6-.8-2-2.1-4.5-2.1h-5.7c-2.4,0-4.3,1.4-5.1,3.3l-13.2,24.1-13.2-24c-.8-2.1-2.8-3.5-5.1-3.5h-5.7c-2.5,0-3.9,1.4-4.5,2.1-.8.9-1.5,2.6-1,5.2l.4,1.1,19.7,36.1-19.7,36-.3.8h.1Z" style="fill: #fff;"/>
  <path d="M454,195.4v-4.4c0-6.9-2.5-13.1-7.3-18-4.8-4.8-10.7-7.4-17.7-7.4h-24.9c-3.4,0-6.1,2.7-6.1,6.1v77.3c0,3.3,2.8,5.7,6.1,5.7h5.6c3.2,0,5.3-2.4,5.3-5.7v-28.3h9.4l15.9,30.5c1,2.2,2.9,3.5,5.2,3.5h5.8c2.6,0,4-1.5,4.6-2.3s1.5-2.7.8-5.3v-.2l-15.5-29.5c1.9-1.1,3.8-2.5,5.4-4.2,4.9-4.9,7.3-10.8,7.3-17.7h.1ZM437,195.4c0,2.2-.7,4-2.4,5.7-1.7,1.7-3.4,2.5-5.6,2.5h-14v-21h14c2.2,0,4,.9,5.5,2.4,1.7,1.8,2.5,3.7,2.5,6v4.4h0Z" style="fill: #fff;"/>
  <path d="M188.8,204.8c2.3,0,4.4-.7,6.3-2.2,0-.1.2-.1.3-.1.4,0,.6.2.6.6v.5c0,.4.1.1.5.1h1.7c.4,0,.8.2.8-.1v-36.6c0-.4-.4-.3-.8-.3h-2.7c-.4,0-.5-.1-.5.3v11.1c0,.3-.2.5-.5.5s-.3,0-.4-.1c-1.6-1-3.3-1.5-5.3-1.5s-5,.9-6.9,2.9c-2,2-2.8,4.3-2.8,7.1v7.9c0,2.8.9,5.1,2.8,7.1,2,2,4.2,3,6.9,3v-.2ZM183,186.9c0-1.7.4-3.2,1.6-4.4s2.6-1.8,4.3-1.8,3.1.6,4.3,1.8c1.2,1.2,1.8,2.7,1.8,4.4v7.9c0,1.7-.6,3.2-1.8,4.4-1.2,1.2-2.7,1.8-4.4,1.8s-3-.6-4.2-1.8-1.6-2.7-1.6-4.4v-7.9h0Z" style="fill: #fff;"/>
  <path d="M205,194.7c0,2.8,1.1,5.1,3.1,7.1s4.4,3,7.1,3,5.8-.8,8.1-2.5c.3-.2.4-.5.2-.8l-1.5-2.2c-.2-.3-.5-.3-.7-.1-1.8,1.2-3.7,1.9-5.9,1.9s-3.2-.6-4.5-1.9c-1.2-1.2-1.9-2.6-1.9-4.4v-1.6c0-.4.3-.5.7-.5h14.1c.4,0,.2-.3.2-.7v-5.6c0-2.6-.7-4.8-2.6-6.7s-4-2.8-6.7-2.8-4.9.9-6.8,2.8c-1.9,1.9-2.9,4.1-2.9,6.8v8.3h0ZM209,186.4c0-1.6.6-2.9,1.8-4.1,1.1-1.1,2.5-1.7,4-1.7s3.2.5,4.3,1.7c1.1,1.1,1.9,2.5,1.9,4.1v1.8c0,.4-.6.4-1,.4h-10.3c-.4,0-.7,0-.7-.4v-1.8h0Z" style="fill: #fff;"/>
  <path d="M531.1,39.6c2.8,0,5.3-1,7.1-3,1.9-1.8,3-4.2,3-6.9s-1-5.3-3-7.1c-1.7-1.9-4.1-2.8-7.1-2.8s-5.2,1-6.9,2.8c-2,1.8-3,4.2-3,7.1s1.1,5.1,3,6.9c1.8,1.9,4.2,3,6.9,3Z" style="fill: #fff;"/>
  <path d="M535.6,52.6h-8.7c-2.9,0-3.9,1.7-3.9,2.9v83.7c0,2.1,1.7,3.3,3.9,3.3h8.7c2,0,3.4-1.3,3.4-3.3V55.5c0-2-1.3-2.9-3.4-2.9Z" style="fill: #fff;"/>
  <path d="M660.9,144.9c10.4,0,19.6-2.9,27.4-8.7.9-.6,1.4-1.4,1.6-2.3,0-.9,0-1.7-.6-2.4l-5.2-7.5c-.9-1.1-1.8-1.3-2.5-1.3s-1.4.3-1.9.7c-5.6,3.9-11.8,5.9-18.7,5.9s-9.6-1.9-13.4-5.7c-3.7-3.7-5.5-8.2-5.5-13.5v-5.5h47c2,0,3.1-1.5,3.1-3.6v-18.4c0-9.1-3.1-16.9-9.5-23.2-6.4-6.4-14.3-9.7-23.3-9.7s-16.8,3.2-23.3,9.5c-6.4,6.4-9.9,14.3-9.9,23.4v27.4c0,9.7,3.5,17.7,10.4,24.6,6.8,6.8,15.2,10.2,24.6,10.2h-.3ZM642,82.7c0-4.8,1.6-8.8,5.2-12.4,3.2-3.4,7.2-5,12.1-5s9.1,1.7,12.5,5c3.4,3.4,5.2,7.4,5.2,12.3v5.8c0,.2-.2.2-.2.2,0,0-.3-.1-.4-.1h-34.1c-.2,0-.2.1-.3,0v-6,.2Z" style="fill: #fff;"/>
  <path d="M648.6,38.1c.7.5,1.6.8,2.5.8s2.4-.3,4-1.8c.2,0,.3-.2.5-.3.8-.4,1.5-.9,2.1-2.5.7-.9,1.1-1.4,1.3-1.9,1-1,2.2-2.4,3.4-3.9s2.5-3.2,3.5-4c0,0,0,0,0,0,1.1-1.3,2.2-2.9,3.2-4.6.8-1.3,1.6-2.4,2.3-3.4.5-.5,1-1,1.6-1.5,2.6-2.3,5.8-5.2,5.5-9.3,0-.3,0-.5-.2-.7-2-3-4.5-4-7.1-4.7-1.6-.4-3.8,0-5,.8,0,0-.2,0-.2.2-.8.8-1.2,1.9-1.6,2.8-.2.6-.5,1.2-.8,1.6-.4.2-.8.6-1,.9v.2c-.7,1.2-1,2.6-1.3,3.9,0,0-.2.2-.3.3-.5,0-.9.4-1.1.9v.2c-.6,1.2-.8,1.6-1.7,2.5-.8.8-1,1.8-1.1,2.5,0,.3-.2.7-.3.9,0,0-.2.3-.3.5,0,.2-.3.5-.5.8-.4.6-.8,1.3-1,2-.3.2-.7.4-1.1.8,0,0,0,0-.2.2-.4.6-.7,1.2-1,1.9-.2.4-.4.9-.7,1.3,0,.2-.2.5-.2.7v.3c-1.1,1.3-5.2,6.2-4.7,9.6,0,1,.6,1.7,1.4,2.3v-.2ZM654.3,28.2s0,0,0-.2c.4-.6.5-1.2.5-1.6.2-.4.4-.8.6-1.1.2-.5.5-1,.7-1.4,0,0,.2,0,.4-.2.2,0,.4-.2.7-.4.5-.3.7-.8.7-1.4s.4-1,.7-1.3c.2-.4.5-.8.6-1.2.4-.6.6-1.3.7-1.9,0-.4.2-.8.3-.9,1.2-1.1,1.7-1.9,2.2-3,.6-.3,1.2-.9,1.5-1.3.2-.2.3-.4.3-.7v-.3c.3-1.1.6-2.3,1-3.2h0c.2,0,.4-.2.6-.4.8-.8,1.1-1.8,1.5-2.7.3-.7.5-1.3.8-1.7.4-.2,1.1-.4,1.8-.4s.5,0,.6,0c1.7.5,3.6,1.2,5.1,3.2,0,2.5-2.3,4.5-4.5,6.5-.6.6-1.3,1.1-1.8,1.7h0c-.8,1.2-1.7,2.4-2.6,3.8-1,1.5-2,3-2.9,4.2-1.2,1.1-2.5,2.7-3.8,4.4-1.2,1.5-2.4,3-3.3,3.8-.2.2-.4.5-.5.8,0,.2-.6.8-1,1.2,0,0-.2.3-.3.5-.3.9-.4.9-.8,1.1-.3.2-.7.4-1.1.7h0c-.9.9-2,1.2-2.6.7h0v-.2c-.2-1.2,1.7-4.5,4.1-7.3l-.2.2Z" style="fill: #fff;"/>
  <path d="M380.5,62.6h6.5c2.3,0,3,0,3,2.3v74.6c0,2,1.2,3.2,3.2,3.2h8.7c2,0,3.1-1.1,3.1-3.2v-50.9l.3-15.2c0-5.7,3.5-13.6,11-14.1-2.1,1.4-3.3,3.6-3.3,6.4,0,4.9,3.7,8.3,9.1,8.3s9.6-4.2,9.6-10.3c0-9-7.2-13.1-14.4-13.1s-9,2.6-12.3,7.2v-3.7c0-.8-.7-1.5-1.5-1.5h-23c-.8,0-1.5.7-1.5,1.5v7c0,.8.7,1.5,1.5,1.5h0ZM382,55.6h20v6.5c0,.8.7,1.5,1.5,1.5h.5c.5,0,1-.3,1.3-.7,4.3-7.1,7.2-9.3,12-9.3s11.4,2.6,11.4,10.1-1.7,7.3-6.6,7.3-6.1-1.4-6.1-5.3,3-4.8,5.6-4.9c.6,0,1.1-.4,1.3-.9.2-.5.1-1.2-.3-1.6-1.6-1.7-3.8-2-5.5-2-4.5,0-8.3,2-11.1,5.9-2.2,3.1-3.6,7.3-3.6,11.2v14.5c.1,0-10.1,11.4-10.1,11.4v-34.4c0-4.4-2.1-5.3-5.4-5.3h-5v-4h.1Z" style="fill: #fff;"/>
  <path d="M439,135.8c10.6,6.4,22.5,9.7,35.4,9.7s14.4-2.8,20.1-8.3c5.6-5.6,8.5-12.5,8.5-20.3s-1.9-11.7-5.6-16.7c-3.9-5.1-9-8.4-15-10l-18-4.8c-5-1.4-7.3-4.3-7.3-9.4s.9-5.3,2.8-7.2c2-2,4.4-3,7.3-3,5.7,0,11,.9,16,2.8,6.7,6.7,10.6,15.1,11.8,25.6,0,.8.7,1.4,1.5,1.4h8.3c.8,0,1.1-.7,1.1-1.6v-45.3c0-.8-.3-1.1-1.1-1.1h-7.1c-.6,0-1.2.2-1.4.7-1.6,4-4.1,5.9-7.3,6-6.8-2.6-14.2-4-21.8-4s-13.2,2.4-18.2,7.4-7.5,11-7.5,18.2,1.7,10.7,5.1,15.1c3.5,4.6,8.1,7.7,13.7,9.1l18.2,5c2.9.9,4.9,2.2,6.4,4.2,1.7,2.4,2.6,4.8,2.6,7.3,0,3.6-1.3,6.7-3.8,9.2-2.6,2.6-5.6,3.9-9.2,3.9-9.9,0-19.2-2.5-27.7-7.5h0c-1.9-1-3.6-.5-4.4,1.1l-4.4,7.5c-.6,1-.7,1.9-.5,2.7s.8,1.5,1.7,2l-.2.3ZM489.9,57.4c3.8-.4,6.9-2.8,8.9-6.8h4.2v42h-5.1c-1.5-10-5.4-18.7-12-25.6l4-9.6h0Z" style="fill: #fff;"/>
  <path d="M204,21.1c0-.8-.7-1.5-1.5-1.5h-12c-.8,0-1.5.7-1.5,1.5v16c0,.8.7,1.5,1.5,1.5h12c.8,0,1.5-.7,1.5-1.5v-16ZM192,22.6h10v13h-10v-13Z" style="fill: #fff;"/>
  <path d="M180.6,63.6c3.5,0,7.2.2,8.1,2.8v.4c.3.7.2,12.7.2,12.7v59.9c0,2.1,1.5,3.1,3.6,3.1h8.8c2,0,3.6-1.1,3.6-3.1v-59.4c0-14.6.4-23.2,1.6-31.8,0-.4-.2-.9-.5-1.2-.3-.3-.7-.5-1.1-.5h-3.5c-.6,0-1.1.3-1.3.8-3.9,7.5-8.2,8.2-19.8,9.2-.8,0-1.4.7-1.4,1.5v4.1c0,.8.8,1.5,1.6,1.5h0ZM182,59.5c10.4-.9,15.9-2,20.4-9.8h.9c-1.1,7.8-1.5,16-1.6,29h-9.5c0-11-.1-11.4-.5-12.6,0,0,0-.3-.1-.4-1.5-4.2-6.2-4.9-9.6-5v-1.2h0Z" style="fill: #fff;"/>
  <path d="M251.6,140.7c.7,1.9,1.8,2.9,3.3,2.9h7c1.4,0,2.7-1.1,3.3-2.9l28.9-80.1c2.8,0,3.9,0,4.7,0h1.6c2,0,4.1-1.9,4.1-4.7s-2.1-4.5-4.1-4.5-1.1,0-1.8.3c-1.5.2-4.3.8-12.4.8h-.5c-8.5,0-11-.5-12.4-.8-.6,0-1.1-.2-1.7-.2-2.4,0-4.3,2-4.3,4.5s2.2,4.7,4.3,4.7,1.1,0,1.7,0,1.8,0,4.1,0l-19,52.8-21.2-58.2c-.7-1.7-1.9-2.6-3.6-2.6h-9.3c-1.4,0-2.4.4-3,1.3s-.6,2-.1,3.2l30.4,83.5h0ZM281,59.6c.2-.5,0-1-.2-1.4-.3-.4-.7-.6-1.2-.6-3.9,0-5.3,0-6.4,0h-1.5c-.6,0-1.3-.5-1.3-1.7s.8-1.5,1.3-1.5.6,0,1.1.2c1.4.3,4.1.8,12.9.8h.5c8.3,0,11.3-.5,12.9-.8.6,0,1-.2,1.3-.2s1.1.5,1.1,1.5-.7,1.6-1.1,1.6h-1.5c-1,0-2.3,0-5.9,0s-1.2.4-1.4,1l-8,22.2-8-6.1,5.3-15.1h.1Z" style="fill: #fff;"/>
  <path d="M319.5,137.5c7.9,6.5,17.6,7.9,24.4,7.9,14.7,0,30.7-10.6,30.7-13.4s-2-3-2.4-3c-.6,0-1.2.3-2.2.8-2.5,1.2-7.7,3.7-16.8,3.7s-11.7-.7-18.9-5.1c-5.4-3.3-9.5-8-11.7-14-.3-1.3-.6-2.7-.6-4.1v-5.3c0-.2.3-.3.3-.3h47.3c2,0,3.5-1.3,3.5-3.4v-18.4c0-9.1-3.3-16.9-9.7-23.2-6.4-6.4-14.4-9.7-23.4-9.7s-16.7,3.2-23.2,9.5c-6.4,6.4-9.7,14.3-9.7,23.4v22.6c0,14.4,4.2,25.1,12.5,32h0ZM322,82.9c0-4.8,1.9-8.8,5.5-12.3,3.2-3.4,7.3-5,12.2-5s8.9,1.7,12.3,5.1,5,7.4,5,12.3v5.8h-35v-5.8h0ZM320.2,115.7c2.5,6.5,6.7,11.6,12.6,15.2,7.9,4.8,16.2,5.5,20.5,5.5,7.8,0,13-1.7,16.1-3.1-4.6,3.3-14.8,9-25.4,9s-32.5-3.4-33.9-33.9l10.2,7.3h-.1Z" style="fill: #fff;"/>
  <path d="M554.7,68.2l1.2.8c.4.3,1,.4,1.4.2,3.4-1.4,7.4-1.7,10.1-1.7s.5,0,1.5,0v5.3h0v39.5c0,9.3,3.2,17.1,9.9,23.7,6.6,6.6,14.4,9.9,23.7,9.9s15.4-2.3,21.8-6.9c.9-.6,1.4-1.3,1.5-2.1.2-.8,0-1.7-.6-2.6l-5-7h0c-.5-.6-1.4-1.5-2.7-1.5s-1.3.2-2,.6c-4.3,2.7-8.6,4.1-12.9,4.1s-9.1-1.7-12.6-5.2-5-7.7-5-12.8v-35.1h0v-9.7c2,0,4.5,0,6.8.2,2.2,0,4.4.2,6.7.2,5.9,0,12.6-.7,18.3-6,0,0,0-.2.2-.3,0-.2.3-.4.5-.7.9-1.2,3.1-4.2.2-6.5-.4-.3-.9-.4-1.4-.2-4.9,1.5-10.5,2.3-16.6,2.3s-10.1-.5-15.9-1.5c-.8-1.7-.4-9.7-.2-14.1.3-6.4.4-8.6-.3-9.6-.2-.4-.6-.6-1-.7-.4,0-.9,0-1.2.3-1.1.9-2.4,1.9-3.5,2.8-1.6,1.2-2.8,2.1-3.4,2.9-1.3,1.5-1.8,4.9-2.5,10.2-.4,3-1.1,7.9-1.9,9.2-6.9.2-13.3,4.5-15.4,10.4-.2.6,0,1.3.5,1.7h-.2ZM570.2,59c.3,0,.5,0,.8-.2,2-1.2,2.7-5.2,3.5-11.6.4-3.2,1-7.7,1.8-8.6.4-.5,1.7-1.5,2.9-2.4.5-.4,1-.7,1.5-1.1,0,1.6,0,3.8-.2,5.7-.6,11.6-.6,16.7,2.4,17.2,6.1,1.1,11.6,1.6,16.7,1.6s11.5-.7,16.4-2.2c0,.3-.3.8-1,1.7-.2.2-.3.5-.5.7-4.9,4.5-10.9,5.1-16.2,5.1s-4.5,0-6.7-.2c-2.8,0-5.6-.3-8.5-.2-.8,0-1.2.7-1.2,1.5v9.1l-10-3.3v-5.6c0-.8-.6-1.4-1.4-1.5-1,0-2.1,0-3.1,0-2.6,0-6.2.2-9.7,1.3,2.3-4,7.2-6.8,12.4-6.8h0Z" style="fill: #fff;"/>
  <path d="M72.9,52.6h-8.9c-2,0-3,.9-3,3v57.3c0,4.5-1.8,8.5-5.2,11.8-3.1,3.2-7,4.9-11.7,4.9s-8.8-1.6-12.1-4.9c-3.3-3.3-5-7.1-5-11.8v-59c0-.4,0-.7-.2-.9-.3-.3-.5-.3-.9-.3H1.4c-.8,0-1.4.4-1.4,1.3v9.4c0,.8.5,1.4,1.4,1.4h10.6v48.3c0,8.8,3.1,16.5,9.3,22.7,6.3,6.3,14,9.5,22.8,9.5s16.2-3.2,22.5-9.5,9.4-14,9.4-22.7v-57.3c0-2-1-3-3.1-3v-.2ZM24.4,85.9l-5.2,5.3-4.2,4.3v-32.3c0-.8-.8-1.6-1.6-1.6H3v-6h21.4v30.2h0Z" style="fill: #fff;"/>
  <path d="M103.7,143.6h8.7c2.1,0,3.5-1.8,3.5-3.9v-57.3c0-4.5,1.6-8.4,4.8-11.6s7.1-4.9,11.8-4.9,8.4,1.6,11.7,4.9c3.2,3.1,4.7,7,4.7,11.6v34.8c0,.1.4,13.9.4,13.9,0,5.8,1.2,10.5,2.4,14.4.1.4.4.7.8.9.2.1.4.2.7.2h.5c7.2-2.7,14-5.2,22.1-7.2.7-.2,1.1-.8,1.1-1.5v-4.4c0-.5-.2-.9-.6-1.2-.4-.3-.9-.3-1.4-.2-3.5,1.2-6.4,2-9.2,2.2-.7-3.5-.8-11.2-.8-22.9v-28.9c0-8.7-3.3-16.4-9.6-22.7-6.2-6.2-13.9-9.4-22.7-9.4s-16.7,3.1-22.9,9.4c-6.3,6.3-9.7,14-9.7,22.7v57.3c0,2,1.7,3.9,3.8,3.9h-.1ZM161.7,113.4c0,12.4.6,19.9,1.5,22.9.2.6.8,1.1,1.5,1,2.9-.1,5.9-.7,9.3-1.8v1.2c-7.1,1.9-13.3,4.1-19.7,6.5-.9-3.3-1.8-7.3-1.8-12l-.2-12.5,9.5-5.2h-.1Z" style="fill: #fff;"/>
</svg>