<?xml version="1.0" encoding="UTF-8"?>
<svg id="n_xB0_1" xmlns="http://www.w3.org/2000/svg" version="1.1" viewBox="0 0 829 255.02">
  <!-- Generator: Adobe Illustrator 29.0.0, SVG Export Plug-In . SVG Version: 2.1.0 Build 186)  -->
  <defs>
    <style>
      .st0 {
        fill: #009de0;
      }

      .st1 {
        fill: #fff;
      }

      .st2 {
        fill: #3b1c13;
      }
    </style>
  </defs>
  <rect class="st1" x="-77" y="-54" width="991" height="397.02"/>
  <path class="st2" d="M295.89,203.92c3.36-4.41,5.05-9.61,5.05-15.47,0-6.63-2.43-12.41-7.2-17.18-4.63-4.76-10.44-7.18-17.27-7.18h-23.92c-3.36,0-5.7,2.34-5.7,5.7v77.25c0,3.3,2.4,5.7,5.7,5.7h26.78c6.98,0,13.04-2.51,17.99-7.46,5.02-5.02,7.57-11.08,7.57-17.99v-3.4c0-5.07-1.41-9.85-4.18-14.21-1.35-2.2-2.98-4.13-4.83-5.77ZM281.56,194.78c-1.51,1.58-3.57,2.34-6.3,2.34h-11.41v-16.02h12.62c2.26,0,3.79.6,5.27,2.08,1.54,1.54,2.19,3.11,2.19,5.27,0,2.7-.71,4.6-2.37,6.33ZM263.85,214.12h14.26c2.62,0,4.91.96,6.81,2.85,1.99,1.99,2.96,4.26,2.96,6.92v3.4c0,2.29-.82,4.23-2.52,5.93-1.72,1.72-3.64,2.52-6.04,2.52h-15.47v-21.62Z"/>
  <path class="st2" d="M348.95,162.89c-8.23,0-15.35,2.96-21.18,8.78-5.82,5.82-8.78,12.95-8.78,21.17v31.49c0,8.22,2.96,15.35,8.78,21.17,5.82,5.83,12.95,8.78,21.18,8.78s15.35-2.95,21.17-8.78c5.82-5.82,8.78-12.95,8.78-21.17v-31.49c0-8.22-2.96-15.35-8.78-21.17-5.82-5.83-12.94-8.78-21.17-8.78ZM336,192.84c0-3.67,1.22-6.6,3.84-9.22,2.51-2.51,5.49-3.73,9.11-3.73s6.6,1.22,9.11,3.73c2.62,2.62,3.84,5.55,3.84,9.22v31.49c0,3.73-1.18,6.53-3.84,9.11-2.58,2.59-5.56,3.84-9.11,3.84s-6.54-1.27-9.16-3.89c-2.59-2.5-3.79-5.38-3.79-9.06v-31.49Z"/>
  <path class="st2" d="M499.02,164.09h-19.09c-3.36,0-5.71,2.34-5.71,5.7v77.25c0,3.3,2.4,5.7,5.71,5.7h21.95c8.01,0,14.94-2.88,20.63-8.56,5.68-5.68,8.55-12.62,8.55-20.63v-27.54c0-8.74-3.17-16.34-9.44-22.6-6.19-6.19-13.79-9.33-22.61-9.33ZM501.87,235.74h-10.64v-54.65h7.79c4.22,0,7.67,1.43,10.54,4.39,3.03,3.03,4.5,6.47,4.5,10.54v27.54c0,3.45-1.15,6.17-3.62,8.56-2.46,2.47-5.18,3.62-8.56,3.62Z"/>
  <path class="st2" d="M594.34,235.74h-28.2v-21.73h23.48c3.19,0,5.59-2.45,5.59-5.71v-5.6c0-3.36-2.3-5.71-5.59-5.71h-23.48v-15.91h27.43c3.25,0,5.7-2.45,5.7-5.71v-5.6c0-3.3-2.4-5.7-5.7-5.7h-38.74c-3.36,0-5.7,2.34-5.7,5.7v77.25c0,3.3,2.4,5.7,5.7,5.7h39.51c3.3,0,5.7-2.4,5.7-5.7v-5.6c0-3.31-2.4-5.71-5.7-5.71Z"/>
  <path class="st2" d="M657.7,168.04c-.81-2.44-2.87-3.95-5.37-3.95h-10.31c-2.54,0-4.55,1.51-5.39,4.06l-23.44,76.64c-.31.68-.46,1.44-.46,2.25,0,3.3,2.4,5.7,5.7,5.7h5.82c2.64,0,4.83-1.65,5.43-4.05l6.93-22.5h21.14l6.87,22.65.11.31c.9,2.26,2.91,3.6,5.39,3.6h5.81c3.25,0,5.71-2.45,5.71-5.7,0-.82-.16-1.58-.42-2.11l-23.52-76.9ZM653.5,209.19h-12.58l6.26-21.2,6.32,21.2Z"/>
  <path class="st2" d="M745.04,164.09h-5.6c-3.3,0-5.7,2.4-5.7,5.7v56.4c0,3.22-1,5.69-3.18,7.8-2.21,2.22-4.76,3.29-7.79,3.29s-5.56-1.06-7.86-3.35c-2.14-2.07-3.23-4.67-3.23-7.74v-56.4c0-3.36-2.35-5.7-5.7-5.7h-5.6c-3.3,0-5.71,2.4-5.71,5.7v56.4c0,7.72,2.77,14.4,8.23,19.86,5.46,5.46,12.15,8.23,19.86,8.23s14.41-2.78,19.89-8.27c5.37-5.5,8.09-12.16,8.09-19.82v-56.4c0-3.36-2.35-5.7-5.71-5.7Z"/>
  <path class="st2" d="M803.9,208.22l19.8-36.25.37-1.03c.53-2.39-.26-4.02-1.02-4.97-.61-.76-2.01-2.04-4.47-2.04h-5.71c-2.35,0-4.32,1.29-5.08,3.25l-13.21,24.09-13.15-23.95c-.82-2.09-2.78-3.38-5.13-3.38h-5.7c-2.47,0-3.87,1.28-4.47,2.04-.76.94-1.55,2.57-.97,5.12l.4,1.03,19.73,36.1-19.74,35.99-.31.76c-.78,2.61.15,4.4.77,5.23.61.82,2.03,2.21,4.64,2.21h5.81c2.26,0,4.19-1.29,5.12-3.36l13.01-23.81,12.97,23.72c.96,2.16,2.89,3.44,5.16,3.44h5.81c2.61,0,4.02-1.38,4.63-2.21.63-.83,1.55-2.62.73-5.35l-20.01-36.63Z"/>
  <path class="st2" d="M455.57,244.81l-15.46-29.46c1.94-1.11,3.76-2.51,5.43-4.19,4.88-4.88,7.35-10.82,7.35-17.66v-4.39c0-6.92-2.47-12.9-7.35-17.77-4.8-4.81-10.74-7.24-17.67-7.24h-24.91c-3.36,0-5.71,2.34-5.71,5.7v77.25c0,3.3,2.4,5.7,5.71,5.7h5.6c3.25,0,5.7-2.45,5.7-5.7v-28.54h9.06l15.93,30.46c.96,2.18,2.9,3.48,5.18,3.48h5.82c2.61,0,4.03-1.38,4.63-2.21.62-.84,1.55-2.63.77-5.23-.02-.07-.05-.14-.08-.21ZM435.89,189.11v4.39c0,2.23-.72,3.91-2.41,5.6-1.69,1.69-3.37,2.41-5.6,2.41h-13.61v-20.41h13.61c2.22,0,4.03.74,5.53,2.23,1.74,1.82,2.48,3.55,2.48,5.78Z"/>
  <path class="st2" d="M197.13,202.19h-1.71c-.42,0-.57-.21-.57-.57v-.47c0-.41-.21-.57-.57-.57-.16,0-.26,0-.31.1-1.92,1.51-4,2.23-6.29,2.23-2.75,0-5.09-.99-7.07-2.96-1.98-1.97-2.96-4.31-2.96-7.07v-7.9c0-2.75.99-5.09,2.96-7.07,1.92-1.97,4.31-2.91,7.07-2.91,1.92,0,3.69.47,5.25,1.51.11.05.21.1.42.1.36,0,.52-.16.52-.47v-11.12c0-.42.21-.57.57-.57h2.7c.36,0,.52.16.52.57v36.58c0,.36-.15.57-.52.57ZM193.86,184.99c0-1.71-.57-3.17-1.82-4.37-1.25-1.25-2.7-1.82-4.37-1.82s-3.22.57-4.42,1.82c-1.19,1.2-1.82,2.65-1.82,4.37v7.9c0,1.71.62,3.17,1.82,4.42,1.19,1.2,2.7,1.82,4.42,1.82s3.17-.62,4.37-1.82c1.25-1.25,1.82-2.7,1.82-4.42v-7.9Z"/>
  <path class="st2" d="M222.69,190.65h-14.13c-.36,0-.57.21-.57.57v1.61c0,1.77.63,3.22,1.82,4.42,1.25,1.25,2.7,1.87,4.42,1.87,2.18,0,4.16-.62,5.92-1.87.26-.21.52-.16.73.1l1.56,2.24c.21.26.16.57-.16.78-2.34,1.71-5.04,2.54-8.05,2.54-2.75,0-5.09-.99-7.07-2.96-1.98-1.97-2.96-4.31-2.96-7.12v-8.31c0-2.65.94-4.88,2.81-6.75,1.87-1.82,4.1-2.75,6.7-2.75s4.89.94,6.76,2.81c1.87,1.87,2.75,4.1,2.75,6.7v5.56c0,.36-.15.57-.52.57ZM219.42,184.52c0-1.56-.52-2.91-1.66-4.05-1.14-1.14-2.49-1.66-4.05-1.66s-2.91.52-4,1.66c-1.14,1.14-1.72,2.49-1.72,4.05v1.77c0,.36.21.57.57.57h10.34c.37,0,.52-.21.52-.57v-1.77Z"/>
  <path class="st2" d="M24.78,84.45v26.56c0,4.97,1.72,9.27,5.32,12.87,3.6,3.6,7.72,5.32,12.87,5.32s9.27-1.71,12.7-5.32c3.6-3.6,5.49-7.9,5.49-12.87v-57.31c0-1.2.51-1.71,1.72-1.71h8.92c1.2,0,1.89.51,1.89,1.71v57.31c0,8.41-3.09,15.61-9.09,21.62-6,6-13.21,9.09-21.62,9.09s-15.78-3.09-21.79-9.09c-6-6-8.92-13.21-8.92-21.62v-13.68l12.52-12.88Z"/>
  <path class="st2" d="M272.79,73.28l-14.18,39.08c-.34.69-.69.86-1.37.86-.51,0-1.03-.17-1.2-.86l-21.27-58.71c-.51-1.2-1.2-1.92-2.23-1.92h-9.27c-1.71,0-2.4,1.06-1.71,2.77l30.37,83.45c.34,1.03.86,1.78,1.89,1.78h7.03c.86,0,1.54-.65,1.89-1.68l20.52-56.75-10.46-8.03Z"/>
  <path class="st2" d="M402.72,86.56v51.01c0,1.2-.69,1.88-1.89,1.88h-8.75c-1.2,0-1.89-.68-1.89-1.88v-36.38l12.52-14.64Z"/>
  <path class="st2" d="M482.98,65.45c-5.28-2.03-10.88-3.01-16.82-3.01-3.26,0-6,1.03-8.41,3.43-2.23,2.23-3.26,4.97-3.26,8.24,0,5.66,2.75,9.26,8.41,10.81l18.02,4.8c6,1.54,10.64,4.81,14.24,9.44,3.43,4.63,5.32,9.95,5.32,15.78,0,7.55-2.74,13.89-8.06,19.22-5.32,5.15-11.67,7.89-19.04,7.89-12.53,0-24.19-3.09-34.66-9.44-1.2-.69-1.37-1.54-.69-2.75l4.46-7.55c.51-1.03,1.37-1.03,2.4-.52,8.75,5.15,18.36,7.72,28.48,7.72,3.95,0,7.38-1.38,10.3-4.29,2.75-2.75,4.29-6.18,4.29-10.29,0-2.92-1.03-5.66-2.92-8.24-1.89-2.57-4.29-3.94-7.21-4.8l-18.18-4.98c-5.32-1.37-9.61-4.29-12.87-8.58-3.26-4.29-4.81-9.09-4.81-14.24,0-6.69,2.23-12.36,7.04-17.16,4.8-4.8,10.47-7.03,17.16-7.03,7.5,0,14.74,1.28,21.61,3.96l-4.79,11.58Z"/>
  <path class="st2" d="M536.04,33.6c-1.54,1.72-3.6,2.57-6,2.57-2.23,0-4.29-.86-5.84-2.57-1.71-1.54-2.57-3.6-2.57-5.83,0-2.4.86-4.46,2.57-6,1.55-1.72,3.6-2.4,5.84-2.4,2.4,0,4.46.69,6,2.4,1.71,1.54,2.57,3.6,2.57,6,0,2.23-.86,4.29-2.57,5.83ZM534.5,139.29h-8.75c-1.37,0-1.89-.69-1.89-1.88V53.67c0-1.2.51-1.71,1.89-1.71h8.75c1.2,0,1.89.51,1.89,1.71v83.73c0,1.2-.69,1.88-1.89,1.88Z"/>
  <path class="st2" d="M687.79,101.05h-46.67c-1.2,0-1.89.69-1.89,1.89v5.32c0,5.83,2.06,10.64,6.01,14.59,4.12,4.12,8.92,6.18,14.58,6.18,7.2,0,13.73-2.06,19.56-6.18.86-.69,1.71-.52,2.4.34l5.15,7.38c.69.86.52,1.89-.51,2.57-7.72,5.66-16.64,8.41-26.6,8.41-9.1,0-16.81-3.26-23.33-9.78-6.52-6.52-9.78-14.24-9.78-23.51v-27.45c0-8.75,3.09-16.13,9.27-22.31,6.18-6,13.55-9.09,22.13-9.09s16.13,3.09,22.3,9.26c6.18,6.18,9.09,13.56,9.09,22.14v18.36c0,1.2-.51,1.89-1.71,1.89ZM676.98,80.81c0-5.15-1.71-9.61-5.49-13.39-3.77-3.77-8.23-5.49-13.38-5.49s-9.61,1.71-13.21,5.49c-3.78,3.78-5.66,8.24-5.66,13.39v5.83c0,1.2.69,1.89,1.89,1.89h34.14c1.2,0,1.71-.69,1.71-1.89v-5.83Z"/>
  <path class="st0" d="M669.42,13.49c-1.77,2.21-3.68,5.75-5.6,7.95-2.21,1.92-5.15,6.48-7.21,8.25,0,.44-1.32,1.91-1.32,1.91-.74,2.06-1.33,1.62-2.36,2.5-1.62,1.62-3.39,1.77-4.57.88-2.51-1.62,1.62-7.36,3.68-9.72.29-.44.29-.74.29-1.18.59-1.03,1.03-2.21,1.62-3.09.59-.59,1.03-.59,1.47-.88-.15-1.03,1.18-2.5,1.47-3.39.73-.88.44-2.36,1.33-3.24,1.18-1.03,1.47-1.77,2.06-3.09.59,0,1.48-1.03,1.48-1.03.29-1.33.59-2.8,1.18-3.98,0,0,.44-.59.74-.59,1.18-1.33,1.33-3.39,2.51-4.57.88-.59,2.65-.88,3.83-.59,2.06.59,4.42,1.47,6.18,4.12.29,4.27-4.12,7.07-6.78,9.72Z"/>
  <path class="st0" d="M416.18,49.93c-5.76,0-9.06,2.79-13.33,9.79h.04v-8h-23v7h6.01c2.98,0,3.99.92,3.99,4.01l.3,38.46,12.52-14.64.17-15.14c0-6.87,4.41-15.61,13.15-15.61,1.6,0,3.27.21,4.44,1.49-3.84.1-7.06,2.34-7.06,6.4,0,4.37,3.4,6.83,7.56,6.83,5.22,0,8.1-4.11,8.1-8.91,0-7.78-6.08-11.68-12.91-11.68Z"/>
  <path class="st0" d="M487.76,53.87c3.93,0,7.03-2.43,8.93-7.04h7.12v45.35h-8.34c-1.36-11.39-5.72-20.01-12.5-26.72l4.79-11.58Z"/>
  <rect class="st0" x="189.77" y="19.29" width="12.23" height="15.93"/>
  <path class="st2" d="M202.13,77.73v59.87c0,1.2-.69,1.89-1.89,1.89h-8.75c-1.37,0-1.89-.69-1.89-1.89v-59.87h12.52Z"/>
  <path class="st0" d="M200.37,45.73c-4.22,8-8.48,9.45-20.48,10.46v4.05c3,0,8.04-.27,9.4,3.61.46,1.38.33-.13.32,13.87h12.52c0-14,.44-23,1.79-32h-3.55Z"/>
  <path class="st0" d="M291.98,57.19c5.62,0,5.62.18,7.37.18,1.23,0,2.63-1.23,2.63-3.16,0-1.75-1.4-2.98-2.63-2.98-1.75,0-2.81.88-14.21.88h-.53c-11.93,0-12.28-.88-14.03-.88-1.4,0-2.81,1.23-2.81,2.98,0,1.93,1.41,3.16,2.81,3.16,1.75,0,1.93-.18,7.89-.18l-5.68,16.09,10.46,8.03,8.73-24.12Z"/>
  <path class="st2" d="M307.33,103.59v-22.62c0-8.75,3.09-16.13,9.27-22.3,6.18-6,13.55-9.09,22.13-9.09s16.13,3.09,22.31,9.27c6.18,6.18,9.09,13.56,9.09,22.13v18.36c0,1.2-.51,1.89-1.72,1.89h-46.67c-1.2,0-1.89.69-1.89,1.89v5.32c0,1.56.15,3.05.44,4.47l-12.97-9.3ZM357.61,80.96c0-5.15-1.72-9.61-5.49-13.38-3.77-3.78-8.24-5.49-13.38-5.49s-9.61,1.71-13.21,5.49c-3.77,3.77-5.66,8.23-5.66,13.38v5.84c0,1.2.69,1.88,1.89,1.88h34.14c1.2,0,1.72-.68,1.72-1.88v-5.84Z"/>
  <path class="st0" d="M332.4,127.73c6.24,3.83,13.52,5.32,19.7,5.32,12.27,0,17.85-4.46,18.96-4.46.93,0,.93,1.12.93,1.49,0,.93-14.13,11.9-29.18,11.9s-35.48-7.35-35.48-38.39l12.97,9.3c2.51,6.89,6.91,11.66,12.1,14.84"/>
  <path class="st2" d="M581.9,75.23v35.12c0,5.49,1.89,10.12,5.66,13.9,3.78,3.78,8.41,5.66,13.9,5.66,4.46,0,9.09-1.37,13.73-4.29,1.2-.69,1.88-.52,2.74.51l4.98,7.04c.69,1.03.51,1.89-.52,2.57-6.18,4.46-13.21,6.69-20.93,6.69-8.92,0-16.3-3.09-22.65-9.44-6.35-6.35-9.44-13.73-9.44-22.65v-39.47l12.53,4.34Z"/>
  <path class="st0" d="M569.37,70.9v-6.69c-4.3-.33-9.56,0-13.7,1.65l-1.16-.83c1.98-5.62,8.27-9.42,14.55-9.42,2.81-1.65,2.64-17.07,4.96-19.88.99-1.16,4.34-3.31,6.82-5.46,1.16,1.82-1.98,23.85,1.16,24.35,11.24,1.98,22.94,2.48,33.52-.83,2.15,1.65,0,3.64-.99,5.13-8.93,8.27-21.06,4.79-32.63,5.13v11.19l-12.53-4.34Z"/>
  <polygon class="st0" points="24.8 52 .26 52 .26 61.37 12.26 61.37 12.26 97.32 24.78 84.45 24.8 52"/>
  <path class="st2" d="M149.66,115.79v-35.25c0-4.97-1.71-9.26-5.32-12.69-3.6-3.6-7.89-5.32-12.87-5.32s-9.27,1.72-12.87,5.32c-3.43,3.43-5.32,7.72-5.32,12.69v57.31c0,1.2-.52,1.88-1.89,1.88h-8.75c-1.2,0-1.89-.69-1.89-1.88v-57.31c0-8.4,3.09-15.61,9.09-21.62,6-6.01,13.21-8.92,21.62-8.92s15.61,2.92,21.62,8.92c6.01,6,9.09,13.21,9.09,21.62v28.37l-12.52,6.89Z"/>
  <path class="st0" d="M163.78,133.89c-1.24-3.8-1.59-15.42-1.59-24.99l-12.52,6.89.23,13.48c0,5.63,1.43,10.28,2.55,13.95,7.62-2.82,14.45-5.24,22.45-7.27v-4.42c-4,1.44-7.71,2.23-11.11,2.36Z"/>
</svg>