<?xml version="1.0" encoding="UTF-8"?>
<svg id="Calque_1" xmlns="http://www.w3.org/2000/svg" version="1.1" viewBox="0 0 1029.55 486.84">
  <!-- Generator: Adobe Illustrator 29.0.0, SVG Export Plug-In . SVG Version: 2.1.0 Build 186)  -->
  <defs>
    <style>
      .st0 {
        fill: #0b71b4;
      }

      .st1 {
        fill: #e21149;
      }

      .st2 {
        display: none;
        fill: #fdfdfe;
      }
    </style>
  </defs>
  <path class="st2" d="M999.48,49.05v405H38.48V49.05h961ZM211.48,177.05c-1.48-49.74,10.66-111.77-54.64-120.86-46.23-6.43-87.86,9.71-91.4,61.32-1.9,27.65-2.83,92.99,5.33,117.75,12.63,38.29,53.64,47.75,89.95,41.54,26.3-4.5,49.76-27.49,49.76-55.24v-20.5h-48c-1.3,12.05.59,28.87-11.05,36.45-6.83,4.45-21.8,3.4-28.31-1.6-3.84-2.95-8.65-13.85-8.65-18.35v-40.5h97.01ZM364.48,125.05v-16.5c0-4.15-4.5-17.31-6.51-21.49-20.62-42.86-98.38-41.9-114.52,4.45-11.5,33.03.06,62.13,27.32,81.76,18.56,13.37,59.11,26.01,45.91,56.46-5.88,13.57-26.65,12.4-31.67-.7-.68-1.76-2.52-8.08-2.52-9.48v-17.5h-46v24.5c0,58.91,99.83,68.85,122.19,20.19,9.12-19.86,8.33-54.21-3.56-72.82-13.3-20.8-40.98-28.08-59.11-42.89-18.11-14.81-11.59-42.97,10.93-35.92,8.13,2.54,10.4,9.86,11.43,17.57.31,2.34-.7,12.38,1.62,12.38h44.5,0ZM435.48,61.05h-49v164.5c0,8.17,7.25,25.01,12.49,31.51,20.66,25.66,78.01,26.91,102.04,6.01,10.15-8.83,18.48-27.09,18.48-40.52V61.05h-50v164.5c0,1.46-3.61,7.61-4.96,9.04-5.14,5.44-14.44,5.97-20.94,2.85-7.59-3.64-6.92-11.68-8.15-18.85,0,0,.04-157.54.04-157.54ZM596.48,272.05v-80.5c0-1.1,2.44-1.43,3.45-1.55,7.63-.9,17.07.57,25.04.04,37.3-2.47,53.8-22.95,55.5-59.5,1.6-34.54-8.64-60.34-44.94-67.04-28.21-5.2-59.38-1.1-88.05-2.45v211h49ZM952.48,298.55c.71-3.97,0-11.5,0-16,0-.18-2.32-2.5-2.5-2.5h-20c-.18,0-2.5,2.32-2.5,2.5v16c0,4.74,14.18,3.78,17.54,3.54,2.77-.19,6.82.03,7.46-3.54ZM990.48,280.05h-25v134.5c0,.11,1.39,1.5,1.5,1.5h23.5v-136ZM781.48,286.05h-25v104.5c0,9.38,14.23,24.5,23.5,24.5h29.5v-24h-18.5c-2.21,0-9.5-5.12-9.5-7.5v-45.5h21.5c.11,0,1.5-1.39,1.5-1.5v-23.5h-23v-27ZM476.48,350.55v98.5h24v-44c19.9,21.69,55.25,12.97,65.76-13.74,10.99-27.92,3.96-68.86-28.32-78.2-29.48-8.54-57.86,5.59-61.44,37.44h0ZM622.26,311.33c-54.19,6.54-54.56,97.78-2.83,105.27,42.26,6.12,60.79-24.4,56.93-62.93-2.82-28.18-26.22-45.71-54.1-42.34ZM914.48,415.05v-63.5c0-20.62-18.4-38.62-38.52-40.48-41.69-3.87-59.17,26.31-55.36,64.36,3.64,36.39,42.17,56.52,69.87,29.62.39,1.17-.49,10,.01,10h24ZM745.48,338.05v-23.5c0-.11-1.39-1.5-1.5-1.5h-27c-11.52,0-28.5,13.42-28.5,25.5v76.5h25v-69.5c0-1.86,6.91-7.5,8.5-7.5h23.5ZM952.48,313.05h-25v102h25v-102ZM46.48,352.05c-1.86,1.89,12.31,20.49,14.48,23.01,45.6,52.9,117.04,63.45,180.76,39.74,54.75-20.38,108.37-51.5,169.24-45.74,5.16.49,10.36,1.9,15.49,2.5-24.04-47.69-85.84-57.48-134.47-54.5-59.51,3.64-102.28,40.82-158.97,44.03-18.03,1.02-38.02-.63-55.88-3.21-10.3-1.48-20.48-3.77-30.66-5.83h0Z"/>
  <path class="st0" d="M211.48,177.05h-97v40.5c0,4.51,4.81,15.4,8.65,18.35,6.51,5,21.48,6.05,28.31,1.6,11.64-7.59,9.75-24.4,11.05-36.45h48v20.5c0,27.76-23.46,50.75-49.76,55.24-36.31,6.21-77.33-3.24-89.95-41.54-8.16-24.76-7.23-90.1-5.33-117.75,3.54-51.61,45.17-67.75,91.4-61.32,65.31,9.09,53.17,71.12,54.64,120.86h-.01ZM162.48,139.05v-27.5c0-3.16-3.58-11.59-6.1-13.9-6.44-5.91-25.62-6.31-32.83-2.02-3.87,2.3-9.08,10.6-9.08,14.92v28.5h48.01Z"/>
  <path class="st0" d="M435.48,61.05l-.04,157.54c1.23,7.17.56,15.21,8.15,18.85,6.5,3.12,15.8,2.59,20.94-2.85,1.35-1.43,4.96-7.58,4.96-9.04V61.05h50v161.5c0,13.43-8.32,31.69-18.48,40.52-24.02,20.9-81.37,19.65-102.04-6.01-5.24-6.51-12.49-23.35-12.49-31.51V61.05h49Z"/>
  <path class="st0" d="M364.48,125.05h-44.5c-2.32,0-1.31-10.04-1.62-12.38-1.03-7.71-3.3-15.02-11.43-17.57-22.52-7.05-29.04,21.12-10.93,35.92,18.12,14.82,45.81,22.09,59.11,42.89,11.9,18.61,12.69,52.96,3.56,72.82-22.36,48.66-122.19,38.72-122.19-20.19v-24.5h46v17.5c0,1.4,1.84,7.72,2.52,9.48,5.02,13.1,25.78,14.27,31.67.7,13.21-30.46-27.34-43.09-45.91-56.46-27.26-19.63-38.82-48.73-27.32-81.76,16.14-46.35,93.91-47.3,114.52-4.45,2.01,4.18,6.51,17.34,6.51,21.49v16.5h0Z"/>
  <path class="st0" d="M596.48,272.05h-49V61.05c28.67,1.35,59.84-2.75,88.05,2.45,36.3,6.7,46.54,32.5,44.94,67.04-1.7,36.55-18.2,57.03-55.5,59.5-7.97.53-17.41-.94-25.04-.04-1.01.12-3.45.46-3.45,1.55v80.5h0ZM596.48,152.05h16.5c4.57,0,12.48-5.04,14.71-9.29,4.82-9.2,5.4-38.66-7.17-42.24-.92-.26-7.05-1.47-7.53-1.47h-16.5v53h-.01Z"/>
  <path class="st1" d="M476.48,350.55c3.58-31.85,31.96-45.99,61.44-37.44,32.27,9.35,39.31,50.28,28.32,78.2-10.51,26.71-45.86,35.43-65.76,13.74v44h-24v-98.5h0ZM516.22,335.29c-10.68,1.79-15.01,11.49-15.77,21.23-1.08,13.63.3,35.04,17.63,37.45,17.33,2.41,26.3-7.49,27.46-24.37,1.43-20.88-4.9-38.39-29.31-34.31h-.01Z"/>
  <path class="st1" d="M914.48,415.05h-24c-.5,0,.38-8.83-.01-10-27.7,26.9-66.23,6.77-69.87-29.62-3.81-38.06,13.68-68.23,55.36-64.36,20.11,1.87,38.52,19.87,38.52,40.48v63.5h0ZM861.2,335.27c-9.2,1.86-14.87,12.66-15.72,21.28-2.02,20.46,3,41.55,28.25,37.25,19.01-3.23,20.62-37.46,12.95-50.47-4.83-8.2-16.86-9.82-25.48-8.07h0Z"/>
  <path class="st1" d="M622.26,311.33c27.88-3.37,51.27,14.17,54.1,42.34,3.86,38.53-14.67,69.05-56.93,62.93-51.73-7.49-51.36-98.73,2.83-105.27ZM623.22,335.29c-22.67,3.87-22.94,55.35.85,58.67,25.07,3.5,31.48-20.02,27.17-40.17-3.15-14.75-13.12-21.04-28.02-18.5h0Z"/>
  <path class="st1" d="M781.48,286.05v27h23v23.5c0,.11-1.39,1.5-1.5,1.5h-21.5v45.5c0,2.38,7.29,7.5,9.5,7.5h18.5v24h-29.5c-9.27,0-23.5-15.12-23.5-24.5v-104.5h25Z"/>
  <path class="st1" d="M990.48,280.05v136h-23.5c-.11,0-1.5-1.39-1.5-1.5v-134.5h25Z"/>
  <path class="st1" d="M745.48,338.05h-23.5c-1.59,0-8.5,5.64-8.5,7.5v69.5h-25v-76.5c0-12.08,16.98-25.5,28.5-25.5h27c.11,0,1.5,1.39,1.5,1.5v23.5Z"/>
  <rect class="st1" x="927.48" y="313.05" width="25" height="102"/>
  <path class="st1" d="M952.48,298.55c-.64,3.57-4.69,3.35-7.46,3.54-3.36.23-17.54,1.2-17.54-3.54v-16c0-.18,2.32-2.5,2.5-2.5h20c.18,0,2.5,2.32,2.5,2.5,0,4.5.71,12.03,0,16Z"/>
  <path class="st0" d="M46.48,352.05c10.18,2.06,20.36,4.34,30.66,5.83,17.86,2.57,37.85,4.23,55.88,3.21,56.68-3.21,99.46-40.39,158.97-44.03,48.63-2.98,110.43,6.81,134.47,54.5-5.13-.6-10.33-2.01-15.49-2.5-60.87-5.77-114.49,25.36-169.24,45.74-63.72,23.72-135.17,13.16-180.76-39.74-2.17-2.52-16.34-21.12-14.48-23.01h-.01Z"/>
  <path class="st2" d="M162.48,139.05h-48v-28.5c0-4.32,5.21-12.62,9.08-14.92,7.21-4.28,26.39-3.89,32.83,2.02,2.52,2.31,6.1,10.74,6.1,13.9v27.5h-.01Z"/>
  <path class="st2" d="M596.48,152.05v-53h16.5c.48,0,6.61,1.21,7.53,1.47,12.57,3.58,11.99,33.04,7.17,42.24-2.23,4.26-10.14,9.29-14.71,9.29h-16.5.01Z"/>
  <path class="st2" d="M516.22,335.29c24.41-4.09,30.74,13.43,29.31,34.31-1.16,16.88-9.67,26.84-27.46,24.37s-18.7-23.82-17.63-37.45c.77-9.73,5.09-19.44,15.77-21.23h.01Z"/>
  <path class="st2" d="M861.2,335.27c8.62-1.75,20.65-.13,25.48,8.07,7.67,13.01,6.06,47.23-12.95,50.47-25.25,4.3-30.27-16.8-28.25-37.25.85-8.62,6.52-19.42,15.72-21.28h0Z"/>
  <path class="st2" d="M623.22,335.29c14.9-2.54,24.87,3.75,28.02,18.5,4.3,20.15-2.1,43.67-27.17,40.17-23.79-3.32-23.52-54.81-.85-58.67h0Z"/>
</svg>