<?xml version="1.0" encoding="UTF-8"?>
<svg id="Calque_1" xmlns="http://www.w3.org/2000/svg" version="1.1" viewBox="0 0 334 334">
  <!-- Generator: Adobe Illustrator 29.0.0, SVG Export Plug-In . SVG Version: 2.1.0 Build 186)  -->
  <defs>
    <style>
      .st0 {
        fill: #fff;
        fill-rule: evenodd;
      }

      .st1 {
        isolation: isolate;
      }

      .st2 {
        fill: #337ab7;
      }

      .st3 {
        fill: #e30f47;
      }
    </style>
  </defs>
  <path class="st0" d="M0,0h333.3v333.3H0V0Z"/>
  <g>
    <g class="st1">
      <g class="st1">
        <g class="st1">
          <path class="st3" d="M88.7,219.5c0,16.1-13,29-29,29s-29-13-29-29,13-29,29-29,29,13,29,29ZM74.6,219.5c0-8.2-6.7-15-15-15s-15,6.7-15,15,6.7,15,15,15,15-6.7,15-15Z"/>
          <path class="st3" d="M153.8,192.2v54.6h-14.1v-5.8c-4.4,5.1-10.1,7.6-16.7,7.6-15.1,0-27.3-13-27.3-29s12.2-29,27.3-29,12.3,2.5,16.7,7.6v-5.8h14.1ZM139.7,219.5c0-8.2-6.7-15-15-15s-15,6.7-15,15,6.7,15,15,15,15-6.7,15-15Z"/>
          <path class="st3" d="M212.8,229.2c0,11.1-8.8,19.4-24,19.4s-22.6-5.5-25.3-7.9l4.6-13.2c4.7,4.4,12.8,7.6,19.4,7.7,6.5.1,11.2-1.3,11.2-4.7s-2.4-3.3-9.7-4.5c-20.4-3.3-23.8-9.8-23.8-18.7s9.6-16.7,23.9-16.7,13.3,1.2,21.2,5.3l-4,12.8c-2.8-2-10-4.5-17.3-4.6-5.7-.1-9.8,1-9.8,3.3,0,3.3,5.7,3.9,11.6,4.8,18.5,3,21.9,10.2,21.9,17.2Z"/>
          <path class="st3" d="M219.8,175.5c0-5.4,4.3-9.7,9.7-9.7s9.7,4.3,9.7,9.7-4.3,9.7-9.7,9.7-9.7-4.3-9.7-9.7ZM222.5,192.2h14.1v54.6h-14.1v-54.6Z"/>
          <path class="st3" d="M295.5,229.2c0,11.1-8.8,19.4-24,19.4s-22.6-5.5-25.3-7.9l4.6-13.2c4.7,4.4,12.8,7.6,19.4,7.7,6.5.1,11.2-1.3,11.2-4.7s-2.4-3.3-9.7-4.5c-20.4-3.3-23.8-9.8-23.8-18.7s9.6-16.7,23.9-16.7,13.3,1.2,21.2,5.3l-4,12.8c-2.8-2-10-4.5-17.3-4.6-5.7-.1-9.8,1-9.8,3.3,0,3.3,5.7,3.9,11.6,4.8,18.5,3,21.9,10.2,21.9,17.2Z"/>
        </g>
      </g>
    </g>
    <g class="st1">
      <g class="st1">
        <g class="st1">
          <path class="st2" d="M85,122.8h-39.7c2,7.1,7.4,12.3,16.2,12.3s11.8-1.9,16.3-5.1l4.1,12.2s-7.5,5.2-20.6,5.2c-21.2,0-30.6-13.2-30.6-29s9.1-29,28.2-29,26.4,10.8,26.4,29-.1,3-.2,4.4ZM70.2,112.3c0-4.5-3.9-10.6-12.3-10.6s-12.3,6-12.3,10.6h24.6Z"/>
          <path class="st2" d="M141.5,128.1c0,11.1-8.8,19.4-24,19.4s-22.6-5.5-25.3-7.9l4.6-13.2c4.7,4.4,12.8,7.6,19.4,7.7,6.5.1,11.2-1.3,11.2-4.7s-2.4-3.3-9.7-4.5c-20.4-3.3-23.8-9.8-23.8-18.7s9.6-16.7,23.9-16.7,13.3,1.2,21.2,5.3l-4,12.8c-2.8-2-10-4.5-17.3-4.6-5.7-.1-9.8,1-9.8,3.3,0,3.3,5.7,3.9,11.5,4.8,18.5,3,21.9,10.2,21.9,17.2Z"/>
          <path class="st2" d="M149.4,122.8v-31.7h14.1v29.9c0,8.5,3.3,12.3,10.6,12.3s12.3-4.2,12.3-14.1v-28.2h14.1v54.6h-14.1v-5.3c-3.7,4.4-8.2,7-16.5,7-12.5,0-20.5-8.1-20.5-24.6Z"/>
          <path class="st2" d="M271.7,118.4c0,16.1-12.2,29-27.3,29s-12.3-2.5-16.7-7.6v34h-14.1v-82.7h14.1v5.8c4.4-5.1,10.1-7.6,16.7-7.6,15.1,0,27.3,13,27.3,29ZM257.7,118.4c0-8.2-6.7-15-15-15s-15,6.7-15,15,6.7,15,15,15,15-6.7,15-15Z"/>
        </g>
      </g>
    </g>
  </g>
</svg>