<?xml version="1.0" encoding="UTF-8"?>
<svg id="Calque_1" xmlns="http://www.w3.org/2000/svg" version="1.1" viewBox="0 0 334 334">
  <!-- Generator: Adobe Illustrator 29.0.0, SVG Export Plug-In . SVG Version: 2.1.0 Build 186)  -->
  <defs>
    <style>
      .st0 {
        fill: #fff;
        fill-rule: evenodd;
      }

      .st1 {
        isolation: isolate;
      }

      .st2 {
        fill: #337ab7;
      }

      .st3 {
        fill: #e30f47;
      }
    </style>
  </defs>
  <path class="st0" d="M0,0h333.3v333.3H0V0Z"/>
  <g>
    <g class="st1">
      <g class="st1">
        <path class="st3" d="M104.5,209c0,12.8-10.4,23.2-23.2,23.2s-23.2-10.4-23.2-23.2,10.4-23.2,23.2-23.2,23.2,10.4,23.2,23.2ZM93.2,209c0-6.6-5.4-11.9-11.9-11.9s-11.9,5.4-11.9,11.9,5.4,11.9,11.9,11.9,11.9-5.4,11.9-11.9Z"/>
        <path class="st3" d="M156.5,187.2v43.6h-11.2v-4.7c-3.5,4-8.1,6.1-13.4,6.1-12,0-21.8-10.4-21.8-23.2s9.8-23.2,21.8-23.2,9.8,2,13.4,6.1v-4.7h11.2ZM145.2,209c0-6.6-5.4-11.9-11.9-11.9s-11.9,5.4-11.9,11.9,5.4,11.9,11.9,11.9,11.9-5.4,11.9-11.9Z"/>
        <path class="st3" d="M203.5,216.7c0,8.9-7,15.5-19.2,15.5s-18-4.4-20.2-6.3l3.7-10.5c3.8,3.5,10.2,6.1,15.5,6.1,5.2,0,9-1.1,9-3.8s-1.9-2.6-7.7-3.6c-16.2-2.6-19-7.8-19-14.9s7.6-13.4,19.1-13.4,10.6,1,17,4.2l-3.2,10.2c-2.2-1.6-8-3.6-13.8-3.7-4.6,0-7.8.8-7.8,2.6,0,2.6,4.6,3.1,9.2,3.9,14.8,2.4,17.5,8.2,17.5,13.7Z"/>
        <path class="st3" d="M209.2,173.8c0-4.3,3.4-7.7,7.7-7.7s7.7,3.4,7.7,7.7-3.4,7.7-7.7,7.7-7.7-3.4-7.7-7.7ZM211.3,187.2h11.2v43.6h-11.2v-43.6Z"/>
        <path class="st3" d="M269.6,216.7c0,8.9-7,15.5-19.2,15.5s-18-4.4-20.2-6.3l3.7-10.5c3.8,3.5,10.2,6.1,15.5,6.1,5.2,0,9-1.1,9-3.8s-1.9-2.6-7.7-3.6c-16.3-2.6-19-7.8-19-14.9s7.6-13.4,19.1-13.4,10.6,1,17,4.2l-3.2,10.2c-2.2-1.6-8-3.6-13.8-3.7-4.6,0-7.8.8-7.8,2.6,0,2.6,4.6,3.1,9.2,3.9,14.8,2.4,17.5,8.2,17.5,13.7Z"/>
      </g>
    </g>
    <g class="st1">
      <g class="st1">
        <path class="st2" d="M101.5,131.7h-31.7c1.6,5.7,5.9,9.8,12.9,9.8s9.4-1.5,13-4l3.2,9.8s-6,4.1-16.4,4.1c-17,0-24.4-10.5-24.4-23.2s7.3-23.2,22.5-23.2,21.1,8.6,21.1,23.2,0,2.4-.2,3.5ZM89.7,123.3c0-3.6-3.1-8.4-9.8-8.4s-9.8,4.8-9.8,8.4h19.7Z"/>
        <path class="st2" d="M146.6,135.9c0,8.9-7,15.5-19.2,15.5s-18-4.4-20.2-6.3l3.7-10.5c3.8,3.5,10.2,6.1,15.5,6.1,5.2,0,9-1.1,9-3.8s-1.9-2.6-7.7-3.6c-16.3-2.6-19-7.8-19-14.9s7.6-13.4,19.1-13.4,10.6,1,17,4.2l-3.2,10.2c-2.2-1.6-8-3.6-13.8-3.7-4.6,0-7.8.8-7.8,2.6,0,2.6,4.6,3.1,9.2,3.9,14.8,2.4,17.5,8.2,17.5,13.7Z"/>
        <path class="st2" d="M152.9,131.7v-25.3h11.2v23.9c0,6.8,2.6,9.8,8.4,9.8s9.8-3.3,9.8-11.2v-22.5h11.2v43.6h-11.2v-4.2c-3,3.5-6.6,5.6-13.2,5.6-10,0-16.3-6.5-16.3-19.7Z"/>
        <path class="st2" d="M250.6,128.2c0,12.8-9.8,23.2-21.8,23.2s-9.8-2-13.4-6.1v27.1h-11.2v-66.1h11.2v4.7c3.5-4,8.1-6.1,13.4-6.1,12,0,21.8,10.4,21.8,23.2ZM239.4,128.2c0-6.6-5.4-11.9-11.9-11.9s-11.9,5.4-11.9,11.9,5.4,11.9,11.9,11.9,11.9-5.4,11.9-11.9Z"/>
      </g>
    </g>
  </g>
</svg>