<?xml version="1.0" encoding="UTF-8" standalone="no"?>
<svg
        xmlns:dc="http://purl.org/dc/elements/1.1/"
        xmlns:cc="http://creativecommons.org/ns#"
        xmlns:rdf="http://www.w3.org/1999/02/22-rdf-syntax-ns#"
        xmlns:svg="http://www.w3.org/2000/svg"
        xmlns="http://www.w3.org/2000/svg"
        xmlns:sodipodi="http://sodipodi.sourceforge.net/DTD/sodipodi-0.dtd"
        xmlns:inkscape="http://www.inkscape.org/namespaces/inkscape"
        width="106.70286mm"
        height="44.428833mm"
        viewBox="0 0 106.70286 44.428833"
        version="1.1"
        id="svg1412"
        inkscape:version="1.0.2 (e86c870879, 2021-01-15)"
        sodipodi:docname="logo-esup-portail.svg">
    <defs
            id="defs1406"/>
    <sodipodi:namedview
            id="base"
            pagecolor="#ffffff"
            bordercolor="#666666"
            borderopacity="1.0"
            inkscape:pageopacity="0.0"
            inkscape:pageshadow="2"
            inkscape:zoom="0.53199502"
            inkscape:cx="266.14953"
            inkscape:cy="-100.12423"
            inkscape:document-units="mm"
            inkscape:current-layer="layer1"
            inkscape:document-rotation="0"
            showgrid="false"
            fit-margin-top="0"
            fit-margin-left="0"
            fit-margin-right="0"
            fit-margin-bottom="0"
            inkscape:window-width="1920"
            inkscape:window-height="997"
            inkscape:window-x="0"
            inkscape:window-y="28"
            inkscape:window-maximized="1"/>
    <metadata
            id="metadata1409">
        <rdf:RDF>
            <cc:Work
                    rdf:about="">
                <dc:format>image/svg+xml</dc:format>
                <dc:type
                        rdf:resource="http://purl.org/dc/dcmitype/StillImage"/>
                <dc:title></dc:title>
            </cc:Work>
        </rdf:RDF>
    </metadata>
    <g
            inkscape:label="Calque 1"
            inkscape:groupmode="layer"
            id="layer1"
            transform="translate(20.294097,-79.067636)">
        <path
                d="m 33.629671,110.59539 c -0.588433,0 -1.055864,0.0988 -1.402997,0.2928 -0.347486,0.19756 -0.607483,0.45861 -0.780697,0.78317 -0.17392,0.32456 -0.286809,0.68439 -0.339373,1.08656 -0.05362,0.39864 -0.07973,0.8008 -0.07973,1.21002 0,0.33162 0.03069,0.69498 0.09031,1.08656 0.06068,0.39158 0.184855,0.75847 0.374297,1.09714 0.188383,0.33867 0.451908,0.62089 0.791633,0.85019 0.339373,0.22578 0.788812,0.33867 1.346553,0.33867 0.558095,0 1.007181,-0.11289 1.346906,-0.33867 0.339725,-0.2293 0.599722,-0.51152 0.780697,-0.85019 0.180975,-0.33867 0.301625,-0.70556 0.362303,-1.09714 0.05962,-0.39158 0.09066,-0.75494 0.09066,-1.08656 0,-0.33161 -0.03105,-0.69497 -0.09066,-1.08655 -0.06068,-0.39159 -0.181328,-0.75847 -0.362303,-1.09714 -0.180975,-0.3422 -0.440972,-0.62442 -0.780697,-0.8502 -0.339725,-0.22577 -0.788811,-0.33866 -1.346906,-0.33866 z m -5.295547,3.39372 c 0,-0.94897 0.09772,-1.79917 0.294216,-2.54706 0.195792,-0.74436 0.509059,-1.37936 0.939448,-1.89794 0.42933,-0.52211 0.976136,-0.92075 1.640064,-1.19944 0.663927,-0.28223 1.471789,-0.41981 2.421819,-0.41981 0.996245,0.0282 1.885598,0.25753 2.670881,0.67733 0.331611,0.18345 0.6604,0.41628 0.984603,0.70203 0.324203,0.28575 0.611364,0.64558 0.860425,1.07597 0.248355,0.43039 0.451908,0.93839 0.610305,1.52753 0.15875,0.58914 0.238478,1.27353 0.238478,2.06022 0,0.78317 -0.07267,1.47109 -0.215547,2.06023 -0.143228,0.58561 -0.331611,1.09361 -0.56515,1.51694 -0.234597,0.41981 -0.498122,0.77258 -0.792692,1.05128 -0.294216,0.27869 -0.599369,0.508 -0.916516,0.68792 -0.724606,0.40922 -1.554339,0.62088 -2.489906,0.635 -0.468136,-0.0282 -0.920045,-0.127 -1.357489,-0.29281 -0.377825,-0.15169 -0.762706,-0.39158 -1.154642,-0.72319 -0.392289,-0.33514 -0.716492,-0.81845 -0.972961,-1.44992 l 0.497417,0.65617 v 5.38691 h -2.692753 v -9.50736"
                style="fill:#ed184e;fill-opacity:1;fill-rule:nonzero;stroke:none;stroke-width:0.0352778"
                id="path14"/>
        <path
                d="m 45.624822,110.59539 c -0.557742,0 -1.007181,0.11289 -1.346553,0.33866 -0.339725,0.22578 -0.599722,0.508 -0.78105,0.8502 -0.180975,0.33867 -0.301272,0.70555 -0.36195,1.09714 -0.05997,0.39158 -0.09066,0.75494 -0.09066,1.08655 0,0.33162 0.03069,0.69498 0.09066,1.08656 0.06068,0.39158 0.180975,0.75847 0.36195,1.09714 0.181328,0.33867 0.441325,0.62089 0.78105,0.85019 0.339372,0.22578 0.788811,0.33867 1.346553,0.33867 0.558094,0 1.007181,-0.11289 1.346906,-0.33867 0.339725,-0.2293 0.599369,-0.51152 0.780697,-0.85019 0.180975,-0.33867 0.301625,-0.70556 0.362303,-1.09714 0.05962,-0.39158 0.09066,-0.75494 0.09066,-1.08656 0,-0.33161 -0.03105,-0.69497 -0.09066,-1.08655 -0.06068,-0.39159 -0.181328,-0.75847 -0.362303,-1.09714 -0.181328,-0.3422 -0.440972,-0.62442 -0.780697,-0.8502 -0.339725,-0.22577 -0.788812,-0.33866 -1.346906,-0.33866 z m -5.363634,3.37255 c 0,-0.78669 0.07514,-1.47108 0.226484,-2.06022 0.150283,-0.58914 0.350661,-1.09714 0.599722,-1.52753 0.249061,-0.43039 0.535164,-0.79022 0.859367,-1.07597 0.324202,-0.28575 0.652991,-0.51858 0.984602,-0.70203 0.784226,-0.4198 1.682751,-0.64911 2.693459,-0.67733 0.996244,0.0282 1.885597,0.25753 2.670881,0.67733 0.331611,0.18345 0.6604,0.41628 0.984603,0.70203 0.324202,0.28575 0.611363,0.64558 0.860425,1.07597 0.248002,0.43039 0.451908,0.93839 0.610305,1.52753 0.15875,0.58914 0.238478,1.27353 0.238478,2.06022 0,0.78317 -0.07973,1.47109 -0.238478,2.06023 -0.158397,0.58561 -0.362303,1.09361 -0.610305,1.51694 -0.249062,0.41981 -0.536223,0.77258 -0.860425,1.05128 -0.324203,0.27869 -0.652992,0.508 -0.984603,0.68792 -0.785284,0.40922 -1.674637,0.62088 -2.670881,0.635 -1.010708,-0.0141 -1.909233,-0.22578 -2.693459,-0.635 -0.331611,-0.17992 -0.6604,-0.40923 -0.984602,-0.68792 -0.324203,-0.2787 -0.610306,-0.63147 -0.859367,-1.05128 -0.249061,-0.42333 -0.449439,-0.93133 -0.599722,-1.51694 -0.151342,-0.58914 -0.226484,-1.27706 -0.226484,-2.06023"
                style="fill:#ed184e;fill-opacity:1;fill-rule:nonzero;stroke:none;stroke-width:0.0352778"
                id="path16"/>
        <path
                d="m 52.347003,111.56905 c 0,-0.78669 0.165806,-1.40052 0.497064,-1.84502 0.332669,-0.4445 0.694972,-0.78317 1.086908,-1.00895 0.467431,-0.27164 0.995539,-0.43744 1.584325,-0.49741 h 3.169003 v 2.73755 H 56.5567 c -0.302683,0 -0.547158,0.0529 -0.735541,0.15875 -0.189089,0.10583 -0.335845,0.21872 -0.442031,0.3422 -0.120297,0.14816 -0.203553,0.31397 -0.249061,0.49741 v 7.73995 h -2.783064 v -8.12448"
                style="fill:#ed184e;fill-opacity:1;fill-rule:nonzero;stroke:none;stroke-width:0.0352778"
                id="path18"/>
        <path
                d="m 62.780759,110.91289 v 5.04472 c 0.04516,0.18345 0.128411,0.34925 0.249061,0.49742 0.105834,0.12347 0.252589,0.23636 0.442031,0.34219 0.188383,0.10584 0.432858,0.15875 0.735189,0.15875 h 1.720144 v 2.73756 H 63.16564 c -0.588786,-0.06 -1.116895,-0.22578 -1.583973,-0.49742 -0.393347,-0.22578 -0.751064,-0.56092 -1.075266,-1.00894 -0.325261,-0.4445 -0.486128,-1.05834 -0.486128,-1.84503 v -11.2007 h 2.760486 v 3.07623 h 2.602795 v 2.69522 h -2.602795"
                style="fill:#ed184e;fill-opacity:1;fill-rule:nonzero;stroke:none;stroke-width:0.0352778"
                id="path20"/>
        <path
                d="m 72.557643,110.59539 c -0.557742,0 -1.007181,0.11289 -1.346553,0.33866 -0.339725,0.22578 -0.599722,0.508 -0.780697,0.8502 -0.181328,0.33867 -0.301625,0.70555 -0.362303,1.09714 -0.05997,0.39158 -0.09066,0.75494 -0.09066,1.08655 0,0.33162 0.03069,0.69498 0.09066,1.08656 0.06068,0.39158 0.180975,0.75847 0.362303,1.09714 0.180975,0.33867 0.440972,0.62089 0.780697,0.85019 0.339372,0.22578 0.788811,0.33867 1.346553,0.33867 0.558095,0 1.007181,-0.11289 1.346906,-0.33867 0.339725,-0.2293 0.60325,-0.51152 0.792339,-0.85019 0.188383,-0.33867 0.312561,-0.70556 0.373239,-1.09714 0.05962,-0.39158 0.09066,-0.75494 0.09066,-1.08656 0,-0.40922 -0.02646,-0.81138 -0.07973,-1.21002 -0.05256,-0.40217 -0.165806,-0.762 -0.338667,-1.08656 -0.173919,-0.32456 -0.433917,-0.58561 -0.781756,-0.78317 -0.34678,-0.19402 -0.814211,-0.2928 -1.402997,-0.2928 z m 5.296606,9.09814 h -2.693458 v -1.58397 l 0.498122,-0.65617 c -0.257175,0.63147 -0.581378,1.11478 -0.973667,1.44992 -0.392289,0.33161 -0.777169,0.5715 -1.153936,0.72319 -0.43815,0.16581 -0.890411,0.26458 -1.358547,0.29281 -0.935567,-0.0141 -1.765301,-0.22578 -2.489906,-0.635 -0.316089,-0.17992 -0.621947,-0.40923 -0.916517,-0.68792 -0.293158,-0.2787 -0.557742,-0.63147 -0.791633,-1.05128 -0.234245,-0.42333 -0.422628,-0.93133 -0.565856,-1.51694 -0.143228,-0.58914 -0.214842,-1.27706 -0.214842,-2.06023 0,-0.78669 0.0755,-1.47108 0.226484,-2.06022 0.150283,-0.58914 0.350661,-1.09714 0.599722,-1.52753 0.249061,-0.43039 0.535164,-0.79022 0.859367,-1.07597 0.324203,-0.28575 0.652991,-0.51858 0.984603,-0.70203 0.784225,-0.4198 1.68275,-0.64911 2.693458,-0.67733 0.951089,0 1.757892,0.13758 2.42182,0.41981 0.663928,0.27869 1.211086,0.67733 1.641122,1.19944 0.430389,0.51858 0.74295,1.15358 0.939447,1.89794 0.195439,0.74789 0.294217,1.59809 0.294217,2.54706 v 5.70442"
                style="fill:#ed184e;fill-opacity:1;fill-rule:nonzero;stroke:none;stroke-width:0.0352778"
                id="path22"/>
        <path
                d="m 82.085819,108.21767 v 11.47586 H 79.32498 v -11.47586 z m -2.760839,-2.55764 c 0,-0.33161 0.0039,-0.57856 0.01094,-0.74436 0.0074,-0.16581 0.05256,-0.28928 0.135819,-0.36337 0.08255,-0.0741 0.21837,-0.11641 0.407811,-0.12347 0.188384,-0.007 0.46355,-0.0141 0.825853,-0.0141 0.362303,0 0.63747,0.007 0.825853,0.0141 0.188383,0.007 0.324556,0.0494 0.407811,0.12347 0.0822,0.0741 0.127706,0.19756 0.13582,0.36337 0.0071,0.1658 0.01094,0.41275 0.01094,0.74436 0,0.33161 -0.0039,0.58208 -0.01094,0.74789 -0.0081,0.1658 -0.05362,0.28575 -0.13582,0.36336 -0.08326,0.0741 -0.219428,0.11641 -0.407811,0.12347 -0.188383,0.007 -0.46355,0.0106 -0.825853,0.0106 -0.362303,0 -0.637469,-0.004 -0.825853,-0.0106 -0.189441,-0.007 -0.325261,-0.0494 -0.407811,-0.12347 -0.08325,-0.0776 -0.128411,-0.19756 -0.135819,-0.36336 -0.0071,-0.16581 -0.01094,-0.41628 -0.01094,-0.74789"
                style="fill:#ed184e;fill-opacity:1;fill-rule:nonzero;stroke:none;stroke-width:0.0352778"
                id="path24"/>
        <path
                d="m 86.408758,104.41472 v 15.27881 h -2.760839 v -15.27881 h 2.760839"
                style="fill:#ed184e;fill-opacity:1;fill-rule:nonzero;stroke:none;stroke-width:0.0352778"
                id="path26"/>
        <path
                d="m -7.0498777,88.543248 v -2.070806 c -0.042439,-2.413 -0.6774392,-3.175 -2.8773263,-3.175 -2.750573,0 -2.622974,2.116667 -2.622974,4.272139 v 0.973667 z m -11.0014113,-0.635 c -0.253717,-5.626806 2.623785,-8.840612 8.039877,-8.840612 7.6585943,0 8.4619752,3.975806 8.4619752,10.491612 v 3.217334 H -12.550178 v 3.467805 c 0.04177,3.132667 1.226327,3.725334 2.8765154,3.725334 2.0315062,0 2.6237849,-1.481667 2.5396121,-4.487334 h 5.5002998 c 0.2119489,5.334003 -1.988926,8.717143 -7.6160141,8.717143 -6.3471072,0 -8.9284532,-3.00214 -8.8015242,-10.025948 v -6.265334"
                style="fill:#3871c1;fill-opacity:1;fill-rule:nonzero;stroke:none;stroke-width:0.0352778"
                id="path28"/>
        <path
                d="m 6.4975306,95.605859 v 1.679223 c 0,1.36525 0.4437945,2.568222 2.2200307,2.568222 1.3006917,0 1.8711337,-1.171222 1.8711337,-2.377722 0,-1.996723 -1.6492364,-2.758723 -3.1083254,-3.647723 C 5.7676334,92.847137 4.3096027,91.926387 3.2625582,90.719887 2.2479692,89.516915 1.6448603,88.056415 1.6448603,85.964442 c 0,-4.473222 2.6964924,-6.755695 7.009201,-6.755695 4.8521057,0 7.3254307,3.234973 7.0717837,7.708195 h -5.13715 c -0.0635,-1.397 0,-3.298472 -1.8393837,-3.425472 -1.1422945,-0.09525 -1.8079862,0.53975 -1.9346334,1.583972 -0.1583973,1.42875 0.5704417,2.159 1.6809862,2.917473 2.0930309,1.3335 3.9010169,2.159 5.2006499,3.361972 1.300339,1.2065 2.061281,2.790472 2.061281,5.676195 0,4.568468 -2.536825,7.104948 -7.1666809,7.104948 -5.1064587,0 -7.2629894,-2.85398 -7.2629894,-5.993698 v -2.536473 h 5.1696059"
                style="fill:#3871c1;fill-opacity:1;fill-rule:nonzero;stroke:none;stroke-width:0.0352778"
                id="path30"/>
        <path
                d="m 18.201992,79.780247 h 5.580945 v 17.949335 c 0,1.143 0.349603,2.123722 1.934634,2.123722 1.459089,0 1.902883,-1.266472 1.902883,-2.282472 V 79.780247 h 5.581651 v 17.219085 c 0,4.028718 -1.807634,7.136698 -7.516284,7.136698 -4.725106,0 -7.483829,-2.25073 -7.483829,-7.136698 V 79.780247"
                style="fill:#3871c1;fill-opacity:1;fill-rule:nonzero;stroke:none;stroke-width:0.0352778"
                id="path32"/>
        <path
                d="m 41.958755,90.024915 c 1.045986,-0.03175 2.251428,0.09525 3.139017,-0.60325 0.570442,-0.635 0.697442,-1.5875 0.697442,-2.409473 0,-0.92075 -0.09525,-2.31775 -1.045987,-2.758722 -0.539044,-0.1905 -1.300691,-0.1905 -2.18828,-0.1905 H 41.958755 Z M 36.376752,103.56453 V 79.780247 h 6.627989 c 2.156531,0 5.264856,0.1905 6.818137,1.964973 1.300692,1.4605 1.553986,3.234972 1.553986,5.171722 0,2.568223 -0.602192,5.453945 -3.139017,6.625167 -1.934633,0.9525 -4.186061,0.66675 -6.279092,0.762 v 9.260421 h -5.582003"
                style="fill:#3871c1;fill-opacity:1;fill-rule:nonzero;stroke:none;stroke-width:0.0352778"
                id="path34"/>
        <path
                d="M -0.82871178,110.69769 C 5.3965111,108.0448 12.645389,107.9425 17.18564,109.94275 c 4.672894,1.96497 5.628922,4.96358 5.558367,4.86128 0.03845,-0.0318 -2.697692,-0.74789 -6.348237,-0.17639 -3.6703,0.47272 -8.0909587,2.31775 -13.2923146,4.4838 -1.0862028,0.44803 -3.11319352,1.30528 -4.9545172,1.60867 -1.8468624,0.39864 -3.7179606,0.38806 -5.4070254,0.21167 -3.4165828,-0.381 -6.1092648,-1.651 -8.0261178,-2.93511 -3.8505,-2.63173 -4.992053,-5.51039 -5.009833,-5.47512 -0.01489,-0.0176 2.773433,0.76906 6.674944,1.01953 1.937632,0.127 4.1219614,0.0565 6.191109,-0.39511 1.0343445,-0.2293 2.0589171,-0.47625 3.0456013,-0.90311 1.0398479,-0.37042 1.7802932,-0.80081 3.55367192,-1.54517"
                style="fill:#3871c1;fill-opacity:1;fill-rule:nonzero;stroke:none;stroke-width:0.0352778"
                id="path36"/>
    </g>
</svg>
