<svg xmlns="http://www.w3.org/2000/svg" xml:space="preserve" style="fill-rule:evenodd;clip-rule:evenodd;stroke-linecap:round;stroke-linejoin:round;stroke-miterlimit:1.5" viewBox="0 0 1716 966"><path d="M-84-55h2670v2628H-84z" style="fill:none" transform="matrix(.6427 0 0 .36758 53.986 20.217)"/><path d="M456.861 818.909a2.21 2.21 0 0 1-2.132-1.641l-4.401-16.556a2.208 2.208 0 1 1 4.268-1.134l4.401 16.556a2.21 2.21 0 0 1-2.136 2.775Zm10.252 38.569a2.21 2.21 0 0 1-2.133-1.642l-4.4-16.556a2.209 2.209 0 0 1 1.566-2.702 2.217 2.217 0 0 1 2.701 1.568l4.401 16.556a2.208 2.208 0 0 1-2.135 2.776Zm-34.889-20.238a2.209 2.209 0 0 1-.567-4.344l16.558-4.399a2.209 2.209 0 0 1 1.134 4.27l-16.557 4.4c-.19.049-.381.073-.568.073Zm38.569-10.25a2.21 2.21 0 0 1-.566-4.344l16.557-4.399a2.208 2.208 0 0 1 1.134 4.27l-16.557 4.4c-.19.049-.381.073-.568.073Zm40.38-106.527a16.6 16.6 0 0 0-7.23 1.665 16.545 16.545 0 0 0-8.489 9.513 16.542 16.542 0 0 0 .723 12.726c3.992 8.272 13.968 11.757 22.241 7.759 8.273-3.992 11.757-13.968 7.767-22.239a16.54 16.54 0 0 0-9.513-8.486 16.696 16.696 0 0 0-5.499-.938Zm.037 37.734c-7.84 0-15.381-4.391-19.011-11.911a20.932 20.932 0 0 1-.915-16.103 20.936 20.936 0 0 1 10.74-12.032 20.92 20.92 0 0 1 16.103-.919 20.924 20.924 0 0 1 12.036 10.736c5.048 10.464.641 23.084-9.827 28.135a20.939 20.939 0 0 1-9.126 2.094Z" style="fill-rule:nonzero" transform="translate(-264 -663)"/><path d="m1678.48 1196.69-418.68-1.25c-9.69-.03-18.03-6.78-17.38-14.07l22.98-258.374c.51-5.627 6.3-9.695 13.78-9.672l418.68 1.248c9.69.029 18.04 6.78 17.39 14.07l-22.99 258.378c-.5 5.62-6.3 9.69-13.78 9.67Z" style="fill:#007CBD;fill-rule:nonzero" transform="matrix(2.22346 0 0 2.22347 -2195.247 -1771.393)"/><path d="M1678.49 1194.45h.05c6.27 0 11.09-3.21 11.48-7.63l22.99-258.378c.25-2.766-1.22-5.016-2.5-6.416-2.92-3.2-7.77-5.198-12.66-5.213l-418.68-1.248c-6.3-.124-11.14 3.188-11.53 7.63l-22.99 258.375c-.25 2.77 1.22 5.02 2.5 6.42 2.92 3.2 7.77 5.19 12.66 5.21l418.68 1.25Zm.05 4.48h-.06l-418.68-1.25c-6.2-.02-12.17-2.51-15.96-6.67-2.66-2.92-3.96-6.41-3.66-9.84l22.99-258.374c.61-6.795 7.31-11.713 15.95-11.713h.07l418.68 1.247c6.19.019 12.16 2.514 15.95 6.674 2.67 2.918 3.96 6.412 3.66 9.836l-22.99 258.37c-.6 6.8-7.31 11.72-15.95 11.72Z" style="fill-rule:nonzero" transform="matrix(2.22346 0 0 2.22347 -2195.247 -1771.393)"/><path d="m1294.1 1083.15-2.12 25.27h363.34l2.13-25.27H1294.1Zm3.77-44.64-2.13 25.28h363.34l2.13-25.28h-363.34ZM1302 993l-2.5 26.15h362.63l2.84-25.274L1302 993Zm-11.65 134.78-2.13 25.28h363.34l2.13-25.28h-363.34Zm76.32-175.628-2.13 25.274h241.26l2.13-25.274h-241.26Z" style="fill:#fff;stroke:#fff;stroke-width:1.12px" transform="matrix(2.22346 0 0 2.22347 -2195.247 -1771.393)"/><path d="M1299.5 1019.15h363.34l2.13-25.274h-363.34l-2.13 25.274Zm365.4 4.48h-367.84c-.63 0-1.23-.26-1.65-.72-.43-.46-.64-1.08-.58-1.71l2.5-29.753a2.245 2.245 0 0 1 2.24-2.053h367.84c.63 0 1.22.262 1.65.724.42.462.63 1.08.58 1.705l-2.51 29.757a2.241 2.241 0 0 1-2.23 2.05Zm-300.36-46.204h241.26l2.13-25.274h-241.26l-2.13 25.274Zm243.32 4.483H1362.1c-.63 0-1.23-.263-1.65-.725a2.267 2.267 0 0 1-.58-1.705l2.5-29.757a2.245 2.245 0 0 1 2.24-2.053h245.76c.63 0 1.22.263 1.65.725.42.461.63 1.08.58 1.705l-2.51 29.756a2.229 2.229 0 0 1-2.23 2.054Zm-312.12 81.881h363.34l2.13-25.28h-363.34l-2.13 25.28Zm365.4 4.48H1293.3a2.231 2.231 0 0 1-2.23-2.43l2.51-29.76a2.227 2.227 0 0 1 2.23-2.05h367.84c.62 0 1.22.26 1.65.72.42.47.63 1.08.58 1.71l-2.51 29.76a2.234 2.234 0 0 1-2.23 2.05Zm-369.16 40.15h363.34l2.13-25.27H1294.1l-2.12 25.27Zm365.4 4.48h-367.84c-.63 0-1.23-.26-1.65-.72-.43-.46-.64-1.08-.58-1.71l2.5-29.75a2.25 2.25 0 0 1 2.23-2.06h367.85c.62 0 1.22.27 1.65.73.42.46.63 1.08.58 1.7l-2.51 29.76a2.234 2.234 0 0 1-2.23 2.05Zm-369.16 40.16h363.34l2.13-25.28h-363.34l-2.13 25.28Zm365.4 4.48h-367.84c-.63 0-1.23-.26-1.65-.73-.43-.46-.64-1.08-.58-1.7l2.5-29.76c.1-1.16 1.07-2.05 2.24-2.05h367.84c.63 0 1.22.26 1.65.72.42.47.63 1.08.58 1.71l-2.51 29.76a2.241 2.241 0 0 1-2.23 2.05Z" style="fill-rule:nonzero" transform="matrix(2.22346 0 0 2.22347 -2195.247 -1771.393)"/><path d="M1680 602c-247.4 0-448 200.6-448 448s200.6 448 448 448 448-200.6 448-448-200.6-448-448-448Zm0 820c-205.4 0-372-166.6-372-372s166.6-372 372-372 372 166.6 372 372-166.6 372-372 372Z" style="fill:#333;fill-rule:nonzero" transform="matrix(.20966 0 0 .22053 303.852 -24.632)"/><path d="M1680 678c-205.4 0-372 166.6-372 372s166.6 372 372 372 372-166.6 372-372-166.6-372-372-372Zm192 396c0 4.4-3.6 8-8 8h-152v152c0 4.4-3.6 8-8 8h-48c-4.4 0-8-3.6-8-8v-152h-152c-4.4 0-8-3.6-8-8v-48c0-4.4 3.6-8 8-8h152V866c0-4.4 3.6-8 8-8h48c4.4 0 8 3.6 8 8v152h152c4.4 0 8 3.6 8 8v48Z" style="fill:#fff;fill-rule:nonzero" transform="matrix(.20966 0 0 .22053 303.852 -24.632)"/><path d="M1864 1018h-152V866c0-4.4-3.6-8-8-8h-48c-4.4 0-8 3.6-8 8v152h-152c-4.4 0-8 3.6-8 8v48c0 4.4 3.6 8 8 8h152v152c0 4.4 3.6 8 8 8h48c4.4 0 8-3.6 8-8v-152h152c4.4 0 8-3.6 8-8v-48c0-4.4-3.6-8-8-8Z" style="fill:#333;fill-rule:nonzero" transform="matrix(.20966 0 0 .22053 303.852 -24.632)"/></svg>